<svg xmlns="http://www.w3.org/2000/svg" viewBox="0 0 750 500"><g id="freepik--Floor--inject-54"><path d="M712.9,463.14c0,.14-149.5.19-333.88.12S45.1,463,45.1,462.85s149.47-.19,333.92-.12S712.9,463,712.9,463.14Z" style="fill:#263238"></path></g><g id="freepik--Flowers--inject-54"><path d="M317.86,64.86s-5.8,70,70,70C387.83,97.49,357,68,317.86,64.86Z" style="fill:#ebebeb"></path><path d="M456.52,64.91s-70-5.8-70,70C423.89,134.88,453.36,104.08,456.52,64.91Z" style="fill:#ebebeb"></path><path d="M384.47,26.62s-57.16,51.31,3.13,108.21C415.64,105.12,413.26,58.54,384.47,26.62Z" style="fill:#e0e0e0"></path><path d="M194.56,91.25s-1.88,22.65,22.64,22.65C217.2,101.81,207.23,92.27,194.56,91.25Z" style="fill:#ebebeb"></path><path d="M239.43,91.27s-22.65-1.88-22.65,22.64C228.87,113.91,238.41,103.94,239.43,91.27Z" style="fill:#ebebeb"></path><path d="M216.11,78.88s-18.5,16.6,1,35C226.2,104.28,225.43,89.21,216.11,78.88Z" style="fill:#e0e0e0"></path><path d="M529.1,89.43s-1.88,22.64,22.64,22.64C551.74,100,541.78,90.45,529.1,89.43Z" style="fill:#ebebeb"></path><path d="M574,89.44s-22.64-1.88-22.64,22.65C563.41,112.09,573,102.12,574,89.44Z" style="fill:#ebebeb"></path><path d="M550.66,77.05s-18.5,16.6,1,35C560.74,102.45,560,87.38,550.66,77.05Z" style="fill:#e0e0e0"></path></g><g id="freepik--speech-bubble--inject-54"><path d="M287.55,289.35a3.07,3.07,0,1,1-2.93,3.22A3.08,3.08,0,0,1,287.55,289.35Z" style="fill:#fff"></path><path d="M287.55,289.35a7.46,7.46,0,0,1-.72.22,3.08,3.08,0,0,0-1.52,1.2,2.91,2.91,0,0,0-.24,2.75,2.86,2.86,0,0,0,5.35-.25,2.91,2.91,0,0,0-.5-2.71,3.13,3.13,0,0,0-1.63-1.06,6.57,6.57,0,0,1-.74-.15,1.45,1.45,0,0,1,.78,0,3,3,0,0,1,1.85,1,3.21,3.21,0,0,1,.66,3.06,3.28,3.28,0,0,1-6.18.29,3.23,3.23,0,0,1,.37-3.11,3.08,3.08,0,0,1,1.75-1.19A1.49,1.49,0,0,1,287.55,289.35Z" style="fill:#263238"></path><circle cx="265.12" cy="263.73" r="25.43" transform="translate(-108.24 284.84) rotate(-48.09)" style="fill:#fff"></circle><path d="M263.93,238.32a2.77,2.77,0,0,1-.41.07l-1.2.14-.88.1c-.33.05-.67.14-1.06.21a19,19,0,0,0-2.59.66,24.08,24.08,0,0,0-6.59,3.14,25.23,25.23,0,0,0-9.32,30.78,25.86,25.86,0,0,0,1.59,3.21c.32.52.68,1,1,1.53a14.16,14.16,0,0,0,1.11,1.47,28.77,28.77,0,0,0,2.57,2.74,26.67,26.67,0,0,0,3,2.32,24.34,24.34,0,0,0,7.1,3.28,27.06,27.06,0,0,0,8,.92,26.69,26.69,0,0,0,7.88-1.67A24.47,24.47,0,0,0,281,283.3a27.7,27.7,0,0,0,2.8-2.6,29.16,29.16,0,0,0,2.3-3,14.19,14.19,0,0,0,1-1.57c.28-.54.6-1.07.86-1.61a27,27,0,0,0,1.29-3.36A25.33,25.33,0,0,0,277,241.42a24.42,24.42,0,0,0-6.86-2.5,17.48,17.48,0,0,0-2.64-.41c-.39,0-.74-.1-1.07-.12h-.89l-1.21,0a2.18,2.18,0,0,1-.41,0l.41,0,1.21,0h.9c.33,0,.68.06,1.07.09a20.16,20.16,0,0,1,2.67.37,24.23,24.23,0,0,1,6.95,2.46,25.51,25.51,0,0,1,12.46,30.14,26.78,26.78,0,0,1-1.3,3.41c-.27.56-.59,1.09-.88,1.64a13.26,13.26,0,0,1-1,1.6,27.76,27.76,0,0,1-2.33,3,28.83,28.83,0,0,1-2.85,2.66,25.11,25.11,0,0,1-6.89,4,27.13,27.13,0,0,1-8,1.7,27.44,27.44,0,0,1-8.16-.94,25,25,0,0,1-7.23-3.34,29.11,29.11,0,0,1-3.09-2.38,28.45,28.45,0,0,1-2.6-2.79,13.48,13.48,0,0,1-1.14-1.5c-.34-.52-.71-1-1-1.56a25.58,25.58,0,0,1,8-34.45,24.19,24.19,0,0,1,6.69-3.09,18.34,18.34,0,0,1,2.62-.62c.38-.07.73-.15,1.06-.19l.89-.08,1.21-.09Z" style="fill:#263238"></path><path d="M260.62,260.86h1.62l3.53-4.92V252.7s2.5-.15,2.21,4.08,0,3.16,0,3.16,5.32,0,5.76.48.46,5.61.52,8.48a3.1,3.1,0,0,1-2.2,3.12,2.22,2.22,0,0,1-.57.07c-1.32,0-8.1-1.07-8.1-1.07h-2.79Z" style="fill:#FF9182"></path><polygon points="255.98 259.97 256.98 271.05 259.75 271.05 259.75 260.2 255.98 259.97" style="fill:#FF9182"></polygon></g><g id="freepik--character-4--inject-54"><path d="M556.29,352.87a4.17,4.17,0,0,0-.21-4.27,4.92,4.92,0,0,1-1.24,2.73c-.76.68-2.19.68-2.62-.25-.33-.72.1-1.54.33-2.3a4.87,4.87,0,0,0-1.48-5c-1.55-1.32-3.73-1.51-5.71-2a16.68,16.68,0,0,1-11.83-12.07l-2.26-14.49c7.16-2.17,15.09-.64,21.66,2.94s11.93,9,16.58,14.88a24.7,24.7,0,0,1,3.53,5.47,9.84,9.84,0,0,1,.67,6.38,5.89,5.89,0,0,1-4.62-2.8,12.8,12.8,0,0,1-6.56,7.59l-1-3.3A10,10,0,0,1,556.29,352.87Z" style="fill:#e0e0e0"></path><path d="M554.65,299.8a11.89,11.89,0,0,0-13.57,4l-10,13.19c-3.38,6.1,2.69,13.67,8.92,16.79,6.93,3.46,14.33,6.91,20,8.32,11.4,2.82,16.22-4.79,16.22-4.79l8.21,3.45,15.09,3.07-9.12-26.05-35.61-18C554.62,299.73,554.9,299.88,554.65,299.8Z" style="fill:#ffbe9d"></path><path d="M551.1,335.53a1.49,1.49,0,0,0,1.94-.73,1.43,1.43,0,0,0-.64-1.94,1.49,1.49,0,0,0-1.94.74A1.42,1.42,0,0,0,551.1,335.53Z" style="fill:#263238"></path><path d="M544.88,333.94c.25-.1-.08-1.46.55-2.93s1.82-2.24,1.71-2.48-.45-.07-1,.25a4.11,4.11,0,0,0-1.59,1.89,3.94,3.94,0,0,0-.21,2.43C544.5,333.7,544.76,334,544.88,333.94Z" style="fill:#263238"></path><path d="M554.92,322.56a1.49,1.49,0,0,0,1.94-.74,1.42,1.42,0,0,0-.63-1.93,1.49,1.49,0,0,0-1.94.73A1.43,1.43,0,0,0,554.92,322.56Z" style="fill:#263238"></path><path d="M550.77,319.93c.25-.1-.07-1.46.55-2.93s1.83-2.24,1.71-2.48-.44-.08-1,.25a4,4,0,0,0-1.59,1.89,4,4,0,0,0-.22,2.43C550.4,319.69,550.66,320,550.77,319.93Z" style="fill:#263238"></path><path d="M560.42,329.42a10.11,10.11,0,0,0-1.45,2.21c-.19.36-.42.68-.7.64s-.65-.36-1-.73l-2.4-2.32c-3.42-3.28-6.31-5.82-6.44-5.68s2.54,2.91,6,6.18l2.43,2.29a2.41,2.41,0,0,0,1.4.82,1,1,0,0,0,.81-.39,3.06,3.06,0,0,0,.36-.6A10.68,10.68,0,0,0,560.42,329.42Z" style="fill:#263238"></path><path d="M578.39,321.53s5.88,6.57.36,16.84l-2.52-1.06A29.17,29.17,0,0,0,578.39,321.53Z" style="fill:#eb996e"></path><path d="M545.64,317.22c.46,0,.89-1.53,1.83-3.17s2-2.84,1.74-3.22c-.12-.17-.6-.09-1.23.31a6.35,6.35,0,0,0-2.73,4.87C545.24,316.75,545.42,317.2,545.64,317.22Z" style="fill:#e0e0e0"></path><path d="M540.57,331.56c.44-.12.52-1.28,1-2.51s1.17-2.16.93-2.55c-.13-.17-.53-.15-1,.17a3.69,3.69,0,0,0-1.41,1.79,3.77,3.77,0,0,0-.17,2.28C540.07,331.32,540.36,331.6,540.57,331.56Z" style="fill:#e0e0e0"></path><path d="M565.5,325a2.09,2.09,0,0,0-2.3,1.37,2.19,2.19,0,0,0,.45,2,2.68,2.68,0,0,0,1.89.9l.15,0a2.37,2.37,0,0,0,1.56-2.25A2.22,2.22,0,0,0,565.5,325Z" style="fill:#eb996e"></path><path d="M565.27,330.34c-.22-.09.48-1.55-.28-3.19s-2.38-2.23-2.29-2.43.48-.12,1.15.18a4,4,0,0,1,1.95,2,3.49,3.49,0,0,1,.14,2.63C565.7,330.11,565.37,330.4,565.27,330.34Z" style="fill:#263238"></path><path d="M535.5,298.11a16.1,16.1,0,0,0-9.33,6.39c-2,3.28-2.2,5.64-1,8.77a9.48,9.48,0,0,1,.72,4.29c-.33,1.82-1.15,3.12-.9,5.53.34,3.3,3.55,5.93,5.87,8.29,2.88,2.94,5.22,6.45,8.52,8.91s8.05,3.68,11.51,1.43c-3.39-.62-7.09-1.49-9.12-4.28-1.55-2.12-1.78-4.91-2.89-7.29-1.34-2.88-4.09-4.25-5.3-7.18-2.75-6.69,8.77-12.14,1.91-24.86" style="fill:#e0e0e0"></path><path d="M538.23,334.92a33.89,33.89,0,0,1-6.86-8.21,18.22,18.22,0,0,1,5.85-23.7l.41-.83a15.42,15.42,0,0,1,1,13.23c-1,2.53-2.72,5-2.26,7.72s2.77,4.4,3.84,6.8c.72,1.63.83,3.48,1.6,5.09a13.69,13.69,0,0,0,3.74,4.22C542.7,339,540.34,336.92,538.23,334.92Z" style="fill:#e0e0e0"></path><path d="M537.53,308.49l-3.41-9.29c1.81-5.51,8.26-7,12.92-7.33,3.46-.24,6.91.6,10.38.75s7.13-.42,10.68-.16,7.3,1.56,9.28,4.53l-2.69.35a14.37,14.37,0,0,1,6.89,6.85l-2.5-.43a14,14,0,0,1,3.6,7.39l7.42,6.6C573.64,316.89,577.31,304.12,537.53,308.49Z" style="fill:#e0e0e0"></path><path d="M561.14,308c-.31-.28.09-7.87,7.12-5,6.83,2.78,2.61,9.07,2.41,9S561.14,308,561.14,308Z" style="fill:#ffbe9d"></path><path d="M568.94,308.85s.14-.09.31-.25a1.27,1.27,0,0,0,.38-.88,3.16,3.16,0,0,0-2.08-2.44,4.26,4.26,0,0,0-1.84-.37,1.54,1.54,0,0,0-1.28.52.66.66,0,0,0,0,.84c.16.17.31.18.31.22s-.18.1-.44-.07A.8.8,0,0,1,564,306a1,1,0,0,1,.09-.73,1.8,1.8,0,0,1,1.57-.81,4.3,4.3,0,0,1,2.07.37c1.36.6,2.35,1.84,2.24,2.94a1.41,1.41,0,0,1-.63,1C569.11,308.9,569,308.88,568.94,308.85Z" style="fill:#eb996e"></path><path d="M570.47,308.58a1.45,1.45,0,1,1,1.38,1.76,1.5,1.5,0,0,1-1.41-1.4" style="fill:#fff"></path><path d="M570.44,308.94a2,2,0,0,0,.65,1,1.26,1.26,0,0,0,1.18.18,1.37,1.37,0,0,0,.9-1.11,1.41,1.41,0,0,0-.68-1.26,1.25,1.25,0,0,0-1.2,0,2,2,0,0,0-.82.86s0-.13.06-.35a1.54,1.54,0,0,1,2.11-.75,1.58,1.58,0,0,1-.27,2.93,1.44,1.44,0,0,1-1.42-.29,1.51,1.51,0,0,1-.52-.82C570.39,309.07,570.42,308.94,570.44,308.94Z" style="fill:#263238"></path><path d="M539.46,308.61a21.47,21.47,0,0,1-3.39-4.41,21.77,21.77,0,0,1-1.7-5.3,4,4,0,0,0,0,1.68,12,12,0,0,0,3.71,7.06A4.08,4.08,0,0,0,539.46,308.61Z" style="fill:#fafafa"></path><path d="M563.49,324.9c0,.14-.71.08-1.36.52s-.88,1.06-1,1-.1-.2,0-.51a1.92,1.92,0,0,1,1.93-1.26C563.34,324.72,563.5,324.84,563.49,324.9Z" style="fill:#eb996e"></path><path d="M557.45,314.45c.14.06,0,.59-.11,1.23s-.25,1.17-.39,1.17-.27-.58-.12-1.28S557.33,314.39,557.45,314.45Z" style="fill:#eb996e"></path><path d="M558.59,315.46c0,.15-.33.37-.66.73s-.54.73-.68.7-.14-.58.3-1.06S558.56,315.32,558.59,315.46Z" style="fill:#eb996e"></path><path d="M563.34,325.46c0,.15-.54.23-1,.66s-.58.94-.73.94-.13-.16-.1-.42a1.49,1.49,0,0,1,.47-.9,1.51,1.51,0,0,1,.92-.42C563.19,325.31,563.34,325.39,563.34,325.46Z" style="fill:#eb996e"></path><path d="M582.47,322.61c0,.05-.36.32-.92,0a1,1,0,0,1-.34-.42c-.08-.17-.11-.34-.17-.43a.44.44,0,0,0-.29-.17,2.39,2.39,0,0,0-.53,0,3.4,3.4,0,0,1-2.1-.47c-.48-.31-.67-.61-.63-.65a5.79,5.79,0,0,0,2.72.6,2.44,2.44,0,0,1,.66,0,.9.9,0,0,1,.59.44,2.53,2.53,0,0,1,.15.51.57.57,0,0,0,.17.28C582.1,322.6,582.46,322.53,582.47,322.61Z" style="fill:#eb996e"></path><path d="M648.35,290.4l-8.85,4.85,6.93,42.11S657,331.83,663.59,329c4.61-2,14.1-11.6,14.1-11.6Z" style="fill:#ffbe9d"></path><path d="M582.19,331.17a49.36,49.36,0,0,1,3.7-13.65c2-4.54,4.43-10.13,5.46-12.28,1.86-3.84,37.82-5.54,37.82-5.54l17.34-8.29s17.72,41,16.32,47.11c0,0-10.87,4-20.65,6.9-9.31,2.78-15.92,8.08-22.71,8.07s-14.66-2.61-14.66-2.61l-6.93,5.69-18.34-6.47Z" style="fill:#FF9182"></path><path d="M615.36,233.93,606,269.44S589.48,300.5,588.47,309a6.91,6.91,0,0,0-.05,1c.3,6.73,24.94-7.75,24.94-7.75s10.5-28.75,11.2-37.45,3-29.92,3-29.92Z" style="fill:#FF9182"></path><path d="M580.68,345.94a15.16,15.16,0,0,0-.61,8.74,53.84,53.84,0,0,1,1.49,11.76c-.06,7.49-9.83,66.69-9.83,66.69l12.83-1.66s12.78-29.86,14.69-42.62,5-44,5-44l1-16.76-16.06-4.6Z" style="fill:#FF9182"></path><path d="M605.12,348a29.75,29.75,0,0,0-1.47-3.3,13.36,13.36,0,0,0-14.76-6.47,30.54,30.54,0,0,0-3.42,1.16,3.72,3.72,0,0,1,.83-.54,11.84,11.84,0,0,1,2.5-1A13.13,13.13,0,0,1,604,344.48a11.23,11.23,0,0,1,1,2.51A3.42,3.42,0,0,1,605.12,348Z" style="fill:#263238"></path><path d="M618.47,300.38c0,.1-1.54.17-4,.52a44.7,44.7,0,0,0-9.36,2.47c-3.55,1.35-6.63,2.9-8.92,3.92-1.14.51-2.07.91-2.72,1.16a4.43,4.43,0,0,1-1,.35,4.54,4.54,0,0,1,.95-.53L596,307c2.23-1.09,5.3-2.71,8.88-4.07a39.27,39.27,0,0,1,9.5-2.34c1.25-.12,2.26-.2,3-.19A3.87,3.87,0,0,1,618.47,300.38Z" style="fill:#263238"></path><path d="M624.23,341.83a9.24,9.24,0,0,1,.49-1.37c.35-.86.82-2.13,1.37-3.7a72.7,72.7,0,0,0,4-25.55c0-1.67-.09-3-.15-3.94a7.38,7.38,0,0,1,0-1.46,8.56,8.56,0,0,1,.24,1.44c.12.92.24,2.27.32,3.95a64.84,64.84,0,0,1-4.08,25.68c-.59,1.57-1.12,2.82-1.53,3.66A7.08,7.08,0,0,1,624.23,341.83Z" style="fill:#263238"></path><g style="opacity:0.30000000000000004"><path d="M633,336.29a115.16,115.16,0,0,0,.7-27.64c4.55,8.12,4.76,20.11-.7,27.64"></path></g><g style="opacity:0.30000000000000004"><path d="M603.68,301.8a29.68,29.68,0,0,0-8.88,5.94c6.63-3.05,12.46-5.86,19.36-7A18.91,18.91,0,0,0,603.68,301.8Z"></path></g><path d="M573.35,432.21c.33.35-4.49,15.31-4.49,15.31l-.58,16a1.17,1.17,0,0,0,1.68-.09c.8-.89,2-11.93,2-11.93s.7,5.42,1.67,5.47,1.93,0,1.88-.95a33.89,33.89,0,0,1,.34-3.77s1.2,3.75,2.44,4.41,2.37-.73,2.37-.73l.46-2.15,2.52-6.88-.81-15.11Z" style="fill:#ffbe9d"></path><path d="M706.42,432.49l.26,14.6.43,14.49a2,2,0,0,1-1.91,2l-29.52.24a2.17,2.17,0,0,1-2.07-2.74,1.9,1.9,0,0,1,1.09-1.25c2.12-1,18.2-10.45,18.2-10.45l-.9-18.67Z" style="fill:#ffbe9d"></path><path d="M648.35,290.4a27.26,27.26,0,0,1,2.29-16.48c4.12-8,12.18-8.12,15.56-14.74s19.57-34,19.57-34l-35.93.92s-7.05-6.39-2.46-13.19c0,0,41.18-11.81,50.27-12.77s11.84-1.21,16.52,5.82,2.38,13.25.64,20.57-15.66,51.41-15.66,51.41-.8,10.7-3.71,18.49-28.8,30.74-28.8,30.74,2.24-11.33-4-20.93C657.63,298.44,648.35,290.4,648.35,290.4Z" style="fill:#FF9182"></path><path d="M698.84,207.3c.12.09-3,4.49-7,9.83s-7.31,9.61-7.43,9.52,3-4.49,7-9.83S698.73,207.21,698.84,207.3Z" style="fill:#263238"></path><path d="M685.35,286.8s7.22,5.31,12.22,19,9.58,73.79,9.58,73.79,1.63,23.63,1.91,35.65c.23,10-2.08,35.42-2.08,35.42l-17.36,0-6.17-60.8-7.83-30-9-32.71Z" style="fill:#FF9182"></path><path d="M695.23,297a6,6,0,0,1-.6,1.09c-.4.69-1,1.67-1.83,2.85a79,79,0,0,1-6.95,8.75,68.24,68.24,0,0,1-8.18,7.62c-1.12.89-2.06,1.57-2.73,2a6,6,0,0,1-1.06.65,6.05,6.05,0,0,1,.94-.82c.63-.48,1.53-1.21,2.62-2.12a86.74,86.74,0,0,0,8-7.69,102.25,102.25,0,0,0,7-8.61c.84-1.15,1.51-2.09,2-2.75A5.6,5.6,0,0,1,695.23,297Z" style="fill:#263238"></path><g style="opacity:0.30000000000000004"><path d="M694.18,298.56c-4.65,7.42-11.15,14.21-19.11,20.49,7.18.22,14.38-3.56,18.92-9.13a10.27,10.27,0,0,0,2.57-5.45C696.73,302.44,694.18,298.56,694.18,298.56Z"></path></g><path d="M647.38,212.89l-18.16,2.55s-6.25-4.83-7.63-1.43,1.21,6.25,5.13,7.73,9.36,2.91,11.46,5.83,4.11,6.92,7.65,4.4a9.62,9.62,0,0,0,4-5.89Z" style="fill:#ffbe9d"></path><path d="M621.69,214.82s-2.19,8-2.7,10-.23,9.21-.23,9.21l7.19.75,9.21-10.58-.74-9.19Z" style="fill:#ffbe9d"></path><path d="M621.46,215.74c.07,0,0,.31.25.79a4,4,0,0,0,1.42,1.67,16.62,16.62,0,0,0,2.91,1.67c1.15.53,2.46,1.1,3.76,1.82a51.47,51.47,0,0,1,6.42,4.08,7.61,7.61,0,0,1,2.24,2.22c-.05,0-.85-.83-2.46-1.92a68.46,68.46,0,0,0-6.44-3.92c-1.29-.71-2.57-1.28-3.73-1.85a14.93,14.93,0,0,1-2.93-1.81,4,4,0,0,1-1.38-1.89,1.92,1.92,0,0,1-.09-.64C621.44,215.81,621.45,215.74,621.46,215.74Z" style="fill:#eb996e"></path><path d="M624.36,230.65c-.08,0,.27-.65.46-1.72a6.22,6.22,0,0,0-.63-4.05,5.76,5.76,0,0,1-1-2.23,3.82,3.82,0,0,1,.41-2,4.43,4.43,0,0,1,1-1.51,11.19,11.19,0,0,1-.68,1.66,3.7,3.7,0,0,0-.27,1.8,5.85,5.85,0,0,0,1,2,6.08,6.08,0,0,1,.53,4.38A3.19,3.19,0,0,1,624.36,230.65Z" style="fill:#eb996e"></path></g><g id="freepik--character-3--inject-54"><path d="M479.42,205.06c-.77.54-46.82,2.63-46.82,2.63L422,252.57l7.79,9s-5.36,5.24,2.59,6.91c1.28.27,55.93-1.33,55.93-1.33s2.54-.8,2-6.67,1.66-16.52.07-23.87S479.42,205.06,479.42,205.06Z" style="fill:#a26760"></path><path d="M471.5,205.5a26.9,26.9,0,0,1,1.79,6.86,9,9,0,0,1-1.88,6.63,11,11,0,0,1-5.32,2.87c-5.47,1.66-11.41,2.59-16.79.63s-10-9.21-9.28-15.15l-7.42.35s-7.71,34.41-7.08,37.37,4.64,15.55,4.64,15.55l3.41-.74A178.34,178.34,0,0,1,490,257.94s.19-19.41-.38-22.67-10.23-30.21-10.23-30.21Z" style="fill:#455a64"></path><g style="opacity:0.30000000000000004"><path d="M478.65,246.68a61.05,61.05,0,0,0-15.76-7.56,14.64,14.64,0,0,0-5-1c-3.72.12-6.81,2.77-9.57,5.28l-19.66,17.91,1.09.29a81.74,81.74,0,0,0,28.57-18.34,104.14,104.14,0,0,0,32,16.24A36.53,36.53,0,0,0,478.65,246.68Z"></path></g><path d="M458.81,145.14c2.51-3.15,9.22-3.14,10.93-1.29a5.11,5.11,0,0,1,6.81,1.78l7.21,1.09a7.43,7.43,0,0,1,3.5,1.16,2.55,2.55,0,0,1,.82,3.28,3.87,3.87,0,0,1,2,6.07,2.69,2.69,0,0,1-.15,3.92,27,27,0,0,1,5.1,7.61,5.49,5.49,0,0,1,.6,3.72c-.37,1.23-1.89,2.16-3,1.48a3.18,3.18,0,0,1,.37,3.4c1.2-.05,1.68,1.78.91,2.71a4.38,4.38,0,0,1-3.31,1.16,5.79,5.79,0,0,0-3.45.82,1.14,1.14,0,0,0,.44.74,5,5,0,0,1,1.55,6.66l-.36.58a10.93,10.93,0,0,1-3.33,2.68c-2.63,1.59-4.26,1.43-7.27,2.07,1,1.9-3.69,6.56-9.61,2.67a109.13,109.13,0,0,1-30.74,6.22c-1.66.12-3.67,0-4.51-1.42a4.13,4.13,0,0,1-3.88-1,12.4,12.4,0,0,1-2.45-3.37,7.27,7.27,0,0,1-5.64-6.19,9,9,0,0,1-3.8-6.14,5.27,5.27,0,0,1-3.47-6.9,31.86,31.86,0,0,1,2.81-10c-1.93-.29-2.81-2.81-2.15-4.65s2.33-3.1,3.91-4.25c-1.4.47-2.76-1.24-2.52-2.7a5.65,5.65,0,0,1,2.69-3.37,27.05,27.05,0,0,1,5.73-3c.52-2.55,3.53-5.62,5.81-6.88,9.18-5.1,15.75-6.67,28.4,1.38" style="fill:#263238"></path><path d="M468.73,159.6a3.86,3.86,0,0,0-3.5-3.86l-20.5-4.9c-6.55-.6-10.79,7.51-11.12,14.08-.37,7.31-.53,16.23.41,21.67a14.13,14.13,0,0,0,11.72,12l.16,7.94.11,9.24c3.1-.57,22.72-4.37,22.72-4.37Z" style="fill:#a26760"></path><path d="M445.12,180.9a10.75,10.75,0,0,0-2.46-.41c-.39,0-.75-.1-.82-.37a1.91,1.91,0,0,1,.24-1.14c.35-.94.72-1.92,1.1-2.95,1.53-4.21,2.64-7.66,2.47-7.72s-1.55,3.3-3.08,7.5l-1.06,3a2.27,2.27,0,0,0-.18,1.52,1,1,0,0,0,.65.55,2.67,2.67,0,0,0,.65.08A9.22,9.22,0,0,0,445.12,180.9Z" style="fill:#263238"></path><path d="M445.74,198.64s5.94.53,13.18-3.95c0,0-1.66,8.18-13.11,7.74Z" style="fill:#7b4b45"></path><path d="M449.33,163.79c.16.41,1.66.2,3.44.39s3.21.65,3.44.28c.11-.18-.15-.56-.73-1a5.71,5.71,0,0,0-2.56-.86,5.78,5.78,0,0,0-2.68.35C449.59,163.27,449.27,163.6,449.33,163.79Z" style="fill:#263238"></path><path d="M436.07,164.34c.27.34,1.3,0,2.56-.07s2.31.2,2.55-.16c.1-.17-.07-.52-.54-.83a3.48,3.48,0,0,0-2.08-.54,3.52,3.52,0,0,0-2,.72C436.09,163.81,436,164.17,436.07,164.34Z" style="fill:#263238"></path><path d="M429,170.45a7.54,7.54,0,0,1,1.54-4.8c.6-.73,1.39-1.29,1.91-2.07,1.14-1.69.84-3.92,1.25-5.91a8.24,8.24,0,0,1,4.78-5.85c2-.85,4.34-.88,6.2-2,1.38-.84,2.38-2.21,3.81-3,2.77-1.47,6.16-.2,8.95,1.25.65,2.11-.59,4-1.79,5.88a7.63,7.63,0,0,1-5.44,3.39c-1.7.2-3.72-.07-4.85,1.22s-.57,3.58-1.52,5.11c-1.36,2.18-4.78,1.58-6.92,3-1.66,1.1-2.26,3.19-3,5s-2.14,3.78-4.13,3.8A23,23,0,0,1,429,170.45Z" style="fill:#263238"></path><path d="M453.4,152.24A38.77,38.77,0,0,1,468.18,154a7.06,7.06,0,0,1,3.75,2.28,6.91,6.91,0,0,1,1,3.74c.19,4.1-1.17,9.2-2.51,13.07l-4.93,3.35c-4-.7-2.58-7.6-2.58-11a8.06,8.06,0,0,1-5.11-6.83A8.92,8.92,0,0,1,453.4,152.24Z" style="fill:#263238"></path><path d="M465.45,175c0-2.35,2.87-3,4.95-1.88,1.14.6,2.05,1.86,2.05,4.35,0,6.65-6.67,5.28-6.69,5.09S465.43,177.75,465.45,175Z" style="fill:#a26760"></path><path d="M467.79,180s.12.08.32.17a1.13,1.13,0,0,0,.86,0,2.89,2.89,0,0,0,1.33-2.57A3.85,3.85,0,0,0,470,176a1.33,1.33,0,0,0-.87-.89.58.58,0,0,0-.68.32c-.09.19-.05.32-.09.33s-.14-.11-.08-.39a.65.65,0,0,1,.26-.41.85.85,0,0,1,.64-.17,1.61,1.61,0,0,1,1.21,1,3.94,3.94,0,0,1,.4,1.85,3,3,0,0,1-1.69,2.87,1.23,1.23,0,0,1-1.06-.18C467.81,180.2,467.77,180.05,467.79,180Z" style="fill:#7b4b45"></path><path d="M468.69,182.78a.66.66,0,0,1,0,.09,1.47,1.47,0,0,0,.11.25,1.56,1.56,0,0,0,.81.64,4,4,0,0,0,1.65.25,5.78,5.78,0,0,0,1.06-.13,3.77,3.77,0,0,0,1.14-.42l-.08,0a3.3,3.3,0,0,0,5.37,1.8l-.12,0a1.36,1.36,0,0,0,.9.53,1.87,1.87,0,0,0,1.07-.15,1.77,1.77,0,0,0,.83-.75,2.36,2.36,0,0,0,.27-1.11,3.42,3.42,0,0,0-.85-2.17A10.47,10.47,0,0,0,479,180v.16a2.32,2.32,0,0,0,1-1.63,3.31,3.31,0,0,0-.3-1.95,5.14,5.14,0,0,0-1.25-1.58,16.4,16.4,0,0,0-1.64-1.24v.15a2.51,2.51,0,0,0,.55-2,3.66,3.66,0,0,0-.86-1.92,8.9,8.9,0,0,0-3.36-2.07l.05.11a4.4,4.4,0,0,0-5.08-5.16l.1.11a4,4,0,0,0-3.95-4.39l.08.08a3.71,3.71,0,0,0-1.67-2.8,3.64,3.64,0,0,0-2.81-.61l.08.07a3.74,3.74,0,0,0-.63-1.67,4.65,4.65,0,0,0-1.08-1.16,3.85,3.85,0,0,0-2.32-.85h-.25l-.23,0c-.15,0-.29,0-.42.07a4.27,4.27,0,0,0-.62.22l-.36.18-.12.06s0,0,.13,0l.36-.16a4.22,4.22,0,0,1,.62-.19c.13,0,.27,0,.41-.07l.23,0h.25a3.78,3.78,0,0,1,2.26.86,4.6,4.6,0,0,1,1,1.14,3.64,3.64,0,0,1,.6,1.61v.08l.07,0a3.7,3.7,0,0,1,4.29,3.29v.08h.09a3.54,3.54,0,0,1,2.73,1.17,3.61,3.61,0,0,1,1,3l0,.13.13,0A4.22,4.22,0,0,1,473,168l0,.08.08,0a8.72,8.72,0,0,1,3.28,2,3.41,3.41,0,0,1,.82,1.81,2.31,2.31,0,0,1-.5,1.81l-.07.08.09.07a7.72,7.72,0,0,1,2.84,2.74,3.22,3.22,0,0,1,.28,1.83,2.14,2.14,0,0,1-.87,1.5l-.11.07.11.08a10.22,10.22,0,0,1,1.81,1.57,3.24,3.24,0,0,1,.82,2.05,1.78,1.78,0,0,1-1,1.71,1.46,1.46,0,0,1-1.77-.32l0-.07-.06.06a3.17,3.17,0,0,1-5.16-1.7l0-.07-.06,0a3.85,3.85,0,0,1-1.11.41,5.62,5.62,0,0,1-1,.14,4.14,4.14,0,0,1-1.63-.21,1.57,1.57,0,0,1-.81-.61C468.73,182.9,468.7,182.78,468.69,182.78Z" style="fill:#455a64"></path><path d="M493.51,174.23a2.37,2.37,0,0,0,.23-.41,3.6,3.6,0,0,0,.28-1.34,3.38,3.38,0,0,0-.67-2,3.5,3.5,0,0,0-2.49-1.39l.07.08a4.61,4.61,0,0,0-.79-3.24,4.41,4.41,0,0,0-1.38-1.3,10.48,10.48,0,0,0-1.86-.75,3.36,3.36,0,0,1-.9-.47,2.25,2.25,0,0,1-.65-.78c-.33-.61-.47-1.36-.88-2a4,4,0,0,0-4.15-1.77l.12.11a5.32,5.32,0,0,0-6.23-5.68l.12.11a4.67,4.67,0,0,0-7.5-3.94h.11a6.44,6.44,0,0,0-2.4-1.28,9.63,9.63,0,0,0-2.41-.4,11.11,11.11,0,0,0-3.91.49,7.7,7.7,0,0,0-2.27,1.1,4.06,4.06,0,0,0-.52.43l-.17.15s.24-.2.71-.53a8.16,8.16,0,0,1,2.28-1.06,11.49,11.49,0,0,1,3.88-.45,9.78,9.78,0,0,1,2.37.42,6.34,6.34,0,0,1,2.33,1.26l.05.05.05-.05a4.49,4.49,0,0,1,7.2,3.8v.12l.12,0a5.11,5.11,0,0,1,6,5.46V159l.13,0a3.84,3.84,0,0,1,3.95,1.67c.39.62.53,1.36.88,2a2.4,2.4,0,0,0,.71.84,3.48,3.48,0,0,0,.94.48,11.76,11.76,0,0,1,1.84.73A4.31,4.31,0,0,1,490,166a4.37,4.37,0,0,1,.78,3.13v.07h.07a3.43,3.43,0,0,1,2.42,1.32,3.27,3.27,0,0,1,.67,2,3.44,3.44,0,0,1-.23,1.32C493.59,174.09,493.5,174.22,493.51,174.23Z" style="fill:#455a64"></path><path d="M430.27,179.71a.63.63,0,0,0,0-.54,1.4,1.4,0,0,0-.42-.53,2.16,2.16,0,0,0-.84-.36,3.67,3.67,0,0,1-1.06-.38,2.07,2.07,0,0,1-.81-1,4.06,4.06,0,0,1-.25-1.51c0-.55,0-1.13,0-1.75a18,18,0,0,0-1.07-3.87,5.42,5.42,0,0,1-.22-2.17,2.68,2.68,0,0,1,1.09-1.94,10.35,10.35,0,0,1,2.28-.92,3.9,3.9,0,0,0,1.15-.62,2.64,2.64,0,0,0,.78-1.09,13.42,13.42,0,0,0,.55-2.65,4.37,4.37,0,0,1,.38-1.29,2,2,0,0,1,.93-.91,7.63,7.63,0,0,1,1.82-.36,3,3,0,0,0,.91-.28,1.93,1.93,0,0,0,.7-.66,6.39,6.39,0,0,0,.59-1.74,4.1,4.1,0,0,1,.75-1.54,4,4,0,0,1,2.8-1.55,4.14,4.14,0,0,1,2.87.86l.09.07,0-.11a6.28,6.28,0,0,1,3.73-3.62,5.84,5.84,0,0,1,2.21-.32,5.24,5.24,0,0,1,1.85.4,4.63,4.63,0,0,1,2,1.66,7.1,7.1,0,0,1,.37.61l.09.16,0,.05a.15.15,0,0,0,0-.06l-.08-.16a3.75,3.75,0,0,0-.34-.63,4.74,4.74,0,0,0-2-1.73,5.65,5.65,0,0,0-1.89-.43,6.24,6.24,0,0,0-2.25.31,6.44,6.44,0,0,0-3.85,3.7l.13,0a4.27,4.27,0,0,0-3-.9,4.17,4.17,0,0,0-2.95,1.61,4.55,4.55,0,0,0-.78,1.61,6.28,6.28,0,0,1-.57,1.68,2,2,0,0,1-1.48.86,7.46,7.46,0,0,0-1.87.37,2.2,2.2,0,0,0-1,1,4.39,4.39,0,0,0-.4,1.34,13.41,13.41,0,0,1-.53,2.61,2.56,2.56,0,0,1-.72,1,3.55,3.55,0,0,1-1.1.59,10.4,10.4,0,0,0-2.31.95,2.49,2.49,0,0,0-.82.92,3.4,3.4,0,0,0-.35,1.15,5.75,5.75,0,0,0,.23,2.24,17.49,17.49,0,0,1,1.09,3.83c0,.6,0,1.19,0,1.74a4.28,4.28,0,0,0,.28,1.55,2.13,2.13,0,0,0,.86,1.06,3.66,3.66,0,0,0,1.09.36,2.26,2.26,0,0,1,.83.34,1.29,1.29,0,0,1,.41.49A.84.84,0,0,1,430.27,179.71Z" style="fill:#455a64"></path><path d="M416.81,170.2s0,0,.06-.13.1-.22.16-.38c.15-.35.35-.84.6-1.48s.56-1.43,1-2.31a6,6,0,0,1,2.08-2.51c.52-.32,1.13-.55,1.73-.86a4.46,4.46,0,0,0,.88-.58,2.27,2.27,0,0,0,.62-.9c.28-.71.24-1.49.45-2.22a2,2,0,0,1,.58-.94,3.56,3.56,0,0,1,1-.55,6.91,6.91,0,0,0,1.15-.52,2.17,2.17,0,0,0,.85-1,9.6,9.6,0,0,0,.41-2.6,3.25,3.25,0,0,1,.37-1.24,1.69,1.69,0,0,1,1-.76c.86-.23,1.82,0,2.78-.19a2.29,2.29,0,0,0,1.23-.75,5.77,5.77,0,0,0,.76-1.18c.22-.41.42-.82.66-1.19a2.64,2.64,0,0,1,.93-.89,3.88,3.88,0,0,1,2.5-.12,6,6,0,0,0,2.53.07,6.68,6.68,0,0,0,2.13-1.13,11.41,11.41,0,0,1,1.89-1.19,6.89,6.89,0,0,1,3.92-.36,7.47,7.47,0,0,1,3,1.33,8.37,8.37,0,0,1,1.72,1.81,9.7,9.7,0,0,1,.77,1.39l.17.37a.73.73,0,0,0,.07.13.75.75,0,0,0-.05-.14c0-.09-.09-.22-.15-.38a8.8,8.8,0,0,0-.75-1.41,8.17,8.17,0,0,0-1.71-1.86,7.63,7.63,0,0,0-3-1.38,7,7,0,0,0-4,.35,10.78,10.78,0,0,0-1.92,1.2,6.57,6.57,0,0,1-2.08,1.09,5.83,5.83,0,0,1-2.45-.08,7.83,7.83,0,0,0-1.3-.15,2.54,2.54,0,0,0-2.32,1.24c-.26.38-.46.8-.68,1.2a5.47,5.47,0,0,1-.73,1.15,2.14,2.14,0,0,1-1.13.69c-.89.2-1.84,0-2.78.19a1.92,1.92,0,0,0-1.13.84,3.4,3.4,0,0,0-.39,1.32,9.79,9.79,0,0,1-.4,2.55,1.93,1.93,0,0,1-.78.91,6.17,6.17,0,0,1-1.11.5,3.9,3.9,0,0,0-1.08.59,2,2,0,0,0-.64,1c-.22.77-.18,1.54-.43,2.21a2.7,2.7,0,0,1-1.42,1.4c-.59.31-1.2.55-1.74.88a6,6,0,0,0-2.1,2.58c-.43.89-.71,1.69-1,2.34s-.43,1.13-.56,1.49l-.15.39A.93.93,0,0,0,416.81,170.2Z" style="fill:#455a64"></path><path d="M423.46,162.86l-.12,0a.86.86,0,0,0-.35.1,1.43,1.43,0,0,0-.59,1.22,3.35,3.35,0,0,0,.2,1,4.35,4.35,0,0,1,.24,1.13,2.69,2.69,0,0,1-.4,1.26c-.23.41-.54.82-.78,1.31a1.93,1.93,0,0,0-.06,1.68c.24.55.68,1,.91,1.56a2.48,2.48,0,0,1-.07,1.83c-.23.62-.56,1.23-.77,1.92a2.83,2.83,0,0,0-.15,1.09,2.63,2.63,0,0,0,.31,1.08,12.66,12.66,0,0,0,1.37,1.81,3.08,3.08,0,0,1,.82,2.06,10,10,0,0,1-.67,2.28,3.73,3.73,0,0,0-.18,1.24,2.93,2.93,0,0,0,.38,1.17,10.29,10.29,0,0,0,1.54,1.79,5.46,5.46,0,0,1,1.27,1.81,16.06,16.06,0,0,0,.81,2,2.4,2.4,0,0,0,.72.8,3.32,3.32,0,0,0,1,.4,7.26,7.26,0,0,1,.94.27,2.88,2.88,0,0,1,.79.48,6.45,6.45,0,0,1,1.17,1.35,16.45,16.45,0,0,0,1,1.36,4.54,4.54,0,0,0,2.4,1.57,5.12,5.12,0,0,0,2.18.08,4.38,4.38,0,0,0,1.3-.47,2.72,2.72,0,0,0,.4-.26,4.84,4.84,0,0,1-3.85.54,4.45,4.45,0,0,1-2.32-1.55c-.34-.41-.64-.88-1-1.36a6.71,6.71,0,0,0-1.19-1.39,3.25,3.25,0,0,0-.84-.51,8,8,0,0,0-1-.29,2.69,2.69,0,0,1-.91-.37,2.35,2.35,0,0,1-.66-.74,15.29,15.29,0,0,1-.79-2,5.61,5.61,0,0,0-1.31-1.87,9.64,9.64,0,0,1-1.5-1.75,2.34,2.34,0,0,1-.35-1.09,3.35,3.35,0,0,1,.16-1.16,10.1,10.1,0,0,0,.68-2.33,2.56,2.56,0,0,0-.23-1.19,5.16,5.16,0,0,0-.64-1,12.28,12.28,0,0,1-1.35-1.78,2.62,2.62,0,0,1-.3-1,3,3,0,0,1,.14-1c.21-.66.54-1.27.76-1.91a2.64,2.64,0,0,0,.07-1.95c-.26-.6-.7-1.05-.93-1.57a1.76,1.76,0,0,1,.05-1.55c.23-.47.53-.89.76-1.31a2.6,2.6,0,0,0,.4-1.32,4,4,0,0,0-.26-1.16,3.27,3.27,0,0,1-.21-1A1.39,1.39,0,0,1,423,163,.87.87,0,0,1,423.46,162.86Z" style="fill:#455a64"></path><path d="M493.34,174a2.55,2.55,0,0,0,.52-.08,3.65,3.65,0,0,0,2.64-2.71,3.7,3.7,0,0,0-.72-3.1,8.63,8.63,0,0,0-1.4-1.28,4.51,4.51,0,0,1-1.33-1.51,3,3,0,0,1,0-2.11c.21-.72.56-1.44.76-2.24a6.5,6.5,0,0,0-5.37-8l.07.15a3.25,3.25,0,0,0,.49-1.48,4,4,0,0,0-.19-1.57,4.48,4.48,0,0,0-.74-1.42,5.41,5.41,0,0,0-1.19-1.1,10.36,10.36,0,0,0-4.46-1.52,15.89,15.89,0,0,0-4.47.06l.11.09a4.69,4.69,0,0,0-2.89-3.92,4.79,4.79,0,0,0-2.35-.32,7.68,7.68,0,0,0-2.14.7,4.27,4.27,0,0,1-1,.29,2.4,2.4,0,0,1-1-.05,8.31,8.31,0,0,1-1.81-.75,7.22,7.22,0,0,0-1.71-.67,5.78,5.78,0,0,0-1.69-.13,5.52,5.52,0,0,0-2.71.91,5.59,5.59,0,0,0-1.53,1.49,5.16,5.16,0,0,0-.63,1.18,4,4,0,0,0-.15.44s.06-.15.18-.43a5.65,5.65,0,0,1,2.18-2.6,5.52,5.52,0,0,1,2.67-.87,5.91,5.91,0,0,1,1.65.14,7.36,7.36,0,0,1,1.68.67,7.94,7.94,0,0,0,1.83.78,2.69,2.69,0,0,0,1.06.05,3.93,3.93,0,0,0,1.05-.3,7.58,7.58,0,0,1,2.1-.67,4.51,4.51,0,0,1,5,4.08v.1h.1a15.11,15.11,0,0,1,4.41-.06,10.2,10.2,0,0,1,4.37,1.48,5.29,5.29,0,0,1,1.15,1.06,4.54,4.54,0,0,1,.71,1.36,3.77,3.77,0,0,1,.18,1.49,3.06,3.06,0,0,1-.46,1.39l-.08.13.15,0a6.35,6.35,0,0,1,5.23,7.76c-.19.78-.54,1.49-.75,2.24a3.09,3.09,0,0,0,0,2.22,4.83,4.83,0,0,0,1.38,1.55,9,9,0,0,1,1.39,1.25,3.58,3.58,0,0,1,.72,3,3.43,3.43,0,0,1-1.23,2,3.87,3.87,0,0,1-1.32.7C493.52,174,493.33,174,493.34,174Z" style="fill:#263238"></path><path d="M420.87,158.44s0,0,0-.13,0-.22,0-.37c0-.34,0-.83.05-1.44s.08-1.39.19-2.27a12.77,12.77,0,0,1,.72-2.9,8.44,8.44,0,0,1,1.94-3,6.41,6.41,0,0,1,1.64-1.14,16.68,16.68,0,0,1,2-.71,6.24,6.24,0,0,0,2-1,9.73,9.73,0,0,0,1.6-1.78c.47-.64.93-1.33,1.46-2a6.64,6.64,0,0,1,1.91-1.58,12,12,0,0,1,4.73-1.3,31.09,31.09,0,0,1,4.61-.07,23.4,23.4,0,0,1,7.61,1.66,16.94,16.94,0,0,1,4.5,2.72c.23.21.44.38.62.55l.42.43.27.27.1.08-.08-.1-.26-.28-.41-.44c-.17-.17-.38-.36-.61-.57a16.35,16.35,0,0,0-4.49-2.79,23.65,23.65,0,0,0-7.66-1.72,31.51,31.51,0,0,0-4.64.07,12,12,0,0,0-4.81,1.31,7,7,0,0,0-2,1.63c-.55.64-1,1.32-1.47,2a9.32,9.32,0,0,1-1.56,1.74,5.7,5.7,0,0,1-2,1,17.15,17.15,0,0,0-2,.73,6.58,6.58,0,0,0-1.68,1.18,8.75,8.75,0,0,0-2,3.09,13.21,13.21,0,0,0-.69,2.95c-.11.88-.14,1.65-.16,2.28s0,1.11,0,1.44v.37C420.86,158.4,420.86,158.44,420.87,158.44Z" style="fill:#263238"></path><path d="M472.54,181.47a3.59,3.59,0,0,1,1,.52,4.51,4.51,0,0,1,1.76,2.55,4.66,4.66,0,0,1,.07,2.18,5.32,5.32,0,0,1-1.08,2.25,5.45,5.45,0,0,1-2.22,1.64,5,5,0,0,1-3,.24,5.39,5.39,0,0,1-2.61-1.39,4.83,4.83,0,0,1-1.35-2.41,5.14,5.14,0,0,1,1.05-4.43,4.83,4.83,0,0,1,2.74-1.48,2.75,2.75,0,0,1,.85,0,1.25,1.25,0,0,1,.29.07,3.75,3.75,0,0,0-1.13.05,4.66,4.66,0,0,0-1.24.44,4.49,4.49,0,0,0-1.37,1,5,5,0,0,0-1,4.27,4.61,4.61,0,0,0,1.29,2.28,5.22,5.22,0,0,0,2.5,1.32,4.76,4.76,0,0,0,2.8-.22,5.29,5.29,0,0,0,3.19-3.71,4.72,4.72,0,0,0,0-2.09,4.53,4.53,0,0,0-1.65-2.51A10.14,10.14,0,0,0,472.54,181.47Z" style="fill:#e0e0e0"></path><path d="M442.18,171.93c-.18-.25-1.45.7-3.13.59s-2.85-1.18-3.05-1,.06.54.57,1a3.92,3.92,0,0,0,2.42,1,3.8,3.8,0,0,0,2.51-.77C442.05,172.46,442.26,172,442.18,171.93Z" style="fill:#263238"></path><path d="M457.14,171.38c-.25-.2-1.34,1-3.12,1.3s-3.23-.44-3.39-.18.2.5.84.85a4.35,4.35,0,0,0,2.76.43,4.25,4.25,0,0,0,2.43-1.32C457.13,171.92,457.25,171.47,457.14,171.38Z" style="fill:#263238"></path><path d="M451.81,184.39A2.29,2.29,0,0,0,451,183a2.36,2.36,0,0,0-2.86-.17,3.16,3.16,0,0,0-1.19,3h0A2.88,2.88,0,0,0,449,187h.38a2.6,2.6,0,0,0,1.74-.69A2.29,2.29,0,0,0,451.81,184.39Z" style="fill:#7b4b45"></path><path d="M450.91,181.58c-.25,0-.16,1.64-1.5,2.88s-3.09,1.15-3.09,1.38.41.3,1.14.28a4.15,4.15,0,0,0,2.59-1.06,3.59,3.59,0,0,0,1.15-2.41C451.22,182,451,181.57,450.91,181.58Z" style="fill:#263238"></path><path d="M432.6,207.69s-12.88,1-17.91,10.41c-4.19,7.82-13.05,33.31-13.23,36.25s-3.85,17.73,6.82,17.15S449.05,249,456,241.6h0l-7.43-5.17-23.42,8.69Z" style="fill:#a26760"></path><path d="M448.55,236.43l5-19.4L456,206.56s1-.23,1.13,3.05a66,66,0,0,0,.21,7.73c.39,3.38,1.3,18.46,1,20.68s-3,4.09-3,4.09" style="fill:#a26760"></path><path d="M455.35,242.11a15.09,15.09,0,0,0,1.83-1.91,4.52,4.52,0,0,0,1-2.81c0-1.22,0-2.6-.09-4.14-.13-3.06-.34-6.71-.62-10.76-.14-2-.32-4.13-.56-6.35s-.05-4.54-.1-6.84a7.63,7.63,0,0,0-.21-1.54,2.4,2.4,0,0,0-.27-.65.65.65,0,0,0-.32-.3l.19-.19c-1,4.21-1.84,8.21-2.76,11.79s-1.79,6.75-2.51,9.44l-1.72,6.3c-.2.7-.37,1.26-.49,1.7a3.54,3.54,0,0,1-.2.58,2.71,2.71,0,0,1,.1-.6c.11-.45.24-1,.4-1.72.38-1.55.91-3.7,1.57-6.34s1.49-5.9,2.4-9.47,1.73-7.59,2.71-11.8l0-.18h.15a.93.93,0,0,1,.88.52,3.22,3.22,0,0,1,.33.8,8.31,8.31,0,0,1,.23,1.64c.06,1.2,0,2.35,0,3.49s0,2.25.1,3.34c.23,2.19.4,4.34.52,6.36.26,4,.44,7.71.52,10.78,0,1.54.06,2.93,0,4.16a4.69,4.69,0,0,1-1.16,2.92,9.48,9.48,0,0,1-1.41,1.4A2.76,2.76,0,0,1,455.35,242.11Z" style="fill:#7b4b45"></path><path d="M468.27,236.43l-5-19.4L460.94,207s-.72-.4-1.27,1.19.23,5.8-.17,9.17-1.3,18.46-1,20.68,3,4.09,3,4.09" style="fill:#a26760"></path><path d="M461.47,242.11a2.59,2.59,0,0,1-.57-.39,9.17,9.17,0,0,1-1.41-1.38,4.69,4.69,0,0,1-1.17-2.9c-.06-1.22,0-2.6,0-4.12.08-3,.25-6.68.5-10.7.12-2,.3-4.14.5-6.3s-.15-4.42-.11-6.78a4.84,4.84,0,0,1,.32-1.75A2.79,2.79,0,0,1,460,207a.91.91,0,0,1,1-.26l.1.05,0,.12c1,4.16,1.78,8.1,2.68,11.64s1.69,6.67,2.36,9.33,1.17,4.72,1.55,6.25l.39,1.69a2.71,2.71,0,0,1,.1.6,3.6,3.6,0,0,1-.2-.57c-.12-.43-.28-1-.48-1.67-.41-1.52-1-3.62-1.7-6.21s-1.54-5.8-2.48-9.31-1.75-7.48-2.73-11.63l.13.17a.41.41,0,0,0-.41.16,2,2,0,0,0-.38.62,4.21,4.21,0,0,0-.28,1.57c0,2.28.24,4.57.1,6.79s-.39,4.28-.53,6.3c-.28,4-.49,7.64-.62,10.68-.06,1.52-.11,2.9-.08,4.1a4.52,4.52,0,0,0,1,2.78A15.86,15.86,0,0,0,461.47,242.11Z" style="fill:#7b4b45"></path><path d="M447.89,236.68a16.91,16.91,0,0,1-1.63.63L441.8,239c-3.76,1.43-9,3.4-14.75,5.45-2.91,1-5.68,2-8.25,2.69a17.18,17.18,0,0,1-1.93.43c-.64.11-1.24.12-1.83.19a25.08,25.08,0,0,0-3.22.54,11.34,11.34,0,0,0-4.26,1.92c-.88.68-1.26,1.18-1.3,1.14s.07-.14.26-.37a6,6,0,0,1,.92-.93,10.79,10.79,0,0,1,4.29-2.12,25.29,25.29,0,0,1,3.26-.61c.59-.08,1.22-.1,1.82-.21a17.74,17.74,0,0,0,1.86-.44c2.54-.74,5.31-1.7,8.2-2.72l14.81-5.3c1.9-.67,3.44-1.2,4.51-1.54.54-.17,1-.29,1.25-.36A1.37,1.37,0,0,1,447.89,236.68Z" style="fill:#7b4b45"></path><path d="M427.41,234.07a38.76,38.76,0,0,1-1.35-5.85,49.48,49.48,0,0,1-1-5.92,26.83,26.83,0,0,1,1.51,5.82A32.1,32.1,0,0,1,427.41,234.07Z" style="fill:#7b4b45"></path><path d="M479.42,205.06s9.11-3,17.49,5,15,29.22,15,29.22,10.68,17.74,2.29,25.48-52.73-22.68-52.73-22.68l6-6.84s17.59,7.1,23.54,6.84l-3.71-15.65Z" style="fill:#a26760"></path><path d="M509.64,245.22a14.61,14.61,0,0,0-2.39-1.75,14.07,14.07,0,0,0-6.95-1.28c-2.81.13-5.38.49-7.26.41a13.21,13.21,0,0,1-2.21-.22,2.2,2.2,0,0,1-.78-.22c0-.09,1.14.12,3,.07s4.38-.42,7.24-.56a13.3,13.3,0,0,1,7.15,1.48,7.26,7.26,0,0,1,1.74,1.4A2.28,2.28,0,0,1,509.64,245.22Z" style="fill:#7b4b45"></path><path d="M488.71,218.1c.15,0-.15,2.35-.19,5.22s.19,5.19,0,5.21a15.52,15.52,0,0,1-.56-5.22A15.84,15.84,0,0,1,488.71,218.1Z" style="fill:#7b4b45"></path><path d="M467.69,431.41l.29,14.67.47,14.57a2,2,0,0,1-1.91,2.05l-29.69.31a2.18,2.18,0,0,1-2.08-2.75,1.9,1.9,0,0,1,1.08-1.26c2.14-1,18.29-10.55,18.29-10.55l-5.31-19.29Z" style="fill:#a26760"></path><path d="M432.34,268.52l-1.21,3.15s-5.2,5.44-6.92,12.11c-2.25,8.7-6.68,19.32-2.17,38.42,2.33,9.85,15.5,50.15,15.5,50.15s-.11,21.17,1.87,31,12.65,42.86,12.65,42.86l15.92-.09s-.13-85.59-.13-85.23-.42-41.73-.42-41.73l1-28.12L466,267.82Z" style="fill:#455a64"></path><g style="opacity:0.30000000000000004"><path d="M466.68,388.58l-7.11-8.77a8.33,8.33,0,0,0-.39,7.21c0,6.9-.05,13.83,1,20.64s3.26,13.57,7.32,19.15Q468,407.69,466.68,388.58Z"></path></g><path d="M484.18,366.52,472,376.46l-10.46.18a2.09,2.09,0,0,0-1.75,2.36l3.86,32.32a2.19,2.19,0,0,0,3,1.88,2,2,0,0,0,1.09-1.36c.66-2.46,7.84-21.36,7.84-21.36L491,383Z" style="fill:#a26760"></path><path d="M488.27,267.19l2,3.42a66.9,66.9,0,0,1,6.64,15.64l.89,3.14s27.81,54.33,27.81,64.82S524,374,514.32,379.08,476,390.51,476,390.51c-3.47-4.41-6.41-9-5.09-14l13.56-14.31-8.05-18.71-9.53-18.23-9.33-46.4,3.88-10.88Z" style="fill:#455a64"></path><path d="M491.6,291.26a13.67,13.67,0,0,1-1.56.82l-.85.41-1,.56a26.11,26.11,0,0,0-2.32,1.42l-1.31.89-1.35,1.06c-1,.7-1.85,1.6-2.85,2.49a45.37,45.37,0,0,0-5.53,6.66,44.4,44.4,0,0,0-4,7.66c-.48,1.25-.93,2.43-1.24,3.57a30.4,30.4,0,0,0-.83,3.2c-.26,1-.35,1.89-.49,2.68a20,20,0,0,0-.26,2,13,13,0,0,1-.22,1.75,10.3,10.3,0,0,1,0-1.76,15.74,15.74,0,0,1,.17-2.07c.12-.8.18-1.72.42-2.72a31.12,31.12,0,0,1,.77-3.24c.3-1.16.75-2.36,1.22-3.63a42.31,42.31,0,0,1,4.05-7.77,43.57,43.57,0,0,1,5.63-6.72c1-.88,1.93-1.78,2.91-2.48l1.39-1.05,1.34-.87a25.12,25.12,0,0,1,2.38-1.37l1-.53.87-.37A10.29,10.29,0,0,1,491.6,291.26Z" style="fill:#263238"></path><path d="M460.69,312.05c-.08,0-.74-1.08-2-2.76a39.82,39.82,0,0,0-5.46-6,37.43,37.43,0,0,0-6.62-4.72c-1.82-1-3-1.54-3-1.62a3,3,0,0,1,.88.27,23.4,23.4,0,0,1,2.28,1,32.58,32.58,0,0,1,6.79,4.66,33.42,33.42,0,0,1,5.41,6.21,23.77,23.77,0,0,1,1.3,2.13A3.3,3.3,0,0,1,460.69,312.05Z" style="fill:#263238"></path><path d="M489.44,269.88a2.27,2.27,0,0,1-.58.21l-1.68.5c-.73.22-1.64.43-2.69.69s-2.26.52-3.6.78a160.16,160.16,0,0,1-21.14,2.67,158.67,158.67,0,0,1-21.31,0c-1.36-.09-2.59-.2-3.67-.34s-2-.22-2.75-.35l-1.74-.28a2.46,2.46,0,0,1-.6-.14,3.21,3.21,0,0,1,.62,0l1.74.19c.76.1,1.69.17,2.76.26s2.31.19,3.66.27a183.4,183.4,0,0,0,21.26-.12,181,181,0,0,0,21.1-2.51c1.34-.24,2.55-.47,3.6-.71s2-.41,2.71-.6l1.71-.4A3.35,3.35,0,0,1,489.44,269.88Z" style="fill:#263238"></path><path d="M502.53,371.16a2.75,2.75,0,0,1-.86.29,12.27,12.27,0,0,1-2.46.34,15.05,15.05,0,0,1-7.91-1.91,15.89,15.89,0,0,1-5.8-5.71,13.72,13.72,0,0,1-1.07-2.23,2.93,2.93,0,0,1-.25-.87c.09,0,.52,1.18,1.64,2.91a16.83,16.83,0,0,0,5.74,5.45,15.85,15.85,0,0,0,7.64,2C501.26,371.42,502.51,371.07,502.53,371.16Z" style="fill:#263238"></path><g style="opacity:0.30000000000000004"><path d="M474.41,305.79c-3.22,5.14-4.86,10.15-6.38,16l-.1.58c4-11.06,12.08-21.9,20.88-29.84A34.82,34.82,0,0,0,474.41,305.79Z"></path></g></g><g id="freepik--character-2--inject-54"><path d="M304.34,291.28S282.4,313,275.73,334.62s-11.39,28.06-11.39,28.06l29.17-17.23,14.84-38.61,35.16,4.45L346.84,301S309.9,290.45,304.34,291.28Z" style="fill:#ffbe9d"></path><path d="M343.51,311.29l4.14,1.66,9.23,9.62L367.83,328s1.47-.31.38-1.86-2.63-4.34-2.63-4.34L374,322s.67-1.7-2.1-2.39a16.06,16.06,0,0,1-2.79-1l-5.84-5.74s-5.14-6.11-6.85-7.12-9.54-4.74-9.54-4.74Z" style="fill:#ffbe9d"></path><path d="M356.19,318.3a3.88,3.88,0,0,1,1.23.26,30.76,30.76,0,0,1,3.2,1.27l2.15,1a5.21,5.21,0,0,0,1.16.41,1.13,1.13,0,0,0,1-.53,2.32,2.32,0,0,0,0-2.53,7.6,7.6,0,0,0-2.52-1.75,30.23,30.23,0,0,0-3.7-1.5l-.09,0,0-.08-1.29-2.13a10.57,10.57,0,0,0-1.4-1.73,16.4,16.4,0,0,0-3-2.27c-1.81-1.08-3-1.53-3-1.61a4.11,4.11,0,0,1,.86.27,17.4,17.4,0,0,1,2.27,1.07,15.79,15.79,0,0,1,3.11,2.23,10.26,10.26,0,0,1,1.49,1.79c.43.68.86,1.39,1.32,2.12l-.14-.11a30.24,30.24,0,0,1,3.77,1.51,8,8,0,0,1,2.71,1.91,2.79,2.79,0,0,1,0,3.12,1.6,1.6,0,0,1-1.39.71,5.27,5.27,0,0,1-1.31-.47l-2.13-1c-1.3-.64-2.35-1.12-3.1-1.42A10.24,10.24,0,0,1,356.19,318.3Z" style="fill:#eb996e"></path><path d="M313.23,359.34s5-.46,8.48,1.88,24.22,16.51,29.69,17.47a22.76,22.76,0,0,0,9.07,0l10.47-32.16,9.21,3.13s-3.9,37.19-8.59,41.09-14.38,6.1-22.66,5.47-28.59-13.44-28.59-13.44l-12,3v-18Z" style="fill:#ffbe9d"></path><path d="M367.17,324.53s-.48-2.27,1-2.66a2.25,2.25,0,0,1,2.23.47s2.43-2.28,3.6-.31a7.2,7.2,0,0,1,.8,4.28s2.82-.87,3.18,1.08,0,2.31,0,2.31,2.38.51,2.81,1.23a33.34,33.34,0,0,1,1.37,3.89s-.07,7,0,8.23-2,6.61-2,6.61l-9.21-3.13s-1.52-5.86-1.66-6.08-2.21-7.21-2.18-7.43.38-5.7.38-5.7Z" style="fill:#ffbe9d"></path><path d="M367.1,333a10.11,10.11,0,0,1,0-1.94c0-.66.06-1.4.1-2.22,0-.43,0-.88.06-1.36a1.39,1.39,0,0,1,.06-.41,1.45,1.45,0,0,1,.21-.39,2.75,2.75,0,0,1,.6-.58h0a2.37,2.37,0,0,1,2.95.89,8,8,0,0,1,1.14,3.25,16.11,16.11,0,0,1,.19,2.72,2.13,2.13,0,0,0,.28,1.11,4.84,4.84,0,0,0,.75.9,10.18,10.18,0,0,1,2.35,3.61,9.62,9.62,0,0,1,.62,2.84,3.18,3.18,0,0,1-.05,1.06,15.1,15.1,0,0,0-.91-3.76,10.17,10.17,0,0,0-2.35-3.41,4.8,4.8,0,0,1-.84-1,2.7,2.7,0,0,1-.36-1.34,15.88,15.88,0,0,0-.2-2.66,7.7,7.7,0,0,0-1-3,1.93,1.93,0,0,0-2.33-.79h0c-.38.3-.74.62-.71,1l-.11,1.36c-.07.81-.14,1.55-.2,2.21A11.54,11.54,0,0,1,367.1,333Z" style="fill:#eb996e"></path><path d="M377.27,330.13a3,3,0,0,1-.44,1.54,7.3,7.3,0,0,1-1,1.47,1.71,1.71,0,0,1-1,.62.9.9,0,0,1-.7-.2,1.23,1.23,0,0,1-.37-.58,12,12,0,0,1-.05-3.87,3.63,3.63,0,0,1,.42-1.53,7.29,7.29,0,0,1-.05,1.57,16.62,16.62,0,0,0,.18,3.67c.09.31.28.46.5.43a1.36,1.36,0,0,0,.69-.44,8.43,8.43,0,0,0,1-1.32A12.56,12.56,0,0,1,377.27,330.13Z" style="fill:#eb996e"></path><path d="M380.16,332a4.9,4.9,0,0,1-.72,1.42c-.3.48-.61,1-.91,1.46a3.83,3.83,0,0,1-.68.85,1.17,1.17,0,0,1-1.29.2,1.42,1.42,0,0,1-.67-1.1,4.7,4.7,0,0,1,0-1.07,5.81,5.81,0,0,1,.46-1.71c.41-.92.87-1.36.92-1.32s-.28.55-.58,1.46a6.9,6.9,0,0,0-.33,1.62c0,.6-.08,1.4.41,1.66a.68.68,0,0,0,.73-.14,3.33,3.33,0,0,0,.6-.72l1-1.39C379.71,332.38,380.1,331.91,380.16,332Z" style="fill:#eb996e"></path><path d="M371.22,327.45c-.06.13-1.1-.52-1.47-1.9a2.44,2.44,0,0,1,.31-2.37,14,14,0,0,0,.19,2.24C370.56,326.61,371.32,327.33,371.22,327.45Z" style="fill:#eb996e"></path><path d="M322.31,372.74c0,.1-1,.16-2.55.57a16.75,16.75,0,0,0-5.61,2.69,17,17,0,0,0-4.23,4.57c-.85,1.37-1.2,2.32-1.29,2.28a2,2,0,0,1,.17-.69,11,11,0,0,1,.8-1.77A15.28,15.28,0,0,1,319.67,373a9.87,9.87,0,0,1,1.93-.24A2.19,2.19,0,0,1,322.31,372.74Z" style="fill:#eb996e"></path><path d="M368.19,326.62a15,15,0,0,1-1.71-2.76A14.48,14.48,0,0,1,365,321a12.68,12.68,0,0,1,3.23,5.62Z" style="fill:#eb996e"></path><path d="M374.63,326.38a11.73,11.73,0,0,1-.36-1.82,4.45,4.45,0,0,0-.79-1.75,2.16,2.16,0,0,0-1.92-.93,1.54,1.54,0,0,0-1.24.76l-.19.36-.24-.32a1.53,1.53,0,0,0-1.41-.57,1.47,1.47,0,0,0-1,.69,2.67,2.67,0,0,0-.31,1.19s-.35-.5,0-1.34a1.75,1.75,0,0,1,1.25-1,2,2,0,0,1,1.88.69l-.42,0a2,2,0,0,1,1.64-1.06,2.61,2.61,0,0,1,2.35,1.16,4.34,4.34,0,0,1,.77,2A4.51,4.51,0,0,1,374.63,326.38Z" style="fill:#eb996e"></path><path d="M362.47,398.49c-.09,0-2.94-7.11-2.94-7.11s-5.78-.47-6.72-5,.31-5,2-10.78.63-11.1,1.56-14.69,6.41-8.75,8.13-6.72-.63,3.28,0,6.25S367,374.5,368.25,379s5.05,15.89,5.05,15.89Z" style="fill:#ffbe9d"></path><path d="M362.47,398.49a.6.6,0,0,1,.18-.09l.54-.2,2.1-.74,8-2.73-.1.2c-.75-2.32-1.61-5-2.55-7.9-.48-1.46-1-3-1.49-4.61s-1.11-3.25-1.51-5c-.83-3.54-1.53-7.34-2.27-11.32-.37-2-.75-4-1.14-6.1a7.35,7.35,0,0,1,.54-3.21,2.7,2.7,0,0,0,.12-1.45,2,2,0,0,0-.3-.65,1.46,1.46,0,0,0-.47-.51,1.78,1.78,0,0,0-1.54.05,6.87,6.87,0,0,0-1.52.89,13.71,13.71,0,0,0-2.51,2.48,10.59,10.59,0,0,0-1.72,3,12.79,12.79,0,0,0-.53,3.32c-.11,2.25-.06,4.48-.26,6.62a26,26,0,0,1-1.23,6.11c-.58,1.9-1.4,3.66-1.86,5.36a9.87,9.87,0,0,0,.25,5,5.67,5.67,0,0,0,2.81,3.21,10.36,10.36,0,0,0,3.57,1.12h.08l0,.07c1.69,4.28,2.49,6.33,2.82,7.16a9.93,9.93,0,0,1-.86-1.8c-.52-1.19-1.27-3-2.21-5.26l.12.08a10.37,10.37,0,0,1-3.7-1.1,6,6,0,0,1-3-3.37,12.74,12.74,0,0,1-.47-2.49,8.2,8.2,0,0,1,.18-2.69c.47-1.79,1.26-3.51,1.83-5.41a26.24,26.24,0,0,0,1.19-6c.18-2.12.13-4.32.23-6.6a13.48,13.48,0,0,1,.54-3.47,11.21,11.21,0,0,1,1.81-3.12,14.12,14.12,0,0,1,2.6-2.58,7.32,7.32,0,0,1,1.63-.95,2.28,2.28,0,0,1,2,0,2.14,2.14,0,0,1,.64.67,2.84,2.84,0,0,1,.37.81,3.31,3.31,0,0,1-.13,1.72,6.9,6.9,0,0,0-.52,3c.38,2.06.75,4.09,1.12,6.07.73,4,1.41,7.78,2.23,11.3.38,1.76,1,3.41,1.47,5s1,3.15,1.45,4.62c.92,2.93,1.75,5.59,2.47,7.91l.05.15-.15,0-8,2.59-2.13.67-.55.16Z" style="fill:#eb996e"></path><path d="M328.21,289a9.93,9.93,0,0,0-12.75,3.23,9.13,9.13,0,0,0-.17,9.49,8.16,8.16,0,0,0,5.21,3.61l-1.1,0c4.46,1.85,10.67.55,12.78-3.81A9.92,9.92,0,0,0,328.21,289Z" style="fill:#263238"></path><path d="M337.06,307.89c-3.15-3.72-7.58-5-12.42-5.58a24.12,24.12,0,0,0-14.1,3,28.8,28.8,0,0,0-11.43,12.15,15,15,0,0,0,.65,13.82c3.55,6.05,9.57,10.77,16.57,11.14s14-2.91,18.69-8.1a23.17,23.17,0,0,0,6.08-12.9,17.67,17.67,0,0,0-4-13.49" style="fill:#263238"></path><path d="M316.06,311.57c1.72-.95,2.84-2.69,4.31-4,3.24-2.88,8.1-3.28,12.24-2,3.85,1.21,7.1,4.4,9.6,8.39a17.24,17.24,0,0,1,2.76,9.16A13.5,13.5,0,0,1,339.05,334l-14.73-16.61a24.43,24.43,0,0,1-7.91-.94,4.56,4.56,0,0,1-2-1.2,2,2,0,0,1-.39-2.18C314.41,312.3,315.31,312,316.06,311.57Z" style="fill:#263238"></path><path d="M338.66,318.91l-17.28-9.26a3.59,3.59,0,0,0-4.82.53L290,342.06a12.8,12.8,0,0,0-3,7.72l-.12,3a9.46,9.46,0,0,0,12.84,9.29,4.81,4.81,0,0,0,1-.54c.29-.25.53-.37.75-.6a30,30,0,0,0,4.3-4.59c2.53-2.71,3.55-3.83,3.53-3.8s6.64,4.3,14.69-2.13c4-3.2,9.42-9.51,13.67-14.81C341.53,330.8,343.59,322.54,338.66,318.91Z" style="fill:#ffbe9d"></path><path d="M330.67,339.81a1.29,1.29,0,0,1-1.81.13,1.26,1.26,0,0,1-.21-1.78,1.31,1.31,0,0,1,1.82-.12A1.24,1.24,0,0,1,330.67,339.81Z" style="fill:#263238"></path><path d="M333.45,337.55c-.23,0-.47-1.19-1.51-2.13s-2.28-1.12-2.27-1.35.32-.22.88-.16a3.65,3.65,0,0,1,2,.92,3.49,3.49,0,0,1,1.06,1.86C333.66,337.23,333.56,337.55,333.45,337.55Z" style="fill:#263238"></path><path d="M321.29,331.57a1.31,1.31,0,0,1-1.82.12,1.25,1.25,0,0,1-.2-1.78,1.3,1.3,0,0,1,1.81-.12A1.26,1.26,0,0,1,321.29,331.57Z" style="fill:#263238"></path><path d="M323.48,328.7c-.23,0-.47-1.2-1.51-2.14s-2.28-1.12-2.27-1.35.32-.22.87-.16a3.58,3.58,0,0,1,2,.92,3.42,3.42,0,0,1,1.06,1.86C323.69,328.37,323.59,328.69,323.48,328.7Z" style="fill:#263238"></path><path d="M319.82,339.58a9.19,9.19,0,0,1,2,1.23c.29.21.59.39.8.25s.39-.52.54-.95c.33-.87.69-1.78,1.06-2.73a47.8,47.8,0,0,1,3.05-6.89c.16.07-1,3.25-2.49,7.12-.39.95-.75,1.85-1.1,2.72a2.09,2.09,0,0,1-.82,1.16.91.91,0,0,1-.79,0,2.2,2.2,0,0,1-.5-.35A9,9,0,0,1,319.82,339.58Z" style="fill:#263238"></path><path d="M309.33,352.52a25.93,25.93,0,0,1-7.63-11.88s-2.21,7.52,6,13.68Z" style="fill:#eb996e"></path><path d="M317.09,341.68a2.54,2.54,0,0,0-1-2.23,2.31,2.31,0,0,0-1.76-.44,1.48,1.48,0,0,0-1.21,1.16,1.71,1.71,0,0,0,1.05,1.59,5.44,5.44,0,0,0,2.05.42,1.63,1.63,0,0,0,.58,0,.48.48,0,0,0,.35-.39" style="fill:#eb996e"></path><path d="M316.11,337.51c.17.14-.85,1.27-.62,2.95s1.55,2.65,1.42,2.82-.47,0-1-.48a3.78,3.78,0,0,1-1.24-2.28,3.27,3.27,0,0,1,.59-2.41C315.65,337.6,316,337.43,316.11,337.51Z" style="fill:#263238"></path><path d="M326.43,325.72c-.36.19-1.27-.89-2.63-1.85s-2.64-1.53-2.57-1.93c0-.19.45-.3,1.1-.21a5.33,5.33,0,0,1,2.31,1,5.21,5.21,0,0,1,1.65,1.9C326.57,325.2,326.6,325.63,326.43,325.72Z" style="fill:#263238"></path><path d="M336.13,334.36c-.39.07-.89-.83-1.74-1.62s-1.73-1.29-1.67-1.69c0-.19.36-.32.89-.26a3.46,3.46,0,0,1,2.75,2.67C336.44,334,336.32,334.32,336.13,334.36Z" style="fill:#263238"></path><path d="M315.28,307c5.29-3.18,17.05-3.66,21.39.72l3.5,10.91a9.48,9.48,0,0,1-9.62,1.21c-1.66-.75-3.32-2-5.09-1.58s-2.8,2.53-4.58,3.06c-2.46.74-5.18-1.79-7.51-.69-1,.48-1.65,1.56-2.67,2-1.37.62-5.1-.36-5.87-1.64s.82-3.11,1.31-4.38a6.75,6.75,0,0,1,2.83-3.53C311.33,311.39,312.76,308.56,315.28,307Z" style="fill:#263238"></path><path d="M307.2,324.73c.51-.56,1.06-2.47.59-3.07-1.27-1.57-4-3.88-7.49-.15-4.71,5.09,1.38,8.77,1.52,8.64S305.44,326.67,307.2,324.73Z" style="fill:#ffbe9d"></path><path d="M302.05,326.77s-.14,0-.36-.09a1.14,1.14,0,0,1-.67-.6,3,3,0,0,1,.8-2.91,4.13,4.13,0,0,1,1.43-1,1.35,1.35,0,0,1,1.29-.06.6.6,0,0,1,.3.72c-.06.21-.19.28-.17.32s.19,0,.34-.24a.71.71,0,0,0,.1-.5,1,1,0,0,0-.37-.59,1.71,1.71,0,0,0-1.66-.06,4,4,0,0,0-1.62,1.13c-.92,1.06-1.28,2.51-.74,3.4a1.27,1.27,0,0,0,.94.62C301.93,326.89,302.06,326.8,302.05,326.77Z" style="fill:#eb996e"></path><path d="M340,315.77c-1.33,2.57-.38,8.11-.36,11,0,5.52.16,6.43-8,16.07a29.86,29.86,0,0,0,10.31-7.73,15.14,15.14,0,0,0,3.35-10.19,11.79,11.79,0,0,0-5.28-9.15" style="fill:#263238"></path><path d="M312.64,304.69a6.74,6.74,0,0,0,.71,1c.24.31.54.68.92,1.09s.78.9,1.29,1.38a33.27,33.27,0,0,0,3.73,3.21,37.13,37.13,0,0,0,5.13,3.14,37.55,37.55,0,0,0,5.61,2.21,33.79,33.79,0,0,0,4.81,1c.69.12,1.33.15,1.88.2a12.86,12.86,0,0,0,1.42.07,7.26,7.26,0,0,0,1.22,0,6.38,6.38,0,0,0-1.21-.14c-.39,0-.86-.06-1.41-.14s-1.17-.12-1.86-.26a37.16,37.16,0,0,1-4.74-1.12,39,39,0,0,1-5.53-2.21,40,40,0,0,1-5.1-3.08,38.19,38.19,0,0,1-3.75-3.11c-.52-.46-.94-.93-1.32-1.33a14,14,0,0,1-1-1A7.83,7.83,0,0,0,312.64,304.69Z" style="fill:#455a64"></path><path d="M308.88,308a3,3,0,0,0,.49.67,20.24,20.24,0,0,0,1.52,1.66,27.82,27.82,0,0,0,12.88,7.16,20.15,20.15,0,0,0,2.22.42,3.38,3.38,0,0,0,.82.06c0-.07-1.15-.26-3-.77a31.55,31.55,0,0,1-6.8-2.79,32.53,32.53,0,0,1-6-4.29C309.7,308.87,308.93,308,308.88,308Z" style="fill:#455a64"></path><path d="M307.43,307a4.25,4.25,0,0,0-.85.65,24.36,24.36,0,0,0-2.09,2,39,39,0,0,0-2.79,3.3,27.83,27.83,0,0,0-2.86,4.48,13.94,13.94,0,0,0-.95,9.47,13.54,13.54,0,0,0,1.07,2.72,4.88,4.88,0,0,0,.55.92,5.93,5.93,0,0,0-.4-1,16.08,16.08,0,0,1-.93-2.72,12.78,12.78,0,0,1-.3-4.22,14.21,14.21,0,0,1,1.35-5,29.33,29.33,0,0,1,2.78-4.42c1-1.3,1.89-2.42,2.7-3.34s1.49-1.63,2-2.11A6.09,6.09,0,0,0,307.43,307Z" style="fill:#455a64"></path><path d="M331.85,304.24c-.05.07-.81-.47-2.16-1.08a15.86,15.86,0,0,0-11.26-.73c-1.42.44-2.24.87-2.28.79a6.71,6.71,0,0,1,2.16-1.14,14.34,14.34,0,0,1,11.54.75A6.78,6.78,0,0,1,331.85,304.24Z" style="fill:#FF9182"></path><path d="M288.27,344.71a13.28,13.28,0,0,1,1.4-2.42,59.73,59.73,0,0,1,4-5.48,62.24,62.24,0,0,1,4.57-5,13.43,13.43,0,0,1,2.1-1.86,17.89,17.89,0,0,1-1.83,2.11c-1.17,1.27-2.77,3-4.44,5.07s-3.06,4-4.07,5.35A16.1,16.1,0,0,1,288.27,344.71Z" style="fill:#eb996e"></path><path d="M267.74,432.7c-.83,0-53.56,0-51.74,20.9,1.36,15.55,17.56,16.5,58.17,16.5l2.7-13.62,9.14-2.94Z" style="fill:#FF9182"></path><path d="M264.74,431.75s12.66,23,23.77,23.57a69,69,0,0,1,19.84,4s67.17,14.07,76.61,10,10.22-19.46,6.05-30-14.44-45.56-14.44-45.56l-15.84,5.28s2.78,30.28,4.72,36.11,3.34,10.28,3.34,10.28L329.51,430.7l-8.42-8.47a22.21,22.21,0,0,0-13.59-6.44l-3.44-.33-6.39-3.06Z" style="fill:#FF9182"></path><g style="opacity:0.30000000000000004"><path d="M308.24,457.91c0-1.22-1.14-2.08-2.15-2.76-4-2.75-8.56-5.63-13.44-5.13a11.84,11.84,0,0,1-3.65.2c-1.21-.26-2.34-1.43-2-2.61a6.89,6.89,0,0,1-6.13,3.7,13.94,13.94,0,0,1-7.15-2.11c-2.2-1.23-4.24-2.73-6.48-3.87-5.41-2.74-11.74-3.21-17.76-2.42s-11.79,2.77-17.52,4.74a84.25,84.25,0,0,1,19.83-2.55c8,.65,18.72,5.18,25.07,11.38a15.5,15.5,0,0,0,4-1.34l3.06-.94a34.46,34.46,0,0,0,4.54,1.12c2.69.49,9.64,1.05,12.82,1.9s7.4,2.21,7.4,2.21Z"></path></g><path d="M276.47,456.48l13.76.78s1.87-4.2,5.39-2.21,3.94,4.64,5.85,5.66,15.09,3.89,16.37,6.23c2,3.55-3.39,2.93-3.39,2.93l-40.28.23Z" style="fill:#ffbe9d"></path><path d="M229.59,448.43a2.09,2.09,0,0,1,.48-.18l1.42-.42c1.23-.35,3-.83,5.25-1.35a69,69,0,0,1,7.95-1.39,39.47,39.47,0,0,1,9.88.07,37.52,37.52,0,0,1,9.49,2.76,46.8,46.8,0,0,1,7.12,3.8,33.46,33.46,0,0,1,4.33,3.3,14,14,0,0,1,1,1.05,1.79,1.79,0,0,1,.32.41s-.51-.5-1.49-1.31A39.8,39.8,0,0,0,271,452a50.9,50.9,0,0,0-7.1-3.67,38.67,38.67,0,0,0-9.38-2.69c-6.91-.95-13.23.27-17.68,1.17-2.23.47-4,.9-5.28,1.19l-1.44.32A1.79,1.79,0,0,1,229.59,448.43Z" style="fill:#263238"></path><path d="M329.16,430.7c0,.09-1.13.13-2.88.56a16.49,16.49,0,0,0-10.69,8.41c-.84,1.59-1.14,2.68-1.23,2.66a2.32,2.32,0,0,1,.14-.79,12.76,12.76,0,0,1,.76-2,15.51,15.51,0,0,1,4.45-5.6,15.67,15.67,0,0,1,6.49-3,13.56,13.56,0,0,1,2.16-.25A2.34,2.34,0,0,1,329.16,430.7Z" style="fill:#263238"></path><path d="M287.54,447.46a7.38,7.38,0,0,1,.11-1.3c.09-.83.3-2,.61-3.5a53,53,0,0,1,9.85-21.15c.92-1.19,1.71-2.12,2.29-2.73a5.46,5.46,0,0,1,.93-.91,6.44,6.44,0,0,1-.78,1.05c-.53.64-1.27,1.6-2.15,2.81a59.54,59.54,0,0,0-9.78,21c-.36,1.45-.62,2.63-.77,3.45A5.3,5.3,0,0,1,287.54,447.46Z" style="fill:#263238"></path><path d="M376.56,454.2a49,49,0,0,1-4.08-4.2,25.76,25.76,0,0,1-3.69-4.54,47.89,47.89,0,0,1,4.08,4.19A25.21,25.21,0,0,1,376.56,454.2Z" style="fill:#263238"></path><g style="opacity:0.30000000000000004"><path d="M323.73,431.93a20.15,20.15,0,0,0-9,9.55c-.18.4-.32.95,0,1.24a.94.94,0,0,0,.85.1c1.69-.42,2.86-1.92,3.89-3.32l5.75-7.81a1,1,0,0,0-1.12.13"></path></g><path d="M288.78,344.62c-.83,0-23,10.28-26.94,16.95s-9.45,18.61-8.06,30.83,11.11,41.11,11.67,40.28,32.22-20.28,32.22-20.28l-3.89-8.61,14.57-18.06,4.88-26.39Z" style="fill:#ffbe9d"></path><path d="M288.43,346.53c-.47-.16-15.9,11.87-19.82,17.75-3.14,4.7.66,7.33,7.38,8.06s15.39-1.74,18.45-4.24,13.13-12.17,13.13-12.17l5.66,3.41s-17.46,12.82-17.61,21.41a16,16,0,0,0,6.59,13l-8.43,10,2.17,4.79s-25.12,1.55-33.36-5.48-9-8.6-9-8.6a32.16,32.16,0,0,1,1.55-21.17,92.46,92.46,0,0,1,7.6-13,56.56,56.56,0,0,1,16-12.87c7.58-4.11,10-2.85,10-2.85Z" style="fill:#e0e0e0"></path><path d="M278.8,420.55a92.06,92.06,0,0,1-1.86-7.08,9.64,9.64,0,0,1,1.36,3.43A10,10,0,0,1,278.8,420.55Z" style="fill:#eb996e"></path><path d="M280,365.72c.09.13-1.76,1.38-3.76,3.24s-3.4,3.6-3.52,3.51a17.85,17.85,0,0,1,7.28-6.75Z" style="fill:#eb996e"></path><g style="opacity:0.30000000000000004"><path d="M267,385.23h-.1a14.63,14.63,0,0,0,11.81,13.95A28.65,28.65,0,0,1,267,385.23Z"></path></g><path d="M280.22,399.93a2.54,2.54,0,0,1-.79-.26,14.94,14.94,0,0,1-2-1,21.52,21.52,0,0,1-5.66-4.85,29.3,29.3,0,0,1-3.94-6.33c-.4-.86-.7-1.58-.88-2.08a2.63,2.63,0,0,1-.23-.8,26.79,26.79,0,0,1,1.44,2.72,36,36,0,0,0,4,6.16,24.59,24.59,0,0,0,5.45,4.87C279.18,399.36,280.25,399.84,280.22,399.93Z" style="fill:#263238"></path></g><g id="freepik--character-1--inject-54"><path d="M173.66,385.15a5.35,5.35,0,0,1,2.7,1,3.59,3.59,0,0,1,1.43,2.45,2.7,2.7,0,0,1-1.19,2.52,2.75,2.75,0,1,1-2.13,5.08,9.11,9.11,0,0,1-2.38,4.43l-6.48-5.59Z" style="fill:#263238"></path><path d="M151.15,339.38l-1.52,7.74s-11.94-.54-14.42,11c-1.2,5.57-2.73,17.26-4,27.85a22,22,0,0,0,17.5,24.18l1.12.22c12.18,1.73,20.46-7.65,21.85-19.88l8.07-45.8L165,329.4Z" style="fill:#c8877f"></path><path d="M149.53,347.12a28.53,28.53,0,0,1,14.27,7.5s-1.88-9.05-13.64-10.34Z" style="fill:#a06763"></path><path d="M136.42,376.08a1.69,1.69,0,0,1,1.93-1.35,1.62,1.62,0,0,1,1.4,1.84,1.69,1.69,0,0,1-1.93,1.35A1.61,1.61,0,0,1,136.42,376.08Z" style="fill:#263238"></path><path d="M134.85,380.82c.24-.18,1.31,1,3.09,1.36s3.26-.27,3.41,0-.21.47-.86.77a4.63,4.63,0,0,1-2.79.27,4.48,4.48,0,0,1-2.41-1.35C134.83,381.32,134.73,380.9,134.85,380.82Z" style="fill:#263238"></path><path d="M152.24,377.69a1.69,1.69,0,0,1,1.93-1.35,1.63,1.63,0,0,1,1.41,1.84,1.69,1.69,0,0,1-1.93,1.35A1.63,1.63,0,0,1,152.24,377.69Z" style="fill:#263238"></path><path d="M152.4,384c.25-.18,1.32,1,3.09,1.36s3.27-.27,3.42,0-.21.47-.87.76a4.59,4.59,0,0,1-2.78.28,4.41,4.41,0,0,1-2.41-1.35C152.39,384.52,152.28,384.09,152.4,384Z" style="fill:#263238"></path><path d="M148.61,369.52a12.31,12.31,0,0,1-3-.06c-.46,0-.91,0-1.05.25a2.42,2.42,0,0,0,0,1.41c.21,1.19.42,2.43.65,3.73.87,5.3,1.4,9.62,1.19,9.66s-1.1-4.24-2-9.54c-.2-1.31-.4-2.55-.58-3.74a2.66,2.66,0,0,1,.12-1.83,1.17,1.17,0,0,1,.89-.51,3.29,3.29,0,0,1,.79,0A12.14,12.14,0,0,1,148.61,369.52Z" style="fill:#263238"></path><path d="M154.09,369.35c-.29,0,.1-2-1.28-3.68s-3.47-1.91-3.44-2.18.54-.28,1.41-.13a4.89,4.89,0,0,1,2.89,1.71,4.24,4.24,0,0,1,1,3.06C154.53,369,154.22,369.39,154.09,369.35Z" style="fill:#263238"></path><path d="M150.53,390.9c.28-.45,2,.14,4.14.31s3.94-.06,4.13.43c.09.23-.3.63-1.08,1a7.24,7.24,0,0,1-6.3-.57C150.72,391.57,150.41,391.11,150.53,390.9Z" style="fill:#263238"></path><path d="M134.46,386.1c.4-.34,1.54.33,3,.64s2.77.28,3,.76c.09.23-.19.6-.81.87a4.31,4.31,0,0,1-2.58.17,4.25,4.25,0,0,1-2.24-1.3C134.37,386.72,134.28,386.27,134.46,386.1Z" style="fill:#263238"></path><path d="M131.26,391.51s1.58,7.87,4.74,10.27c3.82,2.9,6.58-1.38,10.38.57s7.45,4.72,12.2,2.43c5.2-2.5,3.57-5.32,4.89-10.4,5.33-20.6,10.33-25.72,9.43-15.69-.1,1.1,2.71,2.56,2.23,7.19-.61,6-1.83,13.19-4,17.11-1.82,3.29-4.32,5.32-8.46,7.28-6.54,3.08-14.36,1.6-19.56,0S128.94,400.49,131.26,391.51Z" style="fill:#263238"></path><path d="M172.1,378.86a3.2,3.2,0,0,0,2.78,3.71c2.2.23,4.85-.51,5.61-5,1.34-8-6.93-7.67-7-7.45S172.63,375.52,172.1,378.86Z" style="fill:#c8877f"></path><path d="M174.73,373.41s.16-.07.41-.14a1.41,1.41,0,0,1,1,.15c.79.46,1.27,1.91,1.07,3.35a4.48,4.48,0,0,1-.73,1.92,1.59,1.59,0,0,1-1.22.89.7.7,0,0,1-.75-.52c-.07-.24,0-.39,0-.41s-.19.11-.18.45a1,1,0,0,0,.23.55,1,1,0,0,0,.73.33,2,2,0,0,0,1.66-1,4.88,4.88,0,0,0,.86-2.14c.22-1.61-.35-3.25-1.45-3.78a1.49,1.49,0,0,0-1.3,0C174.78,373.22,174.71,373.39,174.73,373.41Z" style="fill:#a06763"></path><path d="M166.41,393.13a7.54,7.54,0,0,0-3-2.22,2.63,2.63,0,0,0-3.23,1.24c-.2.53-.2,1.2-.65,1.55s-1.3.1-1.94-.11a5.17,5.17,0,0,0-6,2.57,2.17,2.17,0,0,0-2.79-.85,12.18,12.18,0,0,0-2.62,1.87,3.34,3.34,0,0,1-3,.82c-.57-.21-1-.67-1.65-.73-1.05-.12-1.81,1-2.17,2s-.73,2.18-1.73,2.57-1.91-.16-2.84-.5-2.21-.36-2.65.53a1.94,1.94,0,0,0,.07,1.51,5.23,5.23,0,0,0,5.66,3.16,7.09,7.09,0,0,0,12.49,3.92,7.19,7.19,0,0,0,11.79-.29,5.21,5.21,0,0,0,7.26-6.27,5,5,0,0,0,3.45-3.33c.36-1.63-.9-3.58-2.57-3.47a2.88,2.88,0,0,0-4.32-3.81" style="fill:#263238"></path><path d="M141.79,395.16l0,0-.14,0Z" style="fill:#FF9182"></path><path d="M152.36,242.55S141.29,272.07,140,276.5s-4.76,30.11,1.58,46.9,22.82,26.3,22.82,26.3L189.78,345s6.33-20.92,5.7-26.62-2.54-12.68-3.49-25,5.49-40.35,9-44.78c0,0-15.62-11.31-29.56-9.41S152.36,242.55,152.36,242.55Z" style="fill:#c8877f"></path><path d="M168,333.86c-1,1.26-8,29.78-7.66,45.31,0,0-5.39,18.06-4.44,33.9s6,47.53,6,47.53l10.49-8.23,7.92-68.45s12.89-44.69,13.07-52.07" style="fill:#c8877f"></path><path d="M193.34,331.85s0,.33-.06,1-.19,1.59-.39,2.82c-.44,2.45-1.19,6-2.3,10.58-2.2,9.09-5.66,22.08-10.12,37.76v0c-2.23,19.41-4.94,42.9-7.87,68.45l0,.1-.08.07-7.5,5.89-3,2.35-.35.27-.06-.43c-1.23-7.81-2.34-15.45-3.32-22.86s-1.86-14.61-2.44-21.54a85.39,85.39,0,0,1,.64-19.84,130.56,130.56,0,0,1,3.63-17.3v.06a119.14,119.14,0,0,1,1.78-19.11c.91-5.58,1.89-10.36,2.76-14.26s1.65-6.9,2.24-8.92c.29-1,.54-1.78.73-2.28a3.65,3.65,0,0,1,.35-.74s-.12.25-.3.76-.4,1.27-.67,2.29c-.55,2-1.29,5-2.13,8.94s-1.79,8.68-2.67,14.26a120.67,120.67,0,0,0-1.7,19.05v.06a131.33,131.33,0,0,0-3.56,17.25,85.19,85.19,0,0,0-.59,19.74c.58,6.91,1.46,14.1,2.45,21.51s2.11,15,3.33,22.84l-.42-.16,3-2.35,7.5-5.89-.1.18c3-25.54,5.71-49,8-68.44v0c4.5-15.66,8-28.63,10.29-37.7,1.14-4.53,1.93-8.11,2.41-10.55.22-1.22.4-2.16.45-2.79S193.34,331.85,193.34,331.85Z" style="fill:#a06763"></path><path d="M183.2,319.94a2.1,2.1,0,0,1,.37.72,10,10,0,0,1,.55,2.14,11.86,11.86,0,0,1-1.14,7.12,12,12,0,0,1-5.13,5.1,10.22,10.22,0,0,1-2.06.79,2.25,2.25,0,0,1-.79.12c0-.09,1.1-.34,2.68-1.24a12,12,0,0,0,6.08-11.85C183.57,321,183.11,320,183.2,319.94Z" style="fill:#a06763"></path><path d="M165.74,316.46c-.1,0-.36-1.13-1.08-2.86a22.21,22.21,0,0,0-3.94-6.12A21.61,21.61,0,0,0,155,303c-1.66-.88-2.78-1.24-2.75-1.33a2.66,2.66,0,0,1,.81.18,14.52,14.52,0,0,1,2.11.82A19.64,19.64,0,0,1,165,313.47a14.2,14.2,0,0,1,.63,2.17A2.92,2.92,0,0,1,165.74,316.46Z" style="fill:#a06763"></path><path d="M172.75,254.78c.07,0-.49,1.36-1.32,3.54s-1.87,5.2-2.8,8.63-1.53,6.57-1.9,8.87-.56,3.72-.64,3.71a4.12,4.12,0,0,1,0-1c0-.66.12-1.6.26-2.76a67.55,67.55,0,0,1,4.73-17.58c.46-1.07.86-1.93,1.15-2.51A4.24,4.24,0,0,1,172.75,254.78Z" style="fill:#a06763"></path><path d="M150.93,256.5c-.25.82-.5,1.63-.76,2.45" style="fill:#455a64"></path><path d="M150.17,259c-.13,0-.08-.62.13-1.3s.49-1.19.63-1.15.08.63-.13,1.3S150.31,259,150.17,259Z" style="fill:#a06763"></path><path d="M172.35,452.37l3.05,1.68,15.67,2.18,16.24,5.6a4.73,4.73,0,0,1-3.09,1.83,14.08,14.08,0,0,1-4.8-1.14s1.6,1.83.46,2.06-4.58-.57-4.58-.57l-10-1s-9.53.91-13,1-9.91.28-10.49-3.41S172.35,452.37,172.35,452.37Z" style="fill:#c8877f"></path><path d="M305.14,181.25s17.91,8.16,27.8,13.64,21.13,15.91,20.32,18.45-1.2,2.94-5.74,2.41-4.68-2.14-13.11-2.54-15,3.34-18.31.53-4.41-2.54-4.15-6.68-.53-4.82-.53-4.82l-12.17-6.68Z" style="fill:#c8877f"></path><path d="M32.6,145.81c4.91,1.19,18.4,8,18.4,8l12.13,14.87,13.16-12.3s-8-7.08-10.14-9.58-3-7.68-5-10.18-7.51-2.84-12.35,0-24.7,2.84-24.7,2.84-4.3,2.79-3.11,4.31S30.31,145.25,32.6,145.81Z" style="fill:#c8877f"></path><path d="M151,245.23a38.92,38.92,0,0,1,1.55-18.94C156,217,189.2,184.7,189.2,184.7s48.42-38.79,63.62-39.1l55.68,31.26S303.93,199.5,297.41,206l-49.55-13.86s-6.83,8.38-9.62,9S228,203.33,228,203.33s-6.2,18.3-9.93,23.27-10.24,16.25-13.34,18.83a22.84,22.84,0,0,0-5,6.18Z" style="fill:#455a64"></path><path d="M75.32,149.48c.93.93,53.22,40.3,53.22,40.3l37.64,11.8,12-2.55-24.74,43.81s-40.12-9.61-50.67-18.92-54.25-49.07-54.25-49.07Z" style="fill:#455a64"></path><path d="M178.19,196.16a7.68,7.68,0,0,1-1,1c-.67.65-1.63,1.57-2.79,2.75a115.47,115.47,0,0,0-8.53,9.65,66.06,66.06,0,0,0-7,10.77c-.38.74-.69,1.41-.94,2s-.49,1.11-.64,1.55a7.85,7.85,0,0,1-.54,1.33,6.89,6.89,0,0,1,.35-1.4,15.68,15.68,0,0,1,.56-1.59,20.55,20.55,0,0,1,.88-2.07,58.34,58.34,0,0,1,6.93-10.93,92.12,92.12,0,0,1,8.69-9.59c1.19-1.15,2.19-2,2.9-2.64A8,8,0,0,1,178.19,196.16Z" style="fill:#263238"></path><path d="M231.44,183a21,21,0,0,1-.78,2.9c-.51,1.79-1.15,4.27-1.67,7s-.8,5.33-1,7.18a22.86,22.86,0,0,1-.3,3,14.34,14.34,0,0,1-.06-3,51.16,51.16,0,0,1,.81-7.24,50.11,50.11,0,0,1,1.83-7.06A13.83,13.83,0,0,1,231.44,183Z" style="fill:#263238"></path><path d="M251.51,165.35a3.68,3.68,0,0,1,0,1.07c0,.68-.12,1.67-.25,2.89-.26,2.44-.74,5.79-1.32,9.48s-1.07,6.9-1.46,9.45c-.17,1.12-.3,2.07-.42,2.86a5,5,0,0,1-.2,1.05,3.68,3.68,0,0,1,0-1.07c0-.68.12-1.67.25-2.89.26-2.44.74-5.79,1.32-9.48s1.07-6.9,1.46-9.45c.17-1.12.31-2.07.42-2.86A5,5,0,0,1,251.51,165.35Z" style="fill:#263238"></path><path d="M128.45,189.86a28,28,0,0,1-2.79,1.75,74.54,74.54,0,0,0-6.53,4.53,75.43,75.43,0,0,0-6,5.23,30.66,30.66,0,0,1-2.38,2.28s.16-.28.52-.72.9-1.07,1.6-1.82a53.14,53.14,0,0,1,12.58-9.81c.9-.5,1.63-.88,2.15-1.12S128.44,189.82,128.45,189.86Z" style="fill:#263238"></path><path d="M129.23,189.86a75.83,75.83,0,0,0-3.63,6.78c-1.7,3.89-2.29,7.32-2.45,7.29a7.93,7.93,0,0,1,.29-2.26,28.26,28.26,0,0,1,4.34-10A7.76,7.76,0,0,1,129.23,189.86Z" style="fill:#263238"></path><g style="opacity:0.30000000000000004"><path d="M173.4,200.18a28.43,28.43,0,0,0-19.12,27.27,203.46,203.46,0,0,1,19.42-27.64"></path></g><g style="opacity:0.30000000000000004"><path d="M251.36,168.69c-1.38,8.14-2.41,15.81-3.59,23.38C251.58,185.5,253.61,175.93,251.36,168.69Z"></path></g></g></svg>