<svg xmlns="http://www.w3.org/2000/svg" viewBox="0 0 500 500"><g id="freepik--Floor--inject-53"><path id="freepik--floor--inject-53" d="M77.67,448.33c-95.18-54.95-95.18-144,0-199s249.49-55,344.66,0,95.18,144,0,199S172.84,503.28,77.67,448.33Z" style="fill:#f5f5f5"></path></g><g id="freepik--Window--inject-53"><g id="freepik--window--inject-53"><g id="freepik--window--inject-53"><g id="freepik--Frame--inject-53"><polygon points="134.16 34.98 137.19 36.67 137.19 158.62 134.16 156.93 134.16 34.98" style="fill:#fafafa"></polygon><polygon points="134.16 156.93 134.16 38.42 32.6 97.06 32.62 215.56 134.16 156.93" style="fill:#fff"></polygon><path d="M142.8,161.86V27L27,93.82v134.9ZM32.6,219V97.06L137.19,36.67v122Z" style="fill:#f0f0f0"></path><polygon points="137.19 158.62 134.16 156.93 32.62 215.56 32.6 219 137.19 158.62" style="fill:#e0e0e0"></polygon><polygon points="103.31 56.23 106.33 54.49 106.33 176.43 103.31 174.75 103.31 56.23" style="fill:#fafafa"></polygon><polygon points="54.94 84.16 57.96 82.42 57.96 204.36 54.93 202.68 54.94 84.16" style="fill:#fafafa"></polygon><polygon points="26.99 228.72 23.98 226.97 23.98 92.07 26.99 93.82 26.99 228.72" style="fill:#e0e0e0"></polygon><polygon points="23.98 92.07 26.99 93.82 142.8 26.96 139.79 25.2 23.98 92.07" style="fill:#fafafa"></polygon><polygon points="32.6 152.17 32.6 155.66 137.19 95.27 134.19 93.52 32.6 152.17" style="fill:#e0e0e0"></polygon></g><polygon points="32.61 162.13 32.6 155.66 137.19 95.27 137.19 101.75 32.61 162.13" style="fill:#f0f0f0"></polygon><polygon points="57.96 210.84 63.56 207.61 63.56 72.7 57.96 75.94 57.96 210.84" style="fill:#f0f0f0"></polygon><polygon points="106.32 182.92 111.92 179.69 111.92 44.78 106.32 48.02 106.32 182.92" style="fill:#f0f0f0"></polygon><polygon points="57.96 141.02 54.93 139.28 54.94 84.16 57.96 82.42 57.96 141.02" style="fill:#fafafa"></polygon><polygon points="106.3 113.11 103.28 111.37 103.28 56.25 106.3 54.51 106.3 113.11" style="fill:#fafafa"></polygon></g></g></g><g id="freepik--Pictures--inject-53"><g id="freepik--Picture--inject-53"><g id="freepik--frame--inject-53"><polygon points="162.25 83.86 163.97 84.88 199.33 64.47 197.6 63.44 162.25 83.86" style="fill:#fafafa"></polygon><polygon points="197.6 63.44 163.97 82.86 163.97 47.63 197.61 28.23 197.6 63.44" style="fill:#fff"></polygon><path d="M202.58,21.59,160.72,45.76V90.52l41.86-24.17Zm-3.25,42.88L164,84.88V47.64l35.36-20.42Z" style="fill:#f0f0f0"></path><polygon points="199.33 64.47 197.6 63.44 197.61 28.23 199.33 27.22 199.33 64.47" style="fill:#e0e0e0"></polygon><polygon points="202.58 21.59 200.83 20.59 158.97 44.76 160.72 45.76 202.58 21.59" style="fill:#fafafa"></polygon><polygon points="158.97 44.76 160.72 45.76 160.72 90.52 158.97 89.51 158.97 44.76" style="fill:#e0e0e0"></polygon></g><g id="freepik--Land--inject-53"><polygon points="196.29 62.39 165.28 80.29 165.28 71.34 173.04 53.44 177.87 57.91 176.13 65.42 186.84 42.52 196.29 53.44 196.29 62.39" style="fill:#f0f0f0"></polygon><path d="M177.57,44.79a5.08,5.08,0,0,0-2.29,4c0,1.46,1,2,2.29,1.32a5.06,5.06,0,0,0,2.3-4C179.87,44.66,178.84,44.06,177.57,44.79Z" style="fill:#f0f0f0"></path></g></g><g id="freepik--picture--inject-53"><g id="freepik--frame--inject-53"><polygon points="162.25 136.78 163.97 137.81 199.33 117.4 197.6 116.37 162.25 136.78" style="fill:#fafafa"></polygon><polygon points="197.6 116.37 163.97 135.78 163.97 100.56 197.61 81.16 197.6 116.37" style="fill:#fff"></polygon><path d="M202.58,74.52,160.72,98.69v44.75l41.86-24.17Zm-3.25,42.88L164,137.81V100.56l35.36-20.41Z" style="fill:#f0f0f0"></path><polygon points="199.33 117.4 197.6 116.37 197.61 81.16 199.33 80.15 199.33 117.4" style="fill:#e0e0e0"></polygon><polygon points="202.58 74.52 200.83 73.52 158.97 97.68 160.72 98.69 202.58 74.52" style="fill:#fafafa"></polygon><polygon points="158.97 97.68 160.72 98.69 160.72 143.44 158.97 142.44 158.97 97.68" style="fill:#e0e0e0"></polygon></g><g id="freepik--land--inject-53"><polygon points="196.29 115.32 165.28 133.22 165.28 124.27 173.04 106.36 177.87 110.84 176.13 118.34 186.84 95.45 196.29 106.36 196.29 115.32" style="fill:#f0f0f0"></polygon><path d="M177.57,97.72a5.08,5.08,0,0,0-2.29,4c0,1.47,1,2.06,2.29,1.33a5.06,5.06,0,0,0,2.3-4C179.87,97.58,178.84,97,177.57,97.72Z" style="fill:#f0f0f0"></path></g></g></g><g id="freepik--Shelf--inject-53"><g id="freepik--shelf--inject-53"><polygon points="308.47 109.26 334.35 94.32 400.63 132.62 400.63 135.46 374.76 150.4 308.47 112.1 308.47 109.26" style="fill:#ebebeb"></polygon><polygon points="374.76 147.56 308.47 109.26 334.35 94.32 400.63 132.62 374.76 147.56" style="fill:#fafafa"></polygon><polygon points="374.76 147.56 374.76 150.4 400.63 135.46 400.63 132.62 374.76 147.56" style="fill:#e6e6e6"></polygon><polygon points="330.75 71.16 315.57 79.93 315.57 108.81 330.75 100.04 330.75 71.16" style="fill:#e0e0e0"></polygon><path d="M316.06,80.41,330.75,72a6.15,6.15,0,0,0,3.36,1.84l-14.57,8.4A14.68,14.68,0,0,1,316.06,80.41Z" style="fill:#fff"></path><path d="M321,82.16a3.2,3.2,0,0,1-2.83,0l-2.47-1.42a.85.85,0,0,1,0-1.62l14.48-8.31.61.35-14.24,8.22c-.47.27-.47.7,0,1l2.3,1.31a2,2,0,0,0,1.7,0l14.23-8.21.7.4Z" style="fill:#fafafa"></path><path d="M335.44,73.84v28.89L321,111a3.2,3.2,0,0,1-2.83,0l-2.47-1.42a1,1,0,0,1-.58-.81V79.92a1,1,0,0,0,.58.81l2.47,1.43a3.2,3.2,0,0,0,2.83,0Z" style="fill:#e0e0e0"></path><path d="M319.54,82.49a2.94,2.94,0,0,1-1.41-.33l-2.47-1.43a1,1,0,0,1-.58-.81v28.89a1,1,0,0,0,.58.81l2.47,1.42a2.94,2.94,0,0,0,1.41.33Z" style="fill:#f0f0f0"></path><polygon points="336.96 74.72 321.78 83.49 321.78 112.37 336.96 103.6 336.96 74.72" style="fill:#ebebeb"></polygon><path d="M322.27,84,337,75.54a6.21,6.21,0,0,0,3.36,1.83l-14.57,8.4A14.68,14.68,0,0,1,322.27,84Z" style="fill:#fff"></path><path d="M327.17,85.72a3.14,3.14,0,0,1-2.83,0l-2.47-1.42a.85.85,0,0,1,0-1.62l14.48-8.31.61.35L322.72,83c-.47.26-.47.7,0,1l2.3,1.3a1.86,1.86,0,0,0,1.69,0L341,77l.7.4Z" style="fill:#fafafa"></path><path d="M341.64,77.41v28.88l-14.47,8.31a3.14,3.14,0,0,1-2.83,0l-2.47-1.42a1,1,0,0,1-.59-.81V83.49a1,1,0,0,0,.59.81l2.47,1.42a3.14,3.14,0,0,0,2.83,0Z" style="fill:#e0e0e0"></path><path d="M325.75,86.06a2.83,2.83,0,0,1-1.41-.34l-2.47-1.42a1,1,0,0,1-.59-.81v28.88a1,1,0,0,0,.59.81l2.47,1.42a2.94,2.94,0,0,0,1.41.34Z" style="fill:#f0f0f0"></path><polygon points="347.33 82.4 332.15 91.17 336.86 120.92 352.04 112.15 347.33 82.4" style="fill:#ebebeb"></polygon><path d="M332.75,91.58l14.7-8.44a8,8,0,0,0,3.91,1.52l-14.57,8.4A19.87,19.87,0,0,1,332.75,91.58Z" style="fill:#fff"></path><path d="M338.31,93a4,4,0,0,1-3.06.13l-2.89-1.18c-.91-.37-1-1-.24-1.48l14.49-8.32.72.3-14.24,8.22c-.47.27-.41.67.14.89l2.68,1.08a2.34,2.34,0,0,0,1.84-.08L352,84.3l.81.33Z" style="fill:#fafafa"></path><path d="M352.8,84.63l4.71,29.76L343,122.7a4,4,0,0,1-3.07.14l-2.88-1.18c-.46-.19-.71-.45-.76-.72l-4.71-29.75c0,.27.3.53.75.71l2.89,1.18a3.94,3.94,0,0,0,3.06-.13Z" style="fill:#e0e0e0"></path><path d="M336.83,93.32a3.7,3.7,0,0,1-1.58-.24l-2.89-1.18c-.45-.18-.71-.44-.75-.71l4.71,29.75c.05.27.3.53.76.72l2.88,1.18a4.07,4.07,0,0,0,1.58.24Z" style="fill:#f0f0f0"></path><polygon points="362.43 90.25 347.25 99.02 347.25 127.9 362.43 119.13 362.43 90.25" style="fill:#e0e0e0"></polygon><path d="M347.74,99.49l14.69-8.43a6.15,6.15,0,0,0,3.36,1.84l-14.57,8.4A14.57,14.57,0,0,1,347.74,99.49Z" style="fill:#fff"></path><path d="M352.64,101.25a3.2,3.2,0,0,1-2.83,0l-2.47-1.42a.85.85,0,0,1,0-1.62l14.48-8.32.61.35-14.24,8.23c-.47.27-.47.7,0,1l2.3,1.31a2,2,0,0,0,1.7,0l14.23-8.21.7.4Z" style="fill:#fafafa"></path><path d="M367.12,92.93v28.89l-14.48,8.31a3.2,3.2,0,0,1-2.83,0l-2.47-1.42a1,1,0,0,1-.58-.81V99a1,1,0,0,0,.58.81l2.47,1.43a3.2,3.2,0,0,0,2.83,0Z" style="fill:#e0e0e0"></path><path d="M351.22,101.58a2.94,2.94,0,0,1-1.41-.33l-2.47-1.43a1,1,0,0,1-.58-.81V127.9a1,1,0,0,0,.58.81l2.47,1.42a2.94,2.94,0,0,0,1.41.33Z" style="fill:#f0f0f0"></path><polygon points="368.64 93.81 353.46 102.58 353.46 131.46 368.64 122.69 368.64 93.81" style="fill:#ebebeb"></polygon><path d="M354,103.06l14.69-8.43A6.21,6.21,0,0,0,372,96.46l-14.57,8.4A14.68,14.68,0,0,1,354,103.06Z" style="fill:#fff"></path><path d="M358.85,104.81a3.14,3.14,0,0,1-2.83,0l-2.47-1.42a.85.85,0,0,1,0-1.62L368,93.46l.61.35L354.4,102a.52.52,0,0,0,0,1l2.3,1.3a1.86,1.86,0,0,0,1.69,0l14.24-8.21.7.4Z" style="fill:#fafafa"></path><path d="M373.32,96.5v28.88l-14.47,8.31a3.14,3.14,0,0,1-2.83,0l-2.47-1.42a1,1,0,0,1-.59-.81V102.58a1,1,0,0,0,.59.81l2.47,1.42a3.14,3.14,0,0,0,2.83,0Z" style="fill:#e0e0e0"></path><path d="M357.43,105.15a2.94,2.94,0,0,1-1.41-.34l-2.47-1.42a1,1,0,0,1-.59-.81v28.88a1,1,0,0,0,.59.81l2.47,1.42a2.94,2.94,0,0,0,1.41.34Z" style="fill:#f0f0f0"></path><polygon points="379.01 101.48 363.83 110.25 368.54 140.01 383.72 131.24 379.01 101.48" style="fill:#ebebeb"></polygon><path d="M364.43,110.67l14.7-8.44a8,8,0,0,0,3.91,1.52l-14.57,8.4A19.61,19.61,0,0,1,364.43,110.67Z" style="fill:#fff"></path><path d="M370,112a4,4,0,0,1-3.06.13L364,111c-.91-.37-1-1-.24-1.48l14.49-8.32.72.29-14.24,8.23c-.47.27-.41.67.14.89l2.68,1.08a2.34,2.34,0,0,0,1.84-.08l14.24-8.21.81.33Z" style="fill:#fafafa"></path><path d="M384.48,103.72l4.71,29.76-14.48,8.31a4,4,0,0,1-3.07.14l-2.89-1.18c-.45-.19-.7-.45-.75-.72l-4.71-29.75c0,.27.3.53.75.71l2.89,1.18A3.94,3.94,0,0,0,370,112Z" style="fill:#e0e0e0"></path><path d="M368.51,112.41a3.7,3.7,0,0,1-1.58-.24L364,111c-.45-.18-.71-.44-.75-.71L368,140c.05.27.3.53.75.72l2.89,1.18a3.89,3.89,0,0,0,1.58.23Z" style="fill:#f0f0f0"></path></g><g id="freepik--shelf--inject-53"><polygon points="298.65 52.59 322.99 38.53 400.63 83.34 400.63 86.01 376.29 100.07 298.65 55.26 298.65 52.59" style="fill:#ebebeb"></polygon><polygon points="376.29 97.4 298.65 52.59 322.99 38.53 400.63 83.34 376.29 97.4" style="fill:#fafafa"></polygon><polygon points="376.29 97.4 376.29 100.07 400.63 86.01 400.63 83.34 376.29 97.4" style="fill:#e6e6e6"></polygon><polygon points="321.69 14.16 305.91 23.27 305.91 53.3 321.69 44.19 321.69 14.16" style="fill:#e0e0e0"></polygon><path d="M306.42,23.77,321.69,15a6.49,6.49,0,0,0,3.49,1.91L310,25.64A14.76,14.76,0,0,1,306.42,23.77Z" style="fill:#fff"></path><path d="M311.51,25.59a3.24,3.24,0,0,1-2.94,0L306,24.12a.89.89,0,0,1,0-1.69l15.05-8.64.64.37-14.81,8.55a.53.53,0,0,0,0,1l2.4,1.35a2,2,0,0,0,1.76,0l14.8-8.53.72.41Z" style="fill:#fafafa"></path><path d="M326.56,17V47l-15.05,8.64a3.3,3.3,0,0,1-2.94,0L306,54.14a1,1,0,0,1-.61-.84v-30a1,1,0,0,0,.61.85l2.57,1.47a3.24,3.24,0,0,0,2.94,0Z" style="fill:#e0e0e0"></path><path d="M310,25.94a3,3,0,0,1-1.47-.35L306,24.12a1,1,0,0,1-.61-.85v30a1,1,0,0,0,.61.84l2.57,1.48A3.07,3.07,0,0,0,310,56Z" style="fill:#f0f0f0"></path><polygon points="328.15 17.86 312.36 26.98 312.36 57.01 328.15 47.89 328.15 17.86" style="fill:#ebebeb"></polygon><path d="M312.87,27.48l15.28-8.77a6.35,6.35,0,0,0,3.49,1.91l-15.15,8.73A15.3,15.3,0,0,1,312.87,27.48Z" style="fill:#fff"></path><path d="M318,29.3a3.28,3.28,0,0,1-2.93,0l-2.58-1.48a.88.88,0,0,1,0-1.68l15.06-8.64.64.36-14.81,8.55c-.49.28-.49.73,0,1l2.39,1.36a2,2,0,0,0,1.76,0l14.8-8.54.73.42Z" style="fill:#fafafa"></path><path d="M333,20.66v30L318,59.33a3.28,3.28,0,0,1-2.93,0l-2.58-1.48a1,1,0,0,1-.6-.84V27a1,1,0,0,0,.6.84L315,29.3a3.28,3.28,0,0,0,2.93,0Z" style="fill:#e0e0e0"></path><path d="M316.49,29.65A3,3,0,0,1,315,29.3l-2.58-1.48a1,1,0,0,1-.6-.84V57a1,1,0,0,0,.6.84L315,59.33a3,3,0,0,0,1.46.34Z" style="fill:#f0f0f0"></path><polygon points="338.93 25.84 323.14 34.96 328.04 65.9 343.83 56.78 338.93 25.84" style="fill:#ebebeb"></polygon><path d="M323.76,35.39l15.29-8.77a8.38,8.38,0,0,0,4.06,1.58L328,36.93A20.12,20.12,0,0,1,323.76,35.39Z" style="fill:#fff"></path><path d="M329.55,36.81a4.07,4.07,0,0,1-3.18.14l-3-1.22c-.94-.39-1.05-1.08-.24-1.55l15.06-8.64.74.3-14.8,8.55c-.49.28-.42.7.15.93l2.78,1.12a2.45,2.45,0,0,0,1.92-.08l14.8-8.54.84.35Z" style="fill:#fafafa"></path><path d="M344.61,28.17l4.9,30.93-15.06,8.65a4.15,4.15,0,0,1-3.18.14l-3-1.23c-.47-.19-.73-.46-.78-.74L322.58,35c.05.28.31.55.78.75l3,1.22a4.07,4.07,0,0,0,3.18-.14Z" style="fill:#e0e0e0"></path><path d="M328,37.2a3.8,3.8,0,0,1-1.64-.25l-3-1.22c-.47-.2-.73-.47-.78-.75l4.9,30.94c0,.28.31.55.78.74l3,1.23a4.13,4.13,0,0,0,1.64.25Z" style="fill:#f0f0f0"></path><g id="freepik--picture--inject-53"><g id="freepik--frame--inject-53"><polygon points="365.15 82.04 364.03 82.58 343.32 70.62 344.44 70.08 365.15 82.04" style="fill:#fafafa"></polygon><polygon points="344.44 70.08 364.14 81.45 367.01 51.99 347.31 40.62 344.44 70.08" style="fill:#fff"></polygon><path d="M341.22,71.6l24.52,14.16L369.12,51,344.6,36.85ZM346.3,40,367,52l-3,30.59-20.7-12Z" style="fill:#f0f0f0"></path><polygon points="343.32 70.62 344.44 70.08 347.31 40.62 346.3 40.03 343.32 70.62" style="fill:#e0e0e0"></polygon><polygon points="344.6 36.85 345.73 36.32 370.25 50.48 369.12 51 344.6 36.85" style="fill:#fafafa"></polygon><polygon points="370.25 50.48 369.12 51 365.74 85.76 366.87 85.23 370.25 50.48" style="fill:#e0e0e0"></polygon></g><g id="freepik--land--inject-53"><polygon points="345.31 69.52 363.47 80.01 363.95 75.04 360.58 60.46 357.36 65.44 358.02 69.63 352.65 54.16 345.79 64.56 345.31 69.52" style="fill:#f0f0f0"></polygon><path d="M360.86,54.32a2.58,2.58,0,0,1,1.2,2.24c-.08.82-.75,1.13-1.49.7a2.57,2.57,0,0,1-1.2-2.25C359.45,54.2,360.11,53.89,360.86,54.32Z" style="fill:#f0f0f0"></path></g></g><g id="freepik--Pot--inject-53"><path id="freepik--Shadow--inject-53" d="M375.35,80c-3.36,1.94-3.36,5.09,0,7a13.45,13.45,0,0,0,12.17,0c3.36-1.94,3.36-5.09,0-7A13.45,13.45,0,0,0,375.35,80Z" style="opacity:0.05"></path><path d="M386.91,84.89c2.93-3,4.64-10.45,1.79-12.81H374.18c-2.86,2.36-1.14,9.82,1.79,12.8l.08.09.1.09.26.24.07,0a1.84,1.84,0,0,0,.22.17,4,4,0,0,0,.38.24,9.64,9.64,0,0,0,8.72,0h0a4,4,0,0,0,.38-.24,1.56,1.56,0,0,0,.2-.16l.09-.06.26-.23a.57.57,0,0,1,.11-.11Z" style="fill:#f5f5f5"></path><path d="M375.44,70.94c-3.31,1.91-3.31,5,0,6.93a13.28,13.28,0,0,0,12,0c3.31-1.91,3.31-5,0-6.93A13.28,13.28,0,0,0,375.44,70.94Z" style="fill:#fff"></path><path d="M377.79,72.3c-2,1.16-2,3,0,4.21a8,8,0,0,0,7.3,0c2-1.16,2-3.05,0-4.21A8,8,0,0,0,377.79,72.3Z" style="fill:#ebebeb"></path><path d="M385.09,74.3a8,8,0,0,0-7.3,0,3.36,3.36,0,0,0-1.21,1.1,3.29,3.29,0,0,0,1.21,1.11,8,8,0,0,0,7.3,0,3.29,3.29,0,0,0,1.21-1.11A3.36,3.36,0,0,0,385.09,74.3Z" style="fill:#e0e0e0"></path><path d="M378.23,75.4a16.46,16.46,0,0,1-2.64-3.51c-1.22-2.15-1.44-5-.81-5.4S378,69,378,69a16.11,16.11,0,0,1-.27-3.68c.11-1.92.58-3.67,1.13-4s1.78,2.07,2.31,3.83.84,3.2.84,3.2a26.92,26.92,0,0,1,.95-4c.64-1.82,1.22-2.23,1.67-2s.75,1,.88,3.46a24.22,24.22,0,0,1-.11,3.47s.9-1,1.91-2,1.57-1.2,1.89-1,.4,1.85-1.31,4.94a17.2,17.2,0,0,1-3.22,4.24S382.27,76.93,378.23,75.4Z" style="fill:#ebebeb"></path></g></g></g><g id="freepik--Shadows--inject-53"><path id="freepik--shadow--inject-53" d="M328.61,259.3c-26.13,15.09-26.13,39.54,0,54.63s68.48,15.08,94.61,0,26.12-39.54,0-54.63S354.73,244.22,328.61,259.3Z" style="fill:#e6e6e6"></path><path id="freepik--shadow--inject-53" d="M460.25,347.07c8.43,4.87,8.43,12.77,0,17.64s-22.12,4.87-30.56,0-8.43-12.77,0-17.64S451.81,342.2,460.25,347.07Z" style="fill:#e6e6e6"></path><path id="freepik--shadow--inject-53" d="M91.58,427.44c-14.45-3.62-30.1-4.37-44.47,0-2.84.86-3.55,2.44-5.22,4.58a6.42,6.42,0,0,0,0,7.06,13.27,13.27,0,0,0,5.69,4.74c9.91,4.94,21.64,4,32.43,6.49,9.67,2.23,18.45,7.17,27.44,11.38a229.09,229.09,0,0,0,24.38,9.64c5.42,1.81,11.11,3.46,16.76,2.61a14.6,14.6,0,0,0,8.09-3.8,9.69,9.69,0,0,0,2.92-8.25c-.86-5.17-6.19-8.16-10.94-10.4l-19.78-9.33C116.74,436.43,104.55,430.69,91.58,427.44Z" style="fill:#e6e6e6"></path></g><g id="freepik--Plant--inject-53"><g id="freepik--hanging-flowerpot--inject-53"><path d="M423.15,151.05l-.12,0a.58.58,0,0,1-.46-.7L443.88,49.44a.6.6,0,0,1,.71-.46.59.59,0,0,1,.46.7L423.73,150.57A.6.6,0,0,1,423.15,151.05Z" style="fill:#ebebeb"></path><path d="M465.77,151.57a.61.61,0,0,1-.59-.48L443.88,49.68a.6.6,0,0,1,1.17-.24l21.3,101.41a.59.59,0,0,1-.46.7Z" style="fill:#ebebeb"></path><g id="freepik--pot--inject-53"><path d="M463.61,157.39H425L429,174h0c.31,2,1.78,4,4.44,5.49,6,3.46,15.73,3.46,21.73,0,2.86-1.65,4.34-3.79,4.47-5.95Z" style="fill:#FF9182"></path><path d="M463.61,157.39H425L429,174h0c.31,2,1.78,4,4.44,5.49,6,3.46,15.73,3.46,21.73,0,2.86-1.65,4.34-3.79,4.47-5.95Z" style="fill:#fff;opacity:0.6000000000000001"></path><path d="M463.61,157.39H425L429,174h0c.31,2,1.78,4,4.44,5.49,6,3.46,15.73,3.46,21.73,0,2.86-1.65,4.34-3.79,4.47-5.95Z" style="fill:#fff;opacity:0.6000000000000001"></path><path d="M458.91,168.78a15.93,15.93,0,0,0,2.31-1.61l2.17-8.88a15.35,15.35,0,0,1-3.9,3.1c-8.14,4.7-21.18,4.82-29.6.38l1-4-.3-.41H425L429,174h0c.31,2,1.78,4,4.44,5.49,4.27,2.47,10.44,3.17,15.8,2.12-9.61.72-16.21-3.49-17.2-7.36-.39-1.55-1.08-5-1.08-5C439,173.37,451.24,173.21,458.91,168.78Z" style="fill:#FF9182;opacity:0.2"></path><path d="M465.62,152.48a8.11,8.11,0,0,1-1.29,3,14.45,14.45,0,0,1-4.84,4.3c-8.37,4.83-22,4.83-30.33,0a14.35,14.35,0,0,1-4.84-4.3,7.92,7.92,0,0,1-1.28-3h0c-.75-3.64,1.3-7.43,6.13-10.21,8.37-4.84,22-4.84,30.33,0C464.32,145.05,466.37,148.84,465.62,152.48Z" style="fill:#FF9182"></path><path d="M465.62,152.48a8.11,8.11,0,0,1-1.29,3,14.45,14.45,0,0,1-4.84,4.3c-8.37,4.83-22,4.83-30.33,0a14.35,14.35,0,0,1-4.84-4.3,7.92,7.92,0,0,1-1.28-3h0c-.75-3.64,1.3-7.43,6.13-10.21,8.37-4.84,22-4.84,30.33,0C464.32,145.05,466.37,148.84,465.62,152.48Z" style="fill:#fff;opacity:0.8"></path><path d="M464.33,155.48a14.45,14.45,0,0,1-4.84,4.3c-8.37,4.83-22,4.83-30.33,0a14.35,14.35,0,0,1-4.84-4.3,7.92,7.92,0,0,1-1.28-3h0l1,6.54c.44,2.63,2.4,5.19,5.89,7.21,8,4.6,20.92,4.6,28.9,0,3.45-2,5.41-4.53,5.88-7.12l.05-.34.92-6.29A8.11,8.11,0,0,1,464.33,155.48Z" style="fill:#FF9182"></path><path d="M464.33,155.48a14.45,14.45,0,0,1-4.84,4.3c-8.37,4.83-22,4.83-30.33,0a14.35,14.35,0,0,1-4.84-4.3,7.92,7.92,0,0,1-1.28-3h0l1,6.54c.44,2.63,2.4,5.19,5.89,7.21,8,4.6,20.92,4.6,28.9,0,3.45-2,5.41-4.53,5.88-7.12l.05-.34.92-6.29A8.11,8.11,0,0,1,464.33,155.48Z" style="fill:#fff;opacity:0.6000000000000001"></path><path d="M457,143.72c-7-4-18.29-4-25.27,0-3.95,2.29-5.66,5.37-5.15,8.34.4,2.28,2.12,4.51,5.15,6.25,7,4,18.29,4,25.27,0,3-1.74,4.75-4,5.14-6.24C462.63,149.09,460.92,146,457,143.72Z" style="fill:#FF9182"></path><path d="M457,143.72c-7-4-18.29-4-25.27,0-3.95,2.29-5.66,5.37-5.15,8.34.4,2.28,2.12,4.51,5.15,6.25,7,4,18.29,4,25.27,0,3-1.74,4.75-4,5.14-6.24C462.63,149.09,460.92,146,457,143.72Z" style="fill:#fff;opacity:0.6000000000000001"></path><path d="M427.72,154.82a12,12,0,0,0,4,3.49c7,4,18.29,4,25.27,0a12,12,0,0,0,4-3.49c-.06-2.41-1.67-4.81-4.86-6.66-6.49-3.74-17-3.74-23.48,0C429.39,150,427.78,152.41,427.72,154.82Z" style="fill:#fafafa"></path></g><path d="M438.93,128.82c-.34-9.86-4.05-25.18-7.62-31.36a50.38,50.38,0,0,1,11.24,29.16Z" style="fill:#263238"></path><path d="M449.63,150.09c.33-6.85,5.37-9.08,11.05-6.85,4,1.59,9.86,7.58,11.7,17.14C470.58,155.44,457.49,138.83,449.63,150.09Z" style="fill:#455a64"></path><path d="M449.93,153.39c.33-2.55,2.63-5.9,6.63-5.08S470,156.51,474,168.6c-.73-8.12-3.36-15.11-8.79-19.64s-9.36-5.24-13.32-2.89C448.5,148.09,449.93,153.39,449.93,153.39Z" style="fill:#37474f"></path><path d="M442.74,156.71c-3.26-10.91-3.74-31.17-.61-42.12,4.44-15.49,13.65-22.27,20.52-23.91-6.51,2.71-13.37,12.63-15.31,22.35s-.82,43.68-.82,43.68Z" style="fill:#455a64"></path><path d="M445.42,146.07c.42-6.09,4-19.61,11-25.06s14.91-1.8,17.28,1.06c-4.27-3-9.39-2.85-13.09.21s-7.48,12.24-9.37,21Z" style="fill:#263238"></path><path d="M455,122.28c4.43-4.35,7.89-7.28,13.39-7s12.84,8,17.1,24.24c-4.4-10.34-10.09-19.43-19.21-20.4A14.67,14.67,0,0,0,455,122.28Z" style="fill:#37474f"></path><path d="M405.47,112.61c8.1-.52,16.56,1.76,24.37,8.39a33.63,33.63,0,0,1,12.07,21.53l-4.89-.79s-4-12.81-11.09-19.46C419.68,116.36,415,114,405.47,112.61Z" style="fill:#455a64"></path><path d="M443.11,139.47c.38-5.5-2.21-17.07-10.62-24.9S421.05,105,412.4,102.81a54.69,54.69,0,0,1,18,15c5.56,7.27,5.81,15.88,5.81,19.13C437.17,139.47,440.58,144.77,443.11,139.47Z" style="fill:#37474f"></path><path d="M442.74,142.17c-1.1-7,2.67-19.55,7.08-25.68,5.33-7.43,13.18-13,21.9-14.49-9.34,3.57-18.73,14-21.48,23.82a53,53,0,0,0-1.15,20Z" style="fill:#37474f"></path><path d="M445.72,156.71c-1.19-6.56.9-20.19,11.68-27.7s18.23-5.54,21.06-4.68c-8.35-.57-16.73,4.08-21.84,9.82-3.56,4-6.9,10.54-7.11,21.37Z" style="fill:#455a64"></path><path d="M445.87,157.25s2.82-.07,3.95-1.4c0-4.23,1.14-12.7,7.08-17.7s10.57-4.05,11.5-2.08c0-2.89-3.62-5.44-7.63-4.59C454.05,132.9,444.6,141.58,445.87,157.25Z" style="fill:#263238"></path><path d="M457.27,132.77c3.65-2,6.79-3.7,10.86-1.81.19-.1,2.51-.69,3.39.35,3.4,4,2.3,14-3.94,23.62,2.88-7.19,3-20.47-2.3-22.54A10.6,10.6,0,0,0,457.27,132.77Z" style="fill:#37474f"></path><path d="M468.13,131c1.65.76,5,6.52,2.84,14.54,2-6.06,1.3-11.89-2.11-14.72A3.9,3.9,0,0,0,468.13,131Z" style="fill:#263238"></path><path d="M438.68,155.29c-.32-2.55-2.62-5.9-6.63-5.08s-13.44,8.2-17.45,20.29c.73-8.12,3.69-14.92,8.55-20.05,4.36-4.6,10.08-6.81,14.62-4.38S438.68,155.29,438.68,155.29Z" style="fill:#263238"></path><path d="M437,140c-3.52-3.52-6-6.89-12.45-5.56s-10.91,8.38-12.67,17.88c1.1-3.67,4.44-12.07,11.05-13.5S432.8,137.9,437,140Z" style="fill:#455a64"></path><path d="M438.68,155.29c-.92-6.21-3.28-15.07-9.89-15.42s-13.86,3.8-16.89,12.46c1.55-7.89,8.26-15.4,15.27-15.41s13.9,1.51,15.57,19.79Z" style="fill:#37474f"></path><path d="M433.11,128.94a17.85,17.85,0,0,0-9.11-4.52c-2.25-.38-6.63-2.11-11.32,2.26s-9.63,14.56-7.88,21.69C405.55,140.8,415.71,119.57,433.11,128.94Z" style="fill:#37474f"></path><path d="M443.68,157.32c0-5.76-4.21-24-10.85-28.67-8.32-5.82-13.88-.87-13.88-.87a11.13,11.13,0,0,1,9.91,1.58c4.29,3.14,8.29,12.32,9.82,25.93A6,6,0,0,0,443.68,157.32Z" style="fill:#263238"></path><path d="M439.91,140.17c-.41,1.69,1.34,14.25,2.69,17.08a11.72,11.72,0,0,0,4-.06c1.27-2.2.05-16.41,2.48-16.68C447.2,139.63,440.78,137.27,439.91,140.17Z" style="fill:#37474f"></path><path d="M439.91,140.17c1.95-2,9.92,2,11.41,13.82,2-5.63,1.11-12.59-.88-14.35a3.57,3.57,0,0,0-4.09-.55S440.18,136.37,439.91,140.17Z" style="fill:#455a64"></path><path d="M446.35,139.09c2.44,1,5.23,4.41,5.2,10.18.19-3-.38-8.14-4.57-10.44A4.81,4.81,0,0,0,446.35,139.09Z" style="fill:#37474f"></path><path d="M444.47,170.6a.6.6,0,0,1-.6-.6V49.56a.6.6,0,0,1,1.19,0V170A.6.6,0,0,1,444.47,170.6Z" style="fill:#ebebeb"></path><path d="M444.47,50.16a5.33,5.33,0,1,1,5.32-5.32A5.33,5.33,0,0,1,444.47,50.16Zm0-9.45a4.13,4.13,0,1,0,4.12,4.13A4.13,4.13,0,0,0,444.47,40.71Z" style="fill:#ebebeb"></path><path d="M444.47,40.71a.6.6,0,0,1-.6-.6V24.35a.6.6,0,1,1,1.19,0V40.11A.6.6,0,0,1,444.47,40.71Z" style="fill:#ebebeb"></path><path d="M444.32,170.59a31.14,31.14,0,0,1-15-3.52c-3.57-2-5.81-4.73-6.3-7.63a.6.6,0,1,1,1.18-.2c.43,2.53,2.46,4.95,5.71,6.79,8,4.5,20.91,4.5,28.87,0,3.21-1.82,5.23-4.2,5.69-6.71a.6.6,0,0,1,1.18.22c-.52,2.86-2.75,5.53-6.28,7.53A31.15,31.15,0,0,1,444.32,170.59Z" style="fill:#ebebeb"></path></g></g><g id="freepik--Table--inject-53"><g id="freepik--table--inject-53"><g id="freepik--table--inject-53"><path d="M378.46,244.6a5.63,5.63,0,0,0-5.09,0,1.77,1.77,0,0,0-1.05,1.47l1.05,69.24h0a1.27,1.27,0,0,0,.74,1,4,4,0,0,0,3.59,0,1.27,1.27,0,0,0,.74-1h0l1.05-69.24A1.78,1.78,0,0,0,378.46,244.6Zm-39.25-3.7a5.63,5.63,0,0,0-5.09,0,1.49,1.49,0,0,0-.84,1.47l-7,54.9h0a1.57,1.57,0,0,0,.89,1,4,4,0,0,0,3.59,0,1.07,1.07,0,0,0,.6-1h0l9.14-54.91A2.15,2.15,0,0,0,339.21,240.9Zm78.47,1.47a1.5,1.5,0,0,0-.85-1.47,5.63,5.63,0,0,0-5.09,0,2.15,2.15,0,0,0-1.26,1.46l9.15,54.91h0a1.07,1.07,0,0,0,.6,1,4,4,0,0,0,3.59,0,1.54,1.54,0,0,0,.89-1h0Z" style="fill:#455a64"></path><path d="M440.37,234h-.06c0-9.53-6.23-19.05-18.82-26.32-25.17-14.53-66-14.53-91.15,0-12.59,7.27-18.83,16.79-18.82,26.32h-.06v5.11h0c.15,9.4,6.45,18.77,18.88,25.94,25.17,14.54,66,14.54,91.15,0,12.43-7.17,18.73-16.54,18.88-25.94h0Z" style="fill:#FF9182"></path><path d="M440.37,234h-.06c0-9.53-6.23-19.05-18.82-26.32-25.17-14.53-66-14.53-91.15,0-12.59,7.27-18.83,16.79-18.82,26.32h-.06v5.11h0c.15,9.4,6.45,18.77,18.88,25.94,25.17,14.54,66,14.54,91.15,0,12.43-7.17,18.73-16.54,18.88-25.94h0Z" style="fill:#fff;opacity:0.6000000000000001"></path><path d="M330.33,207.67c-25.17,14.54-25.17,38.1,0,52.63s66,14.54,91.15,0,25.18-38.09,0-52.63S355.51,193.14,330.33,207.67Z" style="fill:#FF9182"></path><path d="M330.33,207.67c-25.17,14.54-25.17,38.1,0,52.63s66,14.54,91.15,0,25.18-38.09,0-52.63S355.51,193.14,330.33,207.67Z" style="fill:#fff;opacity:0.8"></path></g></g><g id="freepik--Speaker--inject-53"><path d="M337.85,222.16c-6.17,3.56-6.17,9.33,0,12.9s16.17,3.56,22.34,0,6.17-9.34,0-12.9S344,218.6,337.85,222.16Z" style="fill:#FF9182;opacity:0.30000000000000004"></path><g id="freepik--speaker--inject-53"><path d="M336,221.55c0-2,1.29-3.89,3.86-5.37,5.15-3,13.5-3,18.66,0,2.56,1.48,3.85,3.42,3.86,5.37h0v5.8h0c0,2-1.29,3.89-3.86,5.38-5.16,3-13.51,3-18.66,0-2.57-1.49-3.86-3.43-3.86-5.38h0v-5.8Z" style="fill:#FF9182"></path><path d="M336,221.55c0-2,1.29-3.89,3.86-5.37,5.15-3,13.5-3,18.66,0,2.56,1.48,3.85,3.42,3.86,5.37h0v5.8h0c0,2-1.29,3.89-3.86,5.38-5.16,3-13.51,3-18.66,0-2.57-1.49-3.86-3.43-3.86-5.38h0v-5.8Z" style="fill:#FF9182"></path><path d="M336,221.55c0-2,1.29-3.89,3.86-5.37,5.15-3,13.5-3,18.66,0,2.56,1.48,3.85,3.42,3.86,5.37h0v5.8h0c0,2-1.29,3.89-3.86,5.38-5.16,3-13.51,3-18.66,0-2.57-1.49-3.86-3.43-3.86-5.38h0v-5.8Z" style="fill:#fff;opacity:0.2"></path><path d="M358.47,227c-5.16,3-13.51,3-18.66,0s-5.15-7.8,0-10.77,13.5-3,18.66,0S363.62,224,358.47,227Z" style="fill:#FF9182"></path><path d="M358.47,227c-5.16,3-13.51,3-18.66,0s-5.15-7.8,0-10.77,13.5-3,18.66,0S363.62,224,358.47,227Z" style="opacity:0.15"></path><path d="M339.61,232.61l.2.12c5.15,3,13.5,3,18.65,0a8.45,8.45,0,0,0,3.23-3v-5.78a8.53,8.53,0,0,1-3.23,3l-.45.24v0a7.14,7.14,0,0,1-5.26,6.18A21.17,21.17,0,0,1,339.61,232.61Z" style="fill:#FF9182;opacity:0.4"></path><path d="M360,225.87a7.2,7.2,0,0,0,1.68-2v5.78a7.24,7.24,0,0,1-1.68,2Z" style="opacity:0.1"></path><path d="M338.07,215.75c0-1.23,1-2.52,2.8-3.55a18.51,18.51,0,0,1,16.54,0c1.78,1,2.8,2.32,2.8,3.55v5.81h0c0,1.23-1,2.52-2.8,3.55a18.51,18.51,0,0,1-16.54,0c-1.78-1-2.8-2.32-2.8-3.55v-5.81Z" style="fill:#263238"></path><path d="M338.07,215.75v5.81c0,1.23,1,2.52,2.8,3.55a18.51,18.51,0,0,0,16.54,0c1.78-1,2.8-2.32,2.8-3.55v-5.81c0,1.22-1,2.52-2.8,3.55a18.6,18.6,0,0,1-16.54,0C339.09,218.27,338.07,217,338.07,215.75Zm21.86,6.49c.06-.11.11-.23.16-.34a2.38,2.38,0,0,1-.16.58Zm0-.65c.06-.11.11-.22.16-.33a2.66,2.66,0,0,1-.16.58Zm0-.64.16-.34a2.51,2.51,0,0,1-.16.58Zm0-.65a3.54,3.54,0,0,0,.16-.34,2.59,2.59,0,0,1-.16.59Zm0-.64.16-.34a2.51,2.51,0,0,1-.16.58Zm0-.65c.06-.11.11-.23.16-.34a2.51,2.51,0,0,1-.16.58Zm0-.65c.06-.11.11-.22.16-.33a2.66,2.66,0,0,1-.16.58Zm0-.64c.06-.11.11-.23.16-.34a2.51,2.51,0,0,1-.16.58Zm0-.65a3.54,3.54,0,0,0,.16-.34,2.59,2.59,0,0,1-.16.59Zm-1.06,6.46a5.35,5.35,0,0,0,.88-1v.31a5.05,5.05,0,0,1-.88,1.1Zm0-.65a5.31,5.31,0,0,0,.88-1v.31a4.79,4.79,0,0,1-.88,1.09Zm0-.64a5.35,5.35,0,0,0,.88-1v.31a4.79,4.79,0,0,1-.88,1.09Zm0-.65a5.35,5.35,0,0,0,.88-1v.31a4.83,4.83,0,0,1-.88,1.1Zm0-.64a5.68,5.68,0,0,0,.88-1v.31a4.79,4.79,0,0,1-.88,1.09Zm0-.65a5.35,5.35,0,0,0,.88-1v.31a5.05,5.05,0,0,1-.88,1.1Zm0-.65a5.31,5.31,0,0,0,.88-1V219a4.79,4.79,0,0,1-.88,1.09Zm0-.64a5.35,5.35,0,0,0,.88-1v.31a4.79,4.79,0,0,1-.88,1.09Zm0-.65a5.35,5.35,0,0,0,.88-1v.31a4.83,4.83,0,0,1-.88,1.1Zm-1.58,6.27.16-.09a8.7,8.7,0,0,0,1.24-.86v.42a8.19,8.19,0,0,1-1.33.93l-.07,0Zm0-.65.16-.08a8.7,8.7,0,0,0,1.24-.86v.41a8.89,8.89,0,0,1-1.33.94l-.07,0Zm0-.64.16-.09a8.7,8.7,0,0,0,1.24-.86v.41a8.22,8.22,0,0,1-1.33.94l-.07,0Zm0-.65.16-.09a8,8,0,0,0,1.24-.86v.42a8.89,8.89,0,0,1-1.33.94l-.07,0Zm0-.65.16-.08a8.7,8.7,0,0,0,1.24-.86v.41a8.22,8.22,0,0,1-1.33.94l-.07,0Zm0-.64.16-.09a8.7,8.7,0,0,0,1.24-.86v.42a8.86,8.86,0,0,1-1.33.93l-.07,0Zm0-.65.16-.08a8.7,8.7,0,0,0,1.24-.86v.41a8.89,8.89,0,0,1-1.33.94l-.07,0Zm0-.64.16-.09a8.7,8.7,0,0,0,1.24-.86v.41a8.22,8.22,0,0,1-1.33.94l-.07,0Zm0-.65.16-.09a8.67,8.67,0,0,0,1.24-.85v.41a8.89,8.89,0,0,1-1.33.94l-.07,0Zm-1.37,5.81a11.87,11.87,0,0,0,1.19-.54v.44a11.91,11.91,0,0,1-1.19.56Zm0-.64a11.89,11.89,0,0,0,1.19-.55v.44a10,10,0,0,1-1.19.56Zm0-.65a10,10,0,0,0,1.19-.55v.45a11.91,11.91,0,0,1-1.19.56Zm0-.64a11.89,11.89,0,0,0,1.19-.55v.44a11.91,11.91,0,0,1-1.19.56Zm0-.65a11.89,11.89,0,0,0,1.19-.55v.45a11.91,11.91,0,0,1-1.19.56Zm0-.64c.42-.17.82-.36,1.19-.55v.44a11.91,11.91,0,0,1-1.19.56Zm0-.65a11.89,11.89,0,0,0,1.19-.55v.44a10,10,0,0,1-1.19.56Zm0-.65a10,10,0,0,0,1.19-.55v.45a11.91,11.91,0,0,1-1.19.56Zm0-.64a11.89,11.89,0,0,0,1.19-.55V220a11.91,11.91,0,0,1-1.19.56Zm-1.52,5.68c.47-.13.92-.28,1.35-.44v.45c-.43.17-.88.32-1.35.46Zm0-.64c.47-.14.92-.28,1.35-.45v.46c-.43.16-.88.32-1.35.45Zm0-.65a13.35,13.35,0,0,0,1.35-.45v.46a13.35,13.35,0,0,1-1.35.45Zm0-.65c.47-.13.92-.28,1.35-.44v.45c-.43.17-.88.32-1.35.46Zm0-.64a13.35,13.35,0,0,0,1.35-.45v.46a13.35,13.35,0,0,1-1.35.45Zm0-.65c.47-.13.92-.28,1.35-.44v.45c-.43.17-.88.32-1.35.46Zm0-.64c.47-.14.92-.28,1.35-.45v.46c-.43.16-.88.32-1.35.45Zm0-.65a13.35,13.35,0,0,0,1.35-.45v.46a13.35,13.35,0,0,1-1.35.45Zm0-.65c.47-.13.92-.28,1.35-.44v.45c-.43.17-.88.32-1.35.46Zm-1.65,5.55q.76-.13,1.47-.33v.47q-.71.19-1.47.33Zm0-.64q.76-.14,1.47-.33v.46q-.71.19-1.47.33Zm0-.65q.76-.13,1.47-.33V225c-.47.13-1,.25-1.47.34Zm0-.64q.76-.15,1.47-.33v.46q-.71.19-1.47.33Zm0-.65q.76-.14,1.47-.33v.46c-.47.13-1,.24-1.47.34Zm0-.65q.76-.13,1.47-.33v.47q-.71.19-1.47.33Zm0-.64q.76-.13,1.47-.33v.46q-.71.19-1.47.33Zm0-.65q.76-.14,1.47-.33v.46c-.47.13-1,.25-1.47.34Zm0-.64q.76-.15,1.47-.33v.46q-.71.2-1.47.33Zm-1.73,5.4c.53,0,1.05-.11,1.56-.2v.46q-.76.14-1.56.21Zm0-.64q.8-.08,1.56-.21V226c-.51.09-1,.16-1.56.2Zm0-.65c.53-.05,1.05-.12,1.56-.2v.46q-.76.13-1.56.21Zm0-.65c.53,0,1.05-.11,1.56-.2v.47c-.51.08-1,.15-1.56.2Zm0-.64q.8-.08,1.56-.21v.47q-.76.14-1.56.21Zm0-.65c.53-.05,1.05-.11,1.56-.2v.46q-.76.13-1.56.21Zm0-.64q.8-.07,1.56-.21v.47c-.51.09-1,.16-1.56.2Zm0-.65c.53,0,1.05-.12,1.56-.2v.46q-.76.14-1.56.21Zm0-.65c.53,0,1.05-.11,1.56-.2v.47c-.51.09-1,.15-1.56.2Zm-1.79,5.26c.54,0,1.08,0,1.61-.07v.47c-.53,0-1.07.07-1.61.07Zm0-.65c.54,0,1.08,0,1.61-.07v.47c-.53.05-1.07.07-1.61.07Zm0-.64c.54,0,1.08,0,1.61-.07v.47c-.53,0-1.07.06-1.61.07Zm0-.65c.54,0,1.08,0,1.61-.07V225c-.53,0-1.07.07-1.61.07Zm0-.65c.54,0,1.08,0,1.61-.07v.47c-.53.05-1.07.07-1.61.07Zm0-.64c.54,0,1.08,0,1.61-.07v.47c-.53,0-1.07.07-1.61.07Zm0-.65c.54,0,1.08,0,1.61-.07V223c-.53,0-1.07.07-1.61.07Zm0-.64c.54,0,1.08,0,1.61-.07v.47c-.53,0-1.07.06-1.61.07Zm0-.65c.54,0,1.08,0,1.61-.07v.47c-.53,0-1.07.07-1.61.07Zm-1.8,5.1c.54,0,1.08.07,1.62.07V227c-.54,0-1.08,0-1.62-.07Zm0-.65c.54.05,1.08.07,1.62.07v.47c-.54,0-1.08,0-1.62-.07Zm0-.64c.54,0,1.08.06,1.62.07v.47c-.54,0-1.08,0-1.62-.07Zm0-.65c.54,0,1.08.07,1.62.07V225c-.54,0-1.08,0-1.62-.07Zm0-.65c.54,0,1.08.07,1.62.07v.47c-.54,0-1.08,0-1.62-.07Zm0-.64c.54,0,1.08.07,1.62.07v.47c-.54,0-1.08,0-1.62-.07Zm0-.65c.54,0,1.08.07,1.62.07v.47c-.54,0-1.08,0-1.62-.07Zm0-.64c.54,0,1.08.06,1.62.07v.47c-.54,0-1.08,0-1.62-.07Zm0-.65c.54.05,1.08.07,1.62.07v.47c-.54,0-1.08,0-1.62-.07Zm-1.73,5c.51.09,1,.15,1.56.2v.47q-.79-.07-1.56-.21Zm0-.65q.76.13,1.56.21v.46c-.53,0-1.05-.11-1.56-.2Zm0-.64c.51.08,1,.15,1.56.2v.47q-.79-.08-1.56-.21Zm0-.65c.51.09,1,.16,1.56.2v.47c-.53-.05-1.05-.12-1.56-.2Zm0-.65q.76.13,1.56.21v.47q-.79-.08-1.56-.21Zm0-.64c.51.09,1,.15,1.56.2v.47q-.79-.08-1.56-.21Zm0-.65q.76.13,1.56.21V223c-.53,0-1.05-.11-1.56-.2Zm0-.64c.51.08,1,.15,1.56.2v.47q-.79-.08-1.56-.21Zm0-.65c.51.09,1,.16,1.56.2v.47c-.53-.05-1.05-.11-1.56-.2Zm-1.65,4.8q.72.19,1.47.33v.47q-.75-.13-1.47-.33Zm0-.64q.72.2,1.47.33V226q-.75-.13-1.47-.33Zm0-.65q.72.19,1.47.33v.47c-.5-.09-1-.21-1.47-.34Zm0-.64q.72.18,1.47.33v.46q-.75-.13-1.47-.33Zm0-.65q.72.19,1.47.33v.47c-.5-.1-1-.21-1.47-.34Zm0-.65q.72.19,1.47.33v.47q-.75-.14-1.47-.33Zm0-.64q.72.19,1.47.33v.46q-.75-.13-1.47-.33Zm0-.65q.72.19,1.47.33v.47c-.5-.09-1-.21-1.47-.34Zm0-.64q.72.18,1.47.33v.46q-.75-.14-1.47-.33Zm-1.52,4.67c.43.16.88.31,1.35.44v.47c-.47-.14-.92-.29-1.35-.46Zm0-.65c.43.17.88.31,1.35.45v.46c-.47-.13-.92-.29-1.35-.45Zm0-.65a13.35,13.35,0,0,0,1.35.45V225a13.35,13.35,0,0,1-1.35-.45Zm0-.64c.43.16.88.31,1.35.44v.47c-.47-.14-.92-.29-1.35-.46Zm0-.65a13.35,13.35,0,0,0,1.35.45v.46a13.35,13.35,0,0,1-1.35-.45Zm0-.64c.43.16.88.31,1.35.44V223c-.47-.14-.92-.29-1.35-.46Zm0-.65c.43.17.88.31,1.35.45v.46c-.47-.13-.92-.29-1.35-.45Zm0-.65a13.35,13.35,0,0,0,1.35.45v.46a13.35,13.35,0,0,1-1.35-.45Zm0-.64c.43.16.88.31,1.35.44v.47c-.47-.14-.92-.29-1.35-.46Zm-1.37,4.55a13,13,0,0,0,1.19.54v.46a13.06,13.06,0,0,1-1.19-.56Zm0-.65a13,13,0,0,0,1.19.55v.45a10.84,10.84,0,0,1-1.19-.56Zm0-.65a10.8,10.8,0,0,0,1.19.55v.46a13.06,13.06,0,0,1-1.19-.56Zm0-.64a13,13,0,0,0,1.19.55v.45a13.06,13.06,0,0,1-1.19-.56Zm0-.65a13,13,0,0,0,1.19.55v.46a13.06,13.06,0,0,1-1.19-.56Zm0-.64a13,13,0,0,0,1.19.54v.46a13.06,13.06,0,0,1-1.19-.56Zm0-.65a13,13,0,0,0,1.19.55v.45a10.84,10.84,0,0,1-1.19-.56Zm0-.65a10.8,10.8,0,0,0,1.19.55v.46a13.06,13.06,0,0,1-1.19-.56Zm0-.64a13,13,0,0,0,1.19.55v.45a13.06,13.06,0,0,1-1.19-.56Zm-1.57,4.12a8.7,8.7,0,0,0,1.24.86l.16.09v.44l-.08,0a8.75,8.75,0,0,1-1.32-.93Zm0-.64a8.7,8.7,0,0,0,1.24.86l.16.08v.45l-.08,0a8.77,8.77,0,0,1-1.32-.94Zm0-.65a8.7,8.7,0,0,0,1.24.86l.16.09v.44l-.08,0a8.11,8.11,0,0,1-1.32-.94Zm0-.65a8,8,0,0,0,1.24.86l.16.09v.45l-.08,0a8.77,8.77,0,0,1-1.32-.94Zm0-.64a8.7,8.7,0,0,0,1.24.86.8.8,0,0,0,.16.08v.45l-.08,0a8.11,8.11,0,0,1-1.32-.94Zm0-.65a8.7,8.7,0,0,0,1.24.86l.16.09v.44l-.08,0a8.75,8.75,0,0,1-1.32-.93Zm0-.64a8.7,8.7,0,0,0,1.24.86l.16.08v.45l-.08,0a8.77,8.77,0,0,1-1.32-.94Zm0-.65a8.7,8.7,0,0,0,1.24.86l.16.09v.44l-.08,0a8.11,8.11,0,0,1-1.32-.94Zm0-.64a8.67,8.67,0,0,0,1.24.85l.16.09v.45l-.08,0a8.77,8.77,0,0,1-1.32-.94Zm-1.07,4a5.42,5.42,0,0,0,.89,1v.41a4.83,4.83,0,0,1-.89-1.1Zm0-.64a5.38,5.38,0,0,0,.89,1v.41a4.59,4.59,0,0,1-.89-1.09Zm0-.65a5.42,5.42,0,0,0,.89,1v.4a4.59,4.59,0,0,1-.89-1.09Zm0-.65a5.42,5.42,0,0,0,.89,1V222a4.63,4.63,0,0,1-.89-1.1Zm0-.64a5.77,5.77,0,0,0,.89,1v.4a4.59,4.59,0,0,1-.89-1.09Zm0-.65a5.42,5.42,0,0,0,.89,1v.41a4.83,4.83,0,0,1-.89-1.1Zm0-.64a5.38,5.38,0,0,0,.89,1v.41a4.59,4.59,0,0,1-.89-1.09Zm0-.65a5.42,5.42,0,0,0,.89,1v.4a4.59,4.59,0,0,1-.89-1.09Zm-.17-.69a3.28,3.28,0,0,1-.17-.59,3.59,3.59,0,0,0,.17.34Zm0,.64a3.18,3.18,0,0,1-.17-.58c.05.11.11.23.17.34Zm0,.65a3.43,3.43,0,0,1-.17-.58c.05.11.11.22.17.33Zm0,.64a3.18,3.18,0,0,1-.17-.58c.05.11.11.23.17.34Zm0,.65a3.43,3.43,0,0,1-.17-.58c.05.11.11.22.17.33Zm0,.64a3,3,0,0,1-.17-.58,3.59,3.59,0,0,0,.17.34Zm0,.65a3.18,3.18,0,0,1-.17-.58l.17.34Zm0,.65a3.43,3.43,0,0,1-.17-.58c.05.11.11.22.17.33Zm0,.64a3.18,3.18,0,0,1-.17-.58l.17.34Zm1.06-4.12v.41a4.63,4.63,0,0,1-.89-1.1v-.31A5.42,5.42,0,0,0,339.41,218.36Z" style="fill:#455a64"></path><path d="M336,200.42c0-2.75,2.95-6.08,6.59-7.45a21.53,21.53,0,0,1,13.19,0c3.65,1.37,6.6,4.7,6.6,7.45v15.33c0,1.95-1.29,3.9-3.86,5.38-5.16,3-13.51,3-18.66,0-2.57-1.48-3.86-3.43-3.86-5.38h0V205.4h0Z" style="fill:#FF9182"></path><path d="M336,200.42c0-2.75,2.95-6.08,6.59-7.45a21.53,21.53,0,0,1,13.19,0c3.65,1.37,6.6,4.7,6.6,7.45v15.33c0,1.95-1.29,3.9-3.86,5.38-5.16,3-13.51,3-18.66,0-2.57-1.48-3.86-3.43-3.86-5.38h0V205.4h0Z" style="fill:#fff;opacity:0.2"></path><path d="M358,206.14c-4.9,3.16-12.84,3.16-17.74,0s-4.91-8.28,0-11.44,12.85-3.16,17.75,0S362.91,203,358,206.14Z" style="fill:#fff;opacity:0.35000000000000003"></path><path d="M357.44,205.25c-4.59,2.95-12,2.95-16.6,0s-4.58-7.75,0-10.7,12-3,16.6,0S362,202.29,357.44,205.25Z" style="fill:#fff;opacity:0.4"></path><path d="M340.81,221.65l1.88-.28A18.29,18.29,0,0,0,358,206.14h0c2.46-1.58,3.68-3.66,3.68-5.73v17.68a8.42,8.42,0,0,1-3.22,3C353.63,223.92,346,224.1,340.81,221.65Z" style="fill:#FF9182;opacity:0.4"></path><path d="M360,204.46a6.06,6.06,0,0,0,1.68-4.05v17.68a7.24,7.24,0,0,1-1.68,2Z" style="opacity:0.1"></path><path d="M346.28,200.1v-.53h.14a1.93,1.93,0,0,1,.75-.72,4.81,4.81,0,0,1,4.31,0,1.93,1.93,0,0,1,.75.72h.14v.53h0a1.51,1.51,0,0,1-.89,1.24,4.81,4.81,0,0,1-4.31,0A1.51,1.51,0,0,1,346.28,200.1Z" style="fill:#37474f"></path><path d="M351.48,200.82a1.31,1.31,0,0,0,0-2.49,4.81,4.81,0,0,0-4.31,0,1.31,1.31,0,0,0,0,2.49A4.81,4.81,0,0,0,351.48,200.82Z" style="fill:#455a64"></path><path d="M349.34,200.53a2.24,2.24,0,0,0,1.1-.27c.46-.26.62-.68.4-1a.15.15,0,1,0-.26.15c.13.22,0,.46-.29.64a2,2,0,0,1-1.89,0c-.23-.13-.35-.29-.35-.45a.57.57,0,0,1,.35-.46,2,2,0,0,1,1.34-.19.15.15,0,0,0,.17-.12.15.15,0,0,0-.12-.18,2.33,2.33,0,0,0-1.54.23.76.76,0,0,0,0,1.43A2.18,2.18,0,0,0,349.34,200.53Z" style="fill:#FF9182"></path><path d="M349.63,199.53l.08,0,1.15-.67a.15.15,0,0,0,.06-.2.15.15,0,0,0-.21-.06l-1.15.67a.15.15,0,0,0-.06.2A.16.16,0,0,0,349.63,199.53Z" style="fill:#FF9182"></path><path d="M344.41,198v-.5h0a.56.56,0,0,1,.23-.23,1.53,1.53,0,0,1,1.35,0,.56.56,0,0,1,.23.23h0v.5h0a.48.48,0,0,1-.27.39,1.53,1.53,0,0,1-1.35,0A.49.49,0,0,1,344.41,198Z" style="fill:#37474f"></path><path d="M346,197.86c.37-.22.37-.57,0-.78a1.46,1.46,0,0,0-1.35,0c-.37.21-.37.56,0,.78A1.53,1.53,0,0,0,346,197.86Z" style="fill:#455a64"></path><path d="M352,202.33v-.51h0a.65.65,0,0,1,.24-.22,1.44,1.44,0,0,1,1.34,0,.52.52,0,0,1,.24.22h0v.51h0a.47.47,0,0,1-.28.39,1.5,1.5,0,0,1-1.34,0A.47.47,0,0,1,352,202.33Z" style="fill:#37474f"></path><path d="M353.58,202.21c.38-.21.38-.56,0-.77a1.44,1.44,0,0,0-1.34,0,.41.41,0,0,0,0,.77A1.44,1.44,0,0,0,353.58,202.21Z" style="fill:#455a64"></path><path d="M341.08,213.54l-2.19-1.26a.27.27,0,0,1-.1-.22v-1.25a1.51,1.51,0,0,1,.35-1.1.65.65,0,0,1,.84-.05,3.13,3.13,0,0,1,1.2,2.53v1.25C341.18,213.53,341.14,213.57,341.08,213.54Z" style="fill:#37474f"></path><path d="M338.9,212.65l2.17,1.25a.32.32,0,0,1,.11.24c-.06.9-.57,1.34-1.2,1a3.13,3.13,0,0,1-1.19-2.36C338.79,212.66,338.84,212.61,338.9,212.65Z" style="fill:#37474f"></path><path d="M339.81,215.76a3.83,3.83,0,0,1-1.68-3.47.17.17,0,0,1,.17-.17.18.18,0,0,1,.17.17,3.51,3.51,0,0,0,1.51,3.18.81.81,0,0,0,.8.07,1.66,1.66,0,0,0,.64-1.4.18.18,0,0,1,.18-.16.18.18,0,0,1,.16.18,2,2,0,0,1-.82,1.68,1.06,1.06,0,0,1-.48.12,1.24,1.24,0,0,1-.31-.05V217l.47.27a.18.18,0,0,1,.07.23.19.19,0,0,1-.15.08.11.11,0,0,1-.08,0l-1.11-.64a.18.18,0,0,1-.07-.23.17.17,0,0,1,.23-.06l.31.17v-1Z" style="fill:#37474f"></path></g></g><g id="freepik--Device--inject-53"><path id="freepik--shadow--inject-53" d="M367.45,243.87l35.65-20.58a2.39,2.39,0,0,1,2.15,0l19.59,11.31a.9.9,0,0,1,0,1.69l-35.39,20.43a2.06,2.06,0,0,1-1.9,0l-20.1-11.6A.66.66,0,0,1,367.45,243.87Z" style="fill:#FF9182;opacity:0.30000000000000004"></path><g id="freepik--Mobile--inject-53"><path d="M402.68,221.74l-33.56,19.38a1.7,1.7,0,0,0-1,1.77,2.09,2.09,0,0,0,1,1.78l18.07,10.43a2.86,2.86,0,0,0,2.55,0l33.56-19.38a1.79,1.79,0,0,0,.87-1.66,2.14,2.14,0,0,0-.87-1.89l-18.06-10.43A2.4,2.4,0,0,0,402.68,221.74Z" style="fill:#37474f"></path><path d="M403.62,222.53l18.57,10.72-33.73,19.47v2.68a2.63,2.63,0,0,0,1.28-.3l33.56-19.38a1.79,1.79,0,0,0,.87-1.66,2.14,2.14,0,0,0-.87-1.89l-18.06-10.43a2.4,2.4,0,0,0-1.62-.34v1.13Z" style="fill:#263238"></path><path d="M369.45,242.44l18.12,10.46a2,2,0,0,0,1.79,0l33.25-19.2a.84.84,0,0,0,0-1.59L405,221.93a2.27,2.27,0,0,0-2,0l-33.5,19.34A.62.62,0,0,0,369.45,242.44Z" style="fill:#455a64"></path><path d="M411.87,240.45a1.08,1.08,0,0,0-.5.84.31.31,0,0,0,.14.29l.35.21a.37.37,0,0,0,.36,0l3.09-1.79a1.06,1.06,0,0,0,.5-.83.32.32,0,0,0-.13-.29l-.36-.21a.37.37,0,0,0-.36,0Z" style="fill:#455a64"></path><path d="M412.22,240.66l3.09-1.79c.28-.16.5,0,.5.26a1.06,1.06,0,0,1-.5.83l-3.09,1.79c-.28.16-.5,0-.5-.26A1.06,1.06,0,0,1,412.22,240.66Z" style="fill:#37474f"></path><path d="M417.27,237.33a1.08,1.08,0,0,0-.5.84.31.31,0,0,0,.14.29l.35.21a.37.37,0,0,0,.36,0l3.09-1.79a1.06,1.06,0,0,0,.5-.83.32.32,0,0,0-.12-.29l-.37-.21a.37.37,0,0,0-.36,0Z" style="fill:#455a64"></path><path d="M417.62,237.54l3.09-1.79c.28-.16.5,0,.5.26a1.06,1.06,0,0,1-.5.83l-3.09,1.79c-.27.16-.5,0-.5-.26A1.09,1.09,0,0,1,417.62,237.54Z" style="fill:#37474f"></path><path d="M402.12,223.21l-30.93,17.86a.59.59,0,0,0,0,1.12l16.39,9.46a2.12,2.12,0,0,0,1.93,0l31.19-18c.43-.25.52-.62.24-.92l-.06-.07a.81.81,0,0,0-.18-.12l-4.61-2.67-.3-.17a.64.64,0,0,0-.6,0,.68.68,0,0,1-.62,0l-5.38-3.1c-.17-.11-.18-.27,0-.36s.17-.24,0-.33l0,0-4.51-2.6-.09-.06A2.71,2.71,0,0,0,402.12,223.21Z"></path><path d="M415.19,230.38a.64.64,0,0,1,.6,0l.3.17,4.61,2.66a1.4,1.4,0,0,1,.18.13l.06.07a0,0,0,0,1,0,0,.8.8,0,0,1-.26.21l-31.19,18a2.12,2.12,0,0,1-1.93,0l-16.39-9.46a1,1,0,0,1-.27-.22,1,1,0,0,1,.27-.21l30.93-17.86a2.71,2.71,0,0,1,2.45,0l.09.06,4.39,2.53v.58a.26.26,0,0,0,.14.2l5.38,3.1A.71.71,0,0,0,415.19,230.38Z" style="fill:#263238"></path><path d="M414.76,228.62l-2.46-1.42a.59.59,0,0,0-.52,0c-.14.08-.13.21,0,.3l2.46,1.42a.56.56,0,0,0,.52,0C414.92,228.84,414.91,228.71,414.76,228.62Z" style="fill:#263238"></path><path d="M411.14,226.41a.7.7,0,0,0-.6,0c-.17.1-.17.25,0,.35a.7.7,0,0,0,.6,0A.19.19,0,0,0,411.14,226.41Z" style="fill:#263238"></path></g><g style="opacity:0.15"><polygon points="387.24 231.8 391.86 229.13 395.95 247.93 391.32 250.6 387.24 231.8" style="fill:#fff"></polygon><path d="M400.15,245.5l-4.08-18.8,6.05-3.49a2.71,2.71,0,0,1,2.45,0l.09.06,2.72,1.56,3.19,14.66Z" style="fill:#fff"></path></g></g><g id="freepik--musical-note--inject-53"><path id="freepik--musical-note--inject-53" d="M319.83,160.82l-4.31,5.54a1.83,1.83,0,1,0-.09,2.12l3.87-5,6,2.57h0L321.5,171a1.56,1.56,0,0,0-.42-.47,1.84,1.84,0,1,0,.33,2.58h0l6.38-8.23Z" style="fill:#FF9182"></path><path id="freepik--musical-note--inject-53" d="M319.83,160.82l-4.31,5.54a1.83,1.83,0,1,0-.09,2.12l3.87-5,6,2.57h0L321.5,171a1.56,1.56,0,0,0-.42-.47,1.84,1.84,0,1,0,.33,2.58h0l6.38-8.23Z" style="fill:#fff;opacity:0.5"></path></g><path id="freepik--musical-note--inject-53" d="M337.54,177.33a3.47,3.47,0,0,1,1-1,7.23,7.23,0,0,1,1.82-.81,13.79,13.79,0,0,0,2.48-.95,3.36,3.36,0,0,0,1.67-2,3.39,3.39,0,0,1-1.42.61c-1.23.22-2.66-.35-3.9-.39-1.85-.05-3.15.81-4.54,2.19.83,1.4,1.63,2.82,2.44,4.23l1.92,3.31.83,1.53a3.31,3.31,0,0,0-1.4.42,2.74,2.74,0,1,0,3.74,1Z" style="fill:#FF9182"></path><g id="freepik--musical-note--inject-53"><path id="freepik--musical-note--inject-53" d="M336.1,145a3.47,3.47,0,0,1,1.48-.06,7.41,7.41,0,0,1,1.88.62,14.07,14.07,0,0,0,2.47,1,3.32,3.32,0,0,0,2.57-.33,3.59,3.59,0,0,1-1.46-.51c-1.05-.67-1.72-2-2.62-2.91-1.33-1.29-2.86-1.53-4.83-1.45-.32,1.6-.69,3.18-1,4.77-.27,1.25-.54,2.5-.82,3.74,0,.12-.41,1.69-.41,1.69a3.34,3.34,0,0,0-1.32-.63,2.74,2.74,0,1,0,2.1,3.26Z" style="fill:#FF9182"></path><path id="freepik--musical-note--inject-53" d="M336.1,145a3.47,3.47,0,0,1,1.48-.06,7.41,7.41,0,0,1,1.88.62,14.07,14.07,0,0,0,2.47,1,3.32,3.32,0,0,0,2.57-.33,3.59,3.59,0,0,1-1.46-.51c-1.05-.67-1.72-2-2.62-2.91-1.33-1.29-2.86-1.53-4.83-1.45-.32,1.6-.69,3.18-1,4.77-.27,1.25-.54,2.5-.82,3.74,0,.12-.41,1.69-.41,1.69a3.34,3.34,0,0,0-1.32-.63,2.74,2.74,0,1,0,2.1,3.26Z" style="fill:#fff;opacity:0.7000000000000001"></path></g></g><g id="freepik--Bottle--inject-53"><g id="freepik--Water--inject-53"><path d="M460.18,329.23a36.29,36.29,0,0,0-2.53-6.53c-.11-.23-.22-.47-.35-.71a13.39,13.39,0,0,1,.19-12.6l.22-.41a14.23,14.23,0,0,0,2-7.42,8.74,8.74,0,0,0-4.23-7,15.62,15.62,0,0,0-2-1,3.34,3.34,0,0,1-2.13-3.11v-3.84l-12.29-.05,0,3.84a3.36,3.36,0,0,1-2.15,3.1,13.87,13.87,0,0,0-2,.94,8.75,8.75,0,0,0-4.29,7,14.21,14.21,0,0,0,1.9,7.44l.2.37a13.41,13.41,0,0,1,.11,12.64c-.13.23-.24.47-.35.71a35.2,35.2,0,0,0-2.58,6.5,30.72,30.72,0,0,0-.6,6.62l-.07,17.9c0,2.32,1.51,4.65,4.57,6.43a21.52,21.52,0,0,0,8.89,2.59,27.43,27.43,0,0,0,4.44,0,21.6,21.6,0,0,0,8.85-2.53c3.07-1.75,4.61-4.07,4.62-6.38l.05-12.95c0-1.61.07-3.29.08-5A30.5,30.5,0,0,0,460.18,329.23Z" style="fill:#FF9182"></path><path d="M460.18,329.23a36.29,36.29,0,0,0-2.53-6.53c-.11-.23-.22-.47-.35-.71a13.39,13.39,0,0,1,.19-12.6l.22-.41a14.23,14.23,0,0,0,2-7.42,8.74,8.74,0,0,0-4.23-7,15.62,15.62,0,0,0-2-1,3.34,3.34,0,0,1-2.13-3.11v-3.84l-12.29-.05,0,3.84a3.36,3.36,0,0,1-2.15,3.1,13.87,13.87,0,0,0-2,.94,8.75,8.75,0,0,0-4.29,7,14.21,14.21,0,0,0,1.9,7.44l.2.37a13.41,13.41,0,0,1,.11,12.64c-.13.23-.24.47-.35.71a35.2,35.2,0,0,0-2.58,6.5,30.72,30.72,0,0,0-.6,6.62l-.07,17.9c0,2.32,1.51,4.65,4.57,6.43a21.52,21.52,0,0,0,8.89,2.59,27.43,27.43,0,0,0,4.44,0,21.6,21.6,0,0,0,8.85-2.53c3.07-1.75,4.61-4.07,4.62-6.38l.05-12.95c0-1.61.07-3.29.08-5A30.5,30.5,0,0,0,460.18,329.23Z" style="opacity:0.35000000000000003"></path><path d="M457.49,309.39l.22-.41a14.14,14.14,0,0,0,1.91-6.27,11.67,11.67,0,0,1-1.16,2.54,24.35,24.35,0,0,1-5.55,5.78c-2.1,1.72-4.45,3.68-4.71,6.38s1.6,5,3.7,6.59,4.56,2.7,6.45,4.53a15.89,15.89,0,0,1,2.15,2.68c-.08-.67-.18-1.33-.32-2a36.29,36.29,0,0,0-2.53-6.53c-.11-.23-.22-.47-.35-.71A13.39,13.39,0,0,1,457.49,309.39Z" style="opacity:0.15"></path><path d="M437,290.88V293c0,1.23.8,2.47,2.43,3.43a13.09,13.09,0,0,0,11.82,0,5.52,5.52,0,0,0,1.84-1.59,3.07,3.07,0,0,0,.61-1.8v-2.1a2.09,2.09,0,0,0-.06-.56,4.47,4.47,0,0,0-2.37-2.87l-.12-.06a13.07,13.07,0,0,0-11.69,0,4.51,4.51,0,0,0-2.4,2.84A2.24,2.24,0,0,0,437,290.88Z" style="fill:#FF9182"></path><path d="M437,290.88V293c0,1.23.8,2.47,2.43,3.43a13.09,13.09,0,0,0,11.82,0,5.52,5.52,0,0,0,1.84-1.59,3.07,3.07,0,0,0,.61-1.8v-2.1a2.09,2.09,0,0,0-.06-.56,4.47,4.47,0,0,0-2.37-2.87l-.12-.06a13.07,13.07,0,0,0-11.69,0,4.51,4.51,0,0,0-2.4,2.84A2.24,2.24,0,0,0,437,290.88Z" style="opacity:0.1"></path><path d="M451.21,294.33c3.27-1.87,3.29-4.93,0-6.82a13,13,0,0,0-11.81-.05c-3.27,1.87-3.28,4.92,0,6.82A13,13,0,0,0,451.21,294.33Z" style="opacity:0.2"></path><path d="M437,288.47v1.24a3,3,0,0,0,.06.59,4.51,4.51,0,0,0,2.38,2.85,11.59,11.59,0,0,0,5.21,1.41,12.36,12.36,0,0,0,6.6-1.37,5.73,5.73,0,0,0,1.84-1.58,3.1,3.1,0,0,0,.55-1.24,2.22,2.22,0,0,0,.07-.57v-1.28c0-1.25-.8-2.48-2.43-3.43l-.44-.23a13.13,13.13,0,0,0-11.37.19C437.8,286,437,287.23,437,288.47Z" style="fill:#FF9182"></path><path d="M437,288.47v1.24a3,3,0,0,0,.06.59,4.51,4.51,0,0,0,2.38,2.85,11.59,11.59,0,0,0,5.21,1.41,12.36,12.36,0,0,0,6.6-1.37,5.73,5.73,0,0,0,1.84-1.58,3.1,3.1,0,0,0,.55-1.24,2.22,2.22,0,0,0,.07-.57v-1.28c0-1.25-.8-2.48-2.43-3.43l-.44-.23a13.13,13.13,0,0,0-11.37.19C437.8,286,437,287.23,437,288.47Z" style="opacity:0.1"></path><path d="M437,288.43c0,2.65,3.72,4.81,8.33,4.83s8.36-2.12,8.37-4.77-3.72-4.82-8.33-4.83S437,285.77,437,288.43Z" style="fill:#FF9182"></path><path d="M442.45,283.5v4.32a.75.75,0,0,0,0,.21,1.55,1.55,0,0,0,.82,1,4.08,4.08,0,0,0,1.81.48,4.22,4.22,0,0,0,2.29-.47,1.92,1.92,0,0,0,.63-.55,1.09,1.09,0,0,0,.19-.43.63.63,0,0,0,0-.19v-4.34a1.43,1.43,0,0,0-.84-1.19l-.15-.08a4.54,4.54,0,0,0-3.94.06A1.46,1.46,0,0,0,442.45,283.5Z" style="fill:#FF9182"></path><path d="M442.45,283.5v4.32a.75.75,0,0,0,0,.21,1.55,1.55,0,0,0,.82,1,4.08,4.08,0,0,0,1.81.48,4.22,4.22,0,0,0,2.29-.47,1.92,1.92,0,0,0,.63-.55,1.09,1.09,0,0,0,.19-.43.63.63,0,0,0,0-.19v-4.34a1.43,1.43,0,0,0-.84-1.19l-.15-.08a4.54,4.54,0,0,0-3.94.06A1.46,1.46,0,0,0,442.45,283.5Z" style="opacity:0.2"></path><path d="M442.45,283.49c0,.91,1.29,1.66,2.89,1.67s2.9-.73,2.9-1.65-1.29-1.67-2.89-1.68S442.46,282.57,442.45,283.49Z" style="fill:#FF9182"></path><path d="M444.32,283.49c0,.33.46.6,1,.6s1-.26,1-.59-.46-.59-1-.59S444.32,283.17,444.32,283.49Z" style="fill:#FF9182;opacity:0.5"></path><path d="M444.32,283.49c0,.33.46.6,1,.6s1-.26,1-.59-.46-.59-1-.59S444.32,283.17,444.32,283.49Z" style="opacity:0.30000000000000004"></path></g></g><g id="freepik--Mat--inject-53"><g id="freepik--mat--inject-53"><polygon points="40.8 329.85 40.8 327.74 187.04 243.31 459.19 400.44 459.19 402.56 312.96 486.98 40.8 329.85" style="fill:#FF9182"></polygon><polygon points="312.96 484.87 459.19 400.44 187.04 243.31 40.8 327.74 312.96 484.87" style="fill:#FF9182"></polygon><polygon points="312.96 484.87 459.19 400.44 187.04 243.31 40.8 327.74 312.96 484.87" style="fill:#fff;opacity:0.4"></polygon></g></g><g id="freepik--Blocks--inject-53"><g id="freepik--Block--inject-53"><path d="M122.17,221.05,146.27,235a4.78,4.78,0,0,1,2.17,3.75V290a4.78,4.78,0,0,1-2.17,3.75L132.05,302a4.79,4.79,0,0,1-4.33,0L103.62,288a4.76,4.76,0,0,1-2.17-3.75V233a4.78,4.78,0,0,1,2.17-3.75l14.22-8.21A4.79,4.79,0,0,1,122.17,221.05Z" style="fill:#37474f"></path><path d="M103.62,231.76l24.1,13.92a4.78,4.78,0,0,1,2.17,3.75v51.28c0,1.38-1,1.94-2.17,1.25L103.62,288a4.76,4.76,0,0,1-2.17-3.75V233C101.45,231.63,102.42,231.07,103.62,231.76Z" style="fill:#263238"></path><path d="M146.27,237.46l-14.22,8.22a4.79,4.79,0,0,1-4.33,0l-24.1-13.92a1.32,1.32,0,0,1,0-2.5l14.22-8.21a4.79,4.79,0,0,1,4.33,0L146.27,235A1.32,1.32,0,0,1,146.27,237.46Z" style="fill:#455a64"></path></g><g id="freepik--block--inject-53"><path d="M49.05,319.6l24.11,13.91a4.79,4.79,0,0,0,4.33,0l44.41-25.64a4.78,4.78,0,0,0,2.17-3.75V287.7A4.78,4.78,0,0,0,121.9,284L97.8,270a4.79,4.79,0,0,0-4.33,0L49.05,295.67a4.8,4.8,0,0,0-2.16,3.75v16.43A4.8,4.8,0,0,0,49.05,319.6Z" style="fill:#37474f"></path><path d="M49.05,298.17l24.11,13.92a4.79,4.79,0,0,0,4.33,0l44.41-25.64a1.32,1.32,0,0,0,0-2.5L97.8,270a4.79,4.79,0,0,0-4.33,0L49.05,295.67A1.32,1.32,0,0,0,49.05,298.17Z" style="fill:#455a64"></path><path d="M75.32,332.26V315.84a4.8,4.8,0,0,0-2.16-3.75L49.05,298.17c-1.19-.69-2.16-.13-2.16,1.25v16.43a4.8,4.8,0,0,0,2.16,3.75l24.11,13.91C74.35,334.2,75.32,333.64,75.32,332.26Z" style="fill:#263238"></path></g></g><g id="freepik--Cat--inject-53"><g id="freepik--cat--inject-53"><path d="M37.79,415.44a8.73,8.73,0,0,0,6.62-3c4.53-5,5.09-15.71,1.47-28-2.72-9.23-2.55-16.67.47-20.42,1.52-1.87,3.76-2.72,6.66-2.5,4.7.35,5.87,2.6,7.49,5.72.71,1.37,1.26,3,.31,3.86,1.47,1.57,6,3.26,9.14,3.35a3.22,3.22,0,0,0,.19-6.44c-1.83-.05-2.38-.76-3.92-3.74-1.77-3.41-4.45-8.56-12.73-9.17A13.75,13.75,0,0,0,41.34,360c-4.44,5.49-5,14.83-1.64,26.28,3.33,11.3,2.31,19.24-.06,21.85a2.45,2.45,0,0,1-2.54.79,3.22,3.22,0,0,0-1.22,6.33A10.54,10.54,0,0,0,37.79,415.44Z" style="fill:#FF9182"></path><path d="M37.79,415.44a8.73,8.73,0,0,0,6.62-3c4.53-5,5.09-15.71,1.47-28-2.72-9.23-2.55-16.67.47-20.42,1.52-1.87,3.76-2.72,6.66-2.5,4.7.35,5.87,2.6,7.49,5.72.71,1.37,1.26,3,.31,3.86,1.47,1.57,6,3.26,9.14,3.35a3.22,3.22,0,0,0,.19-6.44c-1.83-.05-2.38-.76-3.92-3.74-1.77-3.41-4.45-8.56-12.73-9.17A13.75,13.75,0,0,0,41.34,360c-4.44,5.49-5,14.83-1.64,26.28,3.33,11.3,2.31,19.24-.06,21.85a2.45,2.45,0,0,1-2.54.79,3.22,3.22,0,0,0-1.22,6.33A10.54,10.54,0,0,0,37.79,415.44Z" style="opacity:0.4"></path><path d="M154.9,454.56c-1.83-2.66-7.79-7.37-13.21-10.77s-8.14-6.29-9.64-11l-16.53-2.28c1.81,4.79,2.38,6.93,6.2,12.35s16.17,8.84,18.78,9.71a13.23,13.23,0,0,1,6.06,4.16c1.33,1.69,2.14,3.74,3.84,4.65a2.17,2.17,0,0,0,2.55-.61c2.32,1.06,2.78-1,2.78-1C156.87,458.86,156.6,457,154.9,454.56Z" style="fill:#FF9182"></path><path d="M154.9,454.56c-1.83-2.66-7.79-7.37-13.21-10.77s-8.14-6.29-9.64-11l-16.53-2.28c1.81,4.79,2.38,6.93,6.2,12.35s16.17,8.84,18.78,9.71a13.23,13.23,0,0,1,6.06,4.16c1.33,1.69,2.14,3.74,3.84,4.65a2.17,2.17,0,0,0,2.55-.61c2.32,1.06,2.78-1,2.78-1C156.87,458.86,156.6,457,154.9,454.56Z" style="opacity:0.4"></path><path d="M133.5,403.84a21,21,0,0,1,6.91-4.59c3.6-1.2,5-1.3,5.92-.95,1.73.67-2.84,7.44-2.84,12.8Z" style="fill:#FF9182"></path><g style="opacity:0.4"><path d="M133.5,403.84a21,21,0,0,1,6.91-4.59c3.6-1.2,5-1.3,5.92-.95,1.73.67-2.84,7.44-2.84,12.8Z"></path></g><path d="M143.49,400.18c2-1.34,3-1.66,3.22-1.28.18,1.89-3.22,7.56-3.22,12.2L139,407.81C138.79,405.31,141.45,401.54,143.49,400.18Z" style="fill:#ffa8a7"></path><path d="M145.37,419.22c.17-2.37.95-5.11-3.37-10s-9.6-6.89-17.2-6.43c-3.08.18-7.59,2.44-10.24,5.55a11.2,11.2,0,0,0-1.27,1.83C104.18,409.72,99,396.87,95.56,390a149.25,149.25,0,0,0-7.16-13.19c-4.22-6.85-11.54-9.46-19-8.64-10,1.11-18.05,9.48-18.05,19.52a50.76,50.76,0,0,0,.54,6.48c.77,6,3.85,22.22,1.59,24-3.19,2.51,1.81,17.26,3.85,22.38a3.48,3.48,0,0,0,1.19,1.65,4.9,4.9,0,0,0,5.34.67c2.59-1.41,1.84-3.21-1.23-4.71-.14-2.82-1.83-10.64-.26-12.62a50.55,50.55,0,0,0,5.44-9.27s.8,4.14,6,9.51c9.25,9.53,22.12,12.33,26,16.9,0,0,0,0,0,0,1.73,3.22,3.66,5.6,6.7,9.91,3.81,5.41,17.61,8,20.22,8.84a13.15,13.15,0,0,1,6.06,4.16c1.33,1.69,2.14,3.74,3.84,4.65a2.17,2.17,0,0,0,2.55-.61c2.32,1.06,2.78-1,2.78-1,1.14-.9.87-2.72-.83-5.2-1.82-2.66-7.79-7.37-13.21-10.77-4.77-3-7.45-5.6-9-9.4,4.84-3.2,6.2-7.62,8.86-8.91l.49.18a18.46,18.46,0,0,0,11.38.67c2.47-.76,6.26-4.7,6.5-7.27S145.19,421.59,145.37,419.22Z" style="fill:#FF9182"></path><path d="M145.37,419.22c.17-2.37.95-5.11-3.37-10s-9.6-6.89-17.2-6.43c-3.08.18-7.59,2.44-10.24,5.55a11.2,11.2,0,0,0-1.27,1.83C104.18,409.72,99,396.87,95.56,390a149.25,149.25,0,0,0-7.16-13.19c-4.22-6.85-11.54-9.46-19-8.64-10,1.11-18.05,9.48-18.05,19.52a50.76,50.76,0,0,0,.54,6.48c.77,6,3.85,22.22,1.59,24-3.19,2.51,1.81,17.26,3.85,22.38a3.48,3.48,0,0,0,1.19,1.65,4.9,4.9,0,0,0,5.34.67c2.59-1.41,1.84-3.21-1.23-4.71-.14-2.82-1.83-10.64-.26-12.62a50.55,50.55,0,0,0,5.44-9.27s.8,4.14,6,9.51c9.25,9.53,22.12,12.33,26,16.9,0,0,0,0,0,0,1.73,3.22,3.66,5.6,6.7,9.91,3.81,5.41,17.61,8,20.22,8.84a13.15,13.15,0,0,1,6.06,4.16c1.33,1.69,2.14,3.74,3.84,4.65a2.17,2.17,0,0,0,2.55-.61c2.32,1.06,2.78-1,2.78-1,1.14-.9.87-2.72-.83-5.2-1.82-2.66-7.79-7.37-13.21-10.77-4.77-3-7.45-5.6-9-9.4,4.84-3.2,6.2-7.62,8.86-8.91l.49.18a18.46,18.46,0,0,0,11.38.67c2.47-.76,6.26-4.7,6.5-7.27S145.19,421.59,145.37,419.22Z" style="opacity:0.2"></path><path d="M69.11,419.47a13,13,0,0,1-1.3-3.23c1.92-2.31,2.15-16.4,2.15-16.4S73,409.62,69.11,419.47Z" style="opacity:0.1"></path><path d="M92.49,437.9h0s1.19.6,1.74-1.11-1.74-6.3-1.74-6.3,5.05,8.8,7.3,12.16C98.37,441,95.72,439.52,92.49,437.9Z" style="opacity:0.1"></path><path d="M111.73,401.28c.86-1,4.67-1.94,14.32,3.63l-.46,4.86s-5.12-.36-7.91.79a8.07,8.07,0,0,0-3.65,3.06,4.24,4.24,0,0,0-.3.5S109.63,403.31,111.73,401.28Z" style="fill:#FF9182"></path><path d="M111.73,401.28c.86-1,4.67-1.94,14.32,3.63l-.46,4.86s-5.12-.36-7.91.79a8.07,8.07,0,0,0-3.65,3.06,4.24,4.24,0,0,0-.3.5S109.63,403.31,111.73,401.28Z" style="opacity:0.4"></path><path d="M112.89,401c4,.41,12.7,8.8,12.7,8.8s-5.12-.36-7.91.79a8.07,8.07,0,0,0-3.65,3.06l0,0C113.18,411.31,109.77,401.32,112.89,401Z" style="fill:#ffa8a7"></path><path d="M131.43,421.88c0-.1-.64-2.43-2.46-2.66a2.76,2.76,0,0,0-2.68,1.33,2.83,2.83,0,0,0,2,2.26A3,3,0,0,0,131.43,421.88Z" style="fill:#263238"></path><path d="M141.05,421a2.48,2.48,0,0,1,1.17-2.59,1.56,1.56,0,0,1,.94-.2,1.72,1.72,0,0,1,1.28,2.53,1.83,1.83,0,0,1-.69.66A2.2,2.2,0,0,1,141.05,421Z" style="fill:#263238"></path><path d="M125.43,427.18h.1a13,13,0,0,1,8.64,0,.34.34,0,0,0,.43-.17.33.33,0,0,0-.17-.43,13.52,13.52,0,0,0-9.11,0,.32.32,0,0,0,.11.63Z" style="fill:#263238"></path><path d="M126,431.28a.36.36,0,0,0,.25-.11c3-3.33,8.22-2.69,8.28-2.69a.33.33,0,0,0,.36-.28.31.31,0,0,0-.28-.36c-.23,0-5.64-.69-8.85,2.9a.33.33,0,0,0,0,.46A.37.37,0,0,0,126,431.28Z" style="fill:#263238"></path><path d="M144.42,426.46a.55.55,0,0,0,.25-.07h0a10.21,10.21,0,0,1,7.51-2,.32.32,0,0,0,.36-.29.33.33,0,0,0-.29-.36,10.94,10.94,0,0,0-7.87,2.07.24.24,0,0,0-.11.06h0l0,0h0c-.07.07-.11.11-.11.13a.33.33,0,0,0,.12.38A.29.29,0,0,0,144.42,426.46Z" style="fill:#263238"></path><path d="M151.94,427.65a.32.32,0,0,0,.29-.18.33.33,0,0,0-.14-.44,8.73,8.73,0,0,0-7.58-.06.33.33,0,0,0-.14.44.32.32,0,0,0,.44.14,8.22,8.22,0,0,1,7,.06A.28.28,0,0,0,151.94,427.65Z" style="fill:#263238"></path><path d="M136.28,432a4.4,4.4,0,0,0,2.42-.7,2.6,2.6,0,0,0,1.08-1.13,6.68,6.68,0,0,0-.43-3.45.26.26,0,1,0-.47.21,6.39,6.39,0,0,1,.39,3.16A3.91,3.91,0,0,1,135,431.3a.26.26,0,0,0-.32.18.27.27,0,0,0,.19.32A5.51,5.51,0,0,0,136.28,432Z" style="fill:#263238"></path><path d="M139.58,425.76c1.66,0,1.94.68,1.7,1.47a2.25,2.25,0,0,1-1.68,1.37c-.6,0-2.17-.36-2.39-1.21C137,426.76,137.61,425.73,139.58,425.76Z" style="fill:#ffa8a7"></path><path d="M141.16,431.24a3.7,3.7,0,0,0,.63-.06.26.26,0,1,0-.1-.52,1.66,1.66,0,0,1-1.93-.65.26.26,0,0,0-.47.23A2,2,0,0,0,141.16,431.24Z" style="fill:#263238"></path><path d="M78,408.41c0,.1.1,0,.11,0,.92-5.45,4.18-10.63,9.33-13a21.91,21.91,0,0,1,7.13-2.07,17.1,17.1,0,0,1,2.58,0c-.51-1-1-2-1.41-2.93a17.87,17.87,0,0,0-2.54.17,16.6,16.6,0,0,0-7.83,3.26A18.81,18.81,0,0,0,78,408.41Z" style="opacity:0.30000000000000004"></path><path d="M74.32,391.13a12.6,12.6,0,0,1,4.61-4.42,24.9,24.9,0,0,1,6.78-2.24,20,20,0,0,1,6.88-.34c-.57-1.09-1.12-2.09-1.65-3a20.85,20.85,0,0,0-6.17.77c-4.36,1.19-9,4.85-10.49,9.24C74.27,391.15,74.3,391.16,74.32,391.13Z" style="opacity:0.30000000000000004"></path><path d="M102.77,403.17c-.62-.85-1.21-1.74-1.77-2.66l-.77.14a10.73,10.73,0,0,0-5.09,2.46A11.28,11.28,0,0,0,92,408.06a10.35,10.35,0,0,0-.54,5.5c0,.12.14,0,.15-.06a12,12,0,0,1,1.47-4.71,12.26,12.26,0,0,1,3.48-3.62,11.62,11.62,0,0,1,4.76-1.87A11.82,11.82,0,0,1,102.77,403.17Z" style="opacity:0.30000000000000004"></path></g></g><g id="freepik--Character--inject-53"><g id="freepik--character--inject-53"><ellipse id="freepik--shadow--inject-53" cx="268.05" cy="406.45" rx="49.51" ry="28.59" style="fill:#FF9182;opacity:0.5"></ellipse><g id="freepik--Bottom--inject-53"><g id="freepik--Leg--inject-53"><path d="M211.26,202.73l77.26,6.54a169.89,169.89,0,0,0-.19,19.28c1.44,16.81.51,29.94-2.17,53.85-2.24,20-4,25.35-7.24,37.15-2.36,8.65-7.52,42.51-9.62,58.42-1.1,8.26,1.89,12.26,4.92,16.54,2.77,3.91,11.36,10.87,16.32,14.39,2.63,1.87,9.32,4.12,6.91,7.47-2.29,3.19-4.88,4.53-11.31,5.66-4.52.79-12.71.42-16.81-1.84-3.22-1.77-6.4-6.49-9-10.24-3.13-4.59-6-6.27-13-10.38-2.92-1.72-4.47-6.35-2.84-10.59,1.28-3.34,3.68-6.92,4-10.8.58-7.84-3.39-34-4.34-43.67a50.71,50.71,0,0,1,.86-14.89A56.68,56.68,0,0,1,250.52,304l-10.23-55.41C234.11,246.28,211.83,227.66,211.26,202.73Z" style="fill:#b16668"></path><path d="M239.33,249.07l10.42,54.15a89,89,0,0,0-5.21,13.46c-1.52,5.88-1.75,12.45.72,27,4.79,4.79,24.88,5.43,28.65,3,1.43-8.72,4.89-23.89,6.19-28.38s4.29-10.48,6-22.17,2.88-25.64,3.75-42.62.84-33.61-1.36-44.22l-77.26-6.54s-1.38,9.92,5.29,22.11S232.22,245.77,239.33,249.07Z" style="fill:#37474f"></path><path d="M254.36,254c10.31-4.55,19.21-9.08,21.72-18.84-8.55,11-19.25,12.11-24.86,11.31l-10,12.32,4.31,22.41,4.23,22s-2.07,4.26-3.75,8.87c-.28.77-.55,1.55-.8,2.32s-.47,1.53-.66,2.27h0a35.23,35.23,0,0,0-1,6.36,6,6,0,0,0,4.73.81c9.22-2.4,14-12.64,14.19-17.47.41-10.67-3.36-15.72-4.14-18.82s0-9.84-1.81-14-6.6-3.54-6.6-3.54-.26-2.67-.26-4.62S249,256.41,254.36,254Z" style="fill:#263238"></path></g><g id="freepik--leg--inject-53"><path d="M238.59,295.19c.78,2.5,4,13.7,4,19.85,0,3.26-.46,8.12,1.7,9.09s6,.39,10.19-4.69a28,28,0,0,0,5.82-13.92c.42-3.69-1.63-12.64-2.77-15.24-1.58-3.58-1.23-5.11-1.49-13.27-.15-4.37-2.53-8-6.78-8-3,0-4,1-12.2,2.4s-37.2-2.81-48,2.26C166.43,284.31,169.46,301,169.46,301c6.41,8.42,19.34,8.15,26.45,6.28C206,304.66,227.3,293,232.27,291.45S237.81,292.69,238.59,295.19Z" style="fill:#b16668"></path><path d="M169.32,301.65c4,4.51,10,7.71,19.32,7.34s21-7.06,21-7.06,6.48-15.5-.18-31.89c-18.24.61-26.87,2.85-33.65,11.41S169.32,294.56,169.32,301.65Z" style="fill:#263238"></path><path d="M211.26,202.73c6,7.34,19.41,13.8,36.13,16.63,22.48,3.8,38.55-5.93,41.13-10.09,2.13,13.32-15.35,38.81-37.3,37.24a226.75,226.75,0,0,1-18.09,21.14c-8.07,8.15-20.67,20.34-24.76,24.62s-22,20.29-34.42,13-7.9-18.76-5.78-26.36c1.35-4.86,7.91-17.29,13.22-26.22s9.3-15.91,12.15-20.07,4.34-10.95,6.32-15.58C202.83,210.1,208.52,203.5,211.26,202.73Z" style="fill:#37474f"></path></g></g><g id="freepik--Top--inject-53"><g id="freepik--Arm--inject-53"><path d="M291.48,61.13c8,4.18,16.54,8.16,13.41,20.74-2.48,9.94-9.78,28-16.3,43.37-5.2,12.31-5,28.34-5,28.34-5.83.75-24.34-19.46-23.78-29.91,2.17-6,6.3-10.64,7.6-13,5.29-9.83,11.34-29.34,11.34-29.34-3.8-2.62-25.56-20.15-28.57-21.71-3.92-2-6.28-3.14-8.39-4.15-3.31-1.58-4.46-2.68-5.42-5.41-1.36-3.87.2-7-.35-10.84a12.31,12.31,0,0,1,0-5.44s-.16-2.18-3-7.44c-1.05-1.94-1.07-3.63.42-4.24-1.06-2.73.07-3.87,1.42-3.94-.87-2.12-1.46-4.07.6-5.23.21-.12.84.49,1.69,2-.11-1.48,1.35-3.2,2.18-2.22,3.74,5.09,4.15,5.29,7.12,10,2.53,4,3,5.87,4.21,13.68.33,2.1.6,6.93,5.23,9.06C258.36,46.56,284.07,57.26,291.48,61.13Z" style="fill:#b16668"></path><path d="M278.72,81.28c5.42,3.91,12.86,5.43,12.86,5.43s-4.62,1.91-13.64-3Z" style="fill:#9a4a4d"></path></g><g id="freepik--Chest--inject-53"><path d="M285.05,187.3c1.32-3.16.43-7.63-.67-10.38l-4.26-9.33c8.5-9.57,2.55-18.73-1.09-24.92-5.09-7.87-17.29-18.3-17.29-18.3a237.44,237.44,0,0,0-31.67.27s-7,1.45-10.21,2.36c-5.14,1.45-7.94,6.48-9.18,16.74-.33,2.76.6,11.77,2.85,19.52L218,182.67a7.62,7.62,0,0,0-1.92,7.16c-4.65,3.1-4.83,7.41-4.83,12.9,16.79,20.52,64.17,24.12,77.26,6.54C291.24,203.62,290,192.26,285.05,187.3Z" style="fill:#b16668"></path><path d="M275.24,199.59a3.25,3.25,0,0,0-.6-.73c-.25-.21-.53-.38-.78-.59a.83.83,0,0,1-.34-.66,1,1,0,0,1,.16-.36,1.71,1.71,0,0,1,.46-.5l.07,0,0,0a2.45,2.45,0,0,1,0,.38c0,.41-.07.81-.09,1.22,0,.09.09.32.2.19a2.14,2.14,0,0,0,.42-1.32,1.28,1.28,0,0,0-.29-1c-.62-.65-1.48.33-1.64.93-.23.89.57,1.53,1.19,2a2.09,2.09,0,0,1,.72.84,3.4,3.4,0,0,1,.22,1.14c0,.21.43.58.54.24A2.33,2.33,0,0,0,275.24,199.59Z" style="fill:#9a4a4d"></path><g id="freepik--Bikini--inject-53"><path d="M230.5,124.46c4.94,5.14,9.43,10.09,21.45,8.18,8.12-1.29,8.24-6.23,5.3-9.06l2.53.09s6,3.33,12.18,7.55c7.37,5,13.72,9.06,17.33,17.41a21,21,0,0,1-3.64,22.25,16,16,0,0,1-.65,8c-3.75,7.88-42.61,16.21-67,3.79,0,0-5-11.39-4.48-19.41,0,0,10.41.12,12.81-12.34s-1.62-25.13-1.62-25.13Z" style="fill:#FF9182"></path><path d="M230.5,124.46c4.94,5.14,9.43,10.09,21.45,8.18,8.12-1.29,8.24-6.23,5.3-9.06l2.53.09s6,3.33,12.18,7.55c7.37,5,13.72,9.06,17.33,17.41a21,21,0,0,1-3.64,22.25,16,16,0,0,1-.65,8c-3.75,7.88-42.61,16.21-67,3.79,0,0-5-11.39-4.48-19.41,0,0,10.41.12,12.81-12.34s-1.62-25.13-1.62-25.13Z" style="opacity:0.35000000000000003"></path><path d="M263.88,167.43c-4.42,6.65-12.43,8.43-20.43,7.09-6.3-1.07-12.77-5.26-14.68-10.3.63,5.31,3.17,10.55,13.7,12.77C254.3,179.48,262.06,173.17,263.88,167.43Z" style="opacity:0.2"></path></g></g><g id="freepik--Head--inject-53"><path d="M277.31,99.25c.69-2.51,3.49-2.82,4-6.18s-1.32-5.57-4.11-7-3.4-4.11-3-9.74-3.67-8.86-8.29-9.42c-2.29-.28-4.92,0-6.56-1.59a11.67,11.67,0,0,1-1.6-2.57c-2.3-4-6.43-5.67-11.9-5.5a18.63,18.63,0,0,0-7.12,1.56C236,60,234.64,61,231.94,63.61c-3-.41-8.63.39-11.61,3.16-2.16,1.9-4.24,4-4.79,8.22-.43,3.33-.08,5.2-1.46,7-2.81,3.75-6.44,3.83-8,7-2.23,4.45,3.65,8.08.84,13.49a8,8,0,0,0,4.72,11.58c2.59.91,4.75-.47,8.45.8s3.93,4.07,8.64,5.83c3.86,1.44,7-1.45,10.14-1.89,4.21-.6,2.89.83,7-2,1.41-1,2.22-2.62,3.64-3.56,4.51-2.85,6-1.41,11.63.44,1.46.49,6.28,1.7,9.46-2a12.57,12.57,0,0,0,2.61-8.53c1,3,8,2.79,8.6-2.08A2.45,2.45,0,0,1,277.31,99.25Z" style="fill:#263238"></path><path d="M232.57,117.79c-.14-2.8-.82-9.87-.82-9.87-1,2.63-5.7,2.86-8.1-.3-3.05-4-3.16-8.87-1.24-11.88,2.13-3.34,7.38-3.55,9.85,1.46,3.48.55,4.66-4.79,1.68-9.59-.36-11.66,15.58-8.14,18.49-18.68a18.15,18.15,0,0,1,13.13,9.23c1.3,2.56,1.54,4.15,1.38,9.4-.06,2,1.41,4.37,1.89,7.07C271,107,267.5,112,263.51,114.51c-2.13,1.34-4.92,2.25-10.09,2.68,0,0,.15,2.32.3,3.86s.32,2.21,2.19,2.42c.63.08,1.34.11,1.34.11s8.76,7.68-2.45,10c-16.74,3.51-23.73-6.57-24.54-9.15C232.81,123.84,232.81,122.44,232.57,117.79Z" style="fill:#b16668"></path><path d="M226.33,106.3a1.71,1.71,0,1,0,1.54-1.87A1.7,1.7,0,0,0,226.33,106.3Z" style="fill:#ebebeb"></path><path d="M248,103.77l6.25,1.5a3.16,3.16,0,0,1-3.81,2.49A3.37,3.37,0,0,1,248,103.77Z" style="fill:#9a4a4d"></path><path d="M248.53,105.16a3.53,3.53,0,0,1,3.73,2.49,3.15,3.15,0,0,1-1.78.11,3.33,3.33,0,0,1-2.42-2.51A2.44,2.44,0,0,1,248.53,105.16Z" style="fill:#f28f8f"></path><path d="M263.73,84.62l-4.62-1.78a2.38,2.38,0,0,1,3.12-1.47A2.61,2.61,0,0,1,263.73,84.62Z" style="fill:#263238"></path><path d="M241.58,86.71l4.35-2.47a2.39,2.39,0,0,0-3.33-1A2.63,2.63,0,0,0,241.58,86.71Z" style="fill:#263238"></path><path d="M243.44,91.92a2.5,2.5,0,0,0,3,1.24c1.31-.34,2.25-1.36,1.94-2.5-.16-.59-.36.76-2.44,1.22C244.07,92.29,243.22,91.34,243.44,91.92Z" style="fill:#263238"></path><path d="M258.53,89.91a2.49,2.49,0,0,0,2.78,1.74c1.35-.1,2.45-1,2.35-2.13-.06-.6-.49.7-2.62.78C259.08,90.38,258.41,89.3,258.53,89.91Z" style="fill:#263238"></path><path d="M253.42,117.19c-7.87-.21-16.79-2.75-19.7-7,0,0,1.26,4.31,4.5,6.07a31.3,31.3,0,0,0,15.39,3.44Z" style="fill:#9a4a4d"></path><polygon points="261.95 98.7 255.31 101.72 253.19 88.36 261.95 98.7" style="fill:#9a4a4d"></polygon></g><g id="freepik--arm--inject-53"><path d="M239.67,23.33c.67-2.72-.55-3.66-1.85-3.56.57-2.12.88-4-1.21-4.9-.22-.09-.74.57-1.37,2.1A3.24,3.24,0,0,0,234,15.1a8.25,8.25,0,0,0,.8,3c-1.35.07-2.48,1.21-1.42,3.94-1.49.61-1.47,2.3-.42,4.24,2.85,5.26,3,7.44,3,7.44a12.47,12.47,0,0,0,0,5.44c.56,3.88-1,7,.36,10.84a7.21,7.21,0,0,0,3.24,4.23,8.5,8.5,0,0,0,.59-1.47c1.18-4.13-.86-9.08-.82-12.84a12,12,0,0,0-.67-5.17s-.13-2.09,1.92-7.45C241.36,25.34,241.17,23.73,239.67,23.33Z" style="fill:#9a4a4d"></path><path d="M234.39,58.58c2.36-1.57,4.17-3.22,4.93-5.88,1.18-4.13-.86-9.08-.82-12.84a12,12,0,0,0-.67-5.17s-.12-2.09,1.93-7.45c.75-2,.56-3.58-.94-4,.67-2.72-.55-3.66-1.84-3.56.56-2.12.87-4-1.22-4.9-.22-.09-.74.57-1.37,2.1-.07-1.42-1.68-2.87-2.34-1.84-2.92,5.31-3.29,5.55-5.51,10.41-1.9,4.15-2.07,6-2.28,13.53a14.61,14.61,0,0,1-3.72,9.83c-3.2,3.83-22.89,16.26-37.53,31.31-4.49,4.61-6.75,9-1.37,21.11,4.23,9.5,8.41,16,19.11,34.12,1.89,3.19,3.5,5.94,6,10.52s2.77,13.05,6.78,17.37c8.35,0,21.48-11.2,13.64-38-3.35-4.76-6.15-5.87-7.8-8.92-5-9.17-10.88-17.38-13-23,.76-.78,12.21-17.12,15.84-21.56S231.44,60.55,234.39,58.58Z" style="fill:#b16668"></path><path d="M237.61,24.59a44.18,44.18,0,0,0-2.76,6.88c-.29,1.34-.78,4.21-.78,4.21a17.49,17.49,0,0,1,.3-4.49C234.86,28.32,237.61,24.59,237.61,24.59Z" style="fill:#9a4a4d"></path><path d="M236.64,19.84c-1.06,2.26-3.18,5.38-3.69,7.05a46.46,46.46,0,0,0-1.42,7.77,19.46,19.46,0,0,1,.94-8C233.38,24,234.79,22.71,236.64,19.84Z" style="fill:#9a4a4d"></path><path d="M234.39,16.9c-1.54,3.05-4,7.31-4.51,8.58a67.57,67.57,0,0,0-1.4,7.63,35.72,35.72,0,0,1,.44-6.74C229.48,24.05,234.39,16.9,234.39,16.9Z" style="fill:#9a4a4d"></path><path d="M206.34,93.35c-1.74-4.61-6.72-9-9.25-9.73,3.42-.25,8.81,3,11,7.36Z" style="fill:#9a4a4d"></path></g></g></g></g></svg>